<svg xmlns="http://www.w3.org/2000/svg" width="372" height="268" fill="none"><path fill="ivory" d="M49.6 206.6c-20 0-31-8.4-31-32.2v-35.6c0-8.8-3-13-13.8-13.4V112c10.2-.4 13.8-4.6 13.8-13.4V63.8c0-23.8 11-31.6 31-31.6h3.6v13.2H50c-10.4 0-14.6 4-14.6 18.6v35.8c0 10.2-3.4 16.2-11.2 18.6v.6c7.8 2.4 11.2 8.4 11.2 18.6v36.6c0 14.6 4.2 18.6 14.6 18.6h3.2v13.8zM118.601 130.4c-15.8 0-29.2-12.2-29.2-28S102.8 74 118.6 74c16 0 29.2 12.6 29.2 28.4s-13.2 28-29.2 28m0-12.6c9 0 14.8-6.8 14.8-15.4s-5.8-15.8-14.8-15.8-14.6 7.2-14.6 15.8 5.6 15.4 14.6 15.4M122.708 182.977c.825 17.231 15.939 25.517 34.068 24.649s32.382-10.561 31.557-27.791c-.832-17.38-15.946-25.667-34.075-24.799s-32.382 10.561-31.55 27.941m-7.791.373c-1.069-22.324 15.808-36.798 38.882-37.903s41.256 11.69 42.325 34.015c1.069 22.324-15.823 36.498-38.896 37.603-23.074 1.105-41.242-11.39-42.311-33.715M221.321 130.89c-15.8 0-29.2-12.2-29.2-28s13.4-28.4 29.2-28.4c16 0 29.2 12.6 29.2 28.4s-13.2 28-29.2 28m0-12.6c9 0 14.8-6.8 14.8-15.4s-5.8-15.8-14.8-15.8-14.6 7.2-14.6 15.8 5.6 15.4 14.6 15.4M318 206.6v-13.8h3.2c10.4 0 14.6-3.4 14.6-18v-36.6c0-10.2 3.4-16.2 11.2-18.6v-.6c-7.8-2.4-11.2-8.4-11.2-18.6V64.6c0-14.6-4.2-19.2-14.6-19.2H318V32.2h3.6c20 0 31 8.4 31 32.2v34.8c0 8.8 3 13 13.8 13.4V126c-10.2.4-13.8 4.6-13.8 13.4V175c0 23.8-11 31.6-31 31.6z"/></svg>