<svg xmlns="http://www.w3.org/2000/svg" width="372" height="314" fill="none"><path fill="ivory" d="M49.6 252.6c-20 0-31-8.4-31-32.2v-35.6c0-8.8-3-13-13.8-13.4V158c10.2-.4 13.8-4.6 13.8-13.4v-34.8c0-23.8 11-31.6 31-31.6h3.6v13.2H50c-10.4 0-14.6 4-14.6 18.6v35.8c0 10.2-3.4 16.2-11.2 18.6v.6c7.8 2.4 11.2 8.4 11.2 18.6v36.6c0 14.6 4.2 18.6 14.6 18.6h3.2v13.8zM118.6 176.4c-15.8 0-29.2-12.2-29.2-28s13.4-28.4 29.2-28.4c16 0 29.2 12.6 29.2 28.4s-13.2 28-29.2 28m0-12.6c9 0 14.8-6.8 14.8-15.4s-5.8-15.8-14.8-15.8-14.6 7.2-14.6 15.8 5.6 15.4 14.6 15.4M75.6 113.4 107.2 56h23l31.6 57.4H137l-18-33.8h-.4L100 113.4zM237.7 215.5c-18.3 11.85-39.75 20.55-67.95 20.55-26.1 0-47.25-9.6-62.85-20.55v-8.1c16.5 10.05 38.25 18 62.85 18 26.55 0 47.85-6.3 67.95-18zM205.686 87.749l56.066-33.91 19.919 11.5-1.334 65.51-21.477-12.4 1.311-38.272-.346-.2-33.008 19.972zM221.321 176.89c-15.8 0-29.2-12.2-29.2-28s13.4-28.4 29.2-28.4c16 0 29.2 12.6 29.2 28.4s-13.2 28-29.2 28m0-12.6c9 0 14.8-6.8 14.8-15.4s-5.8-15.8-14.8-15.8-14.6 7.2-14.6 15.8 5.6 15.4 14.6 15.4M318 252.6v-13.8h3.2c10.4 0 14.6-3.4 14.6-18v-36.6c0-10.2 3.4-16.2 11.2-18.6v-.6c-7.8-2.4-11.2-8.4-11.2-18.6v-35.8c0-14.6-4.2-19.2-14.6-19.2H318V78.2h3.6c20 0 31 8.4 31 32.2v34.8c0 8.8 3 13 13.8 13.4V172c-10.2.4-13.8 4.6-13.8 13.4V221c0 23.8-11 31.6-31 31.6z"/></svg>