<svg width="250" height="383" viewBox="0 0 250 383" fill="none" xmlns="http://www.w3.org/2000/svg">
<circle cx="125" cy="40" r="15" fill="#E72964"/>
<path d="M1.1 117V102.7H4V114.58H10.72V117H1.1ZM12.2758 120.36V118.22H13.2358C14.3158 118.22 14.7558 117.66 14.7558 116.82C14.7558 116.26 14.5558 115.6 13.9758 114.04L11.2158 106.74H14.0758L15.5958 111.36C15.9158 112.3 16.2558 113.6 16.2558 113.6H16.2958C16.2958 113.6 16.5758 112.3 16.8958 111.36L18.3358 106.74H21.0758L17.4958 117.26C16.7158 119.54 15.9558 120.36 13.8758 120.36H12.2758ZM27.4642 117.3C24.2242 117.3 22.2042 114.94 22.2042 111.88C22.2042 108.82 24.2042 106.46 27.3242 106.46C29.9842 106.46 31.6242 108 31.9842 110.22H29.3242C29.1442 109.32 28.4442 108.64 27.4442 108.64C25.8042 108.64 24.9642 109.9 24.9642 111.88C24.9642 113.82 25.7442 115.12 27.4042 115.12C28.5042 115.12 29.2842 114.54 29.4642 113.38H32.0842C31.9042 115.56 30.2042 117.3 27.4642 117.3ZM39.0906 117.3C35.6906 117.3 33.7706 114.92 33.7706 111.86C33.7706 108.82 35.8306 106.46 38.8306 106.46C42.1306 106.46 43.8906 108.98 43.8906 112.64H36.4506C36.6506 114.22 37.5306 115.2 39.0706 115.2C40.1306 115.2 40.7506 114.72 41.0506 113.94H43.7306C43.3506 115.76 41.7306 117.3 39.0906 117.3ZM38.8706 108.56C37.4306 108.56 36.7306 109.42 36.4906 110.76H41.0506C40.9706 109.46 40.1106 108.56 38.8706 108.56ZM42.0306 102.64L39.8706 105.46H37.7506L38.8506 102.64H42.0306ZM50.9695 117.3C47.5695 117.3 45.6495 114.92 45.6495 111.86C45.6495 108.82 47.7095 106.46 50.7095 106.46C54.0095 106.46 55.7695 108.98 55.7695 112.64H48.3295C48.5295 114.22 49.4095 115.2 50.9495 115.2C52.0095 115.2 52.6295 114.72 52.9295 113.94H55.6095C55.2295 115.76 53.6095 117.3 50.9695 117.3ZM50.7495 108.56C49.3095 108.56 48.6095 109.42 48.3695 110.76H52.9295C52.8495 109.46 51.9895 108.56 50.7495 108.56ZM62.6078 117V102.7H65.5078V108.3H71.1278V102.7H74.0278V117H71.1278V110.7H65.5078V117H62.6078ZM81.8211 117.3C78.4211 117.3 76.5011 114.92 76.5011 111.86C76.5011 108.82 78.5611 106.46 81.5611 106.46C84.8611 106.46 86.6211 108.98 86.6211 112.64H79.1811C79.3811 114.22 80.2611 115.2 81.8011 115.2C82.8611 115.2 83.4811 114.72 83.7811 113.94H86.4611C86.0811 115.76 84.4611 117.3 81.8211 117.3ZM81.6011 108.56C80.1611 108.56 79.4611 109.42 79.2211 110.76H83.7811C83.7011 109.46 82.8411 108.56 81.6011 108.56ZM91.54 106.74V108.14H91.6C92.3 107.04 93.24 106.46 94.64 106.46C96.76 106.46 98.18 108.06 98.18 110.3V117H95.46V110.7C95.46 109.6 94.82 108.82 93.68 108.82C92.48 108.82 91.6 109.78 91.6 111.18V117H88.88V106.74H91.54ZM103.477 106.74V108.38H103.537C104.157 107.22 104.857 106.62 106.057 106.62C106.357 106.62 106.537 106.64 106.697 106.7V109.08H106.637C104.857 108.9 103.577 109.84 103.577 112V117H100.857V106.74H103.477ZM108.868 117V106.74H111.588V117H108.868ZM108.868 105.14V102.7H111.588V105.14H108.868ZM117.88 117L122.86 102.7H125.86L130.9 117H127.88L126.92 113.96H121.76L120.82 117H117.88ZM123.72 107.62L122.44 111.74H126.22L124.94 107.62C124.7 106.86 124.36 105.42 124.36 105.42H124.32C124.32 105.42 123.96 106.86 123.72 107.62ZM134.608 117L131.048 106.74H133.808L135.448 112.06C135.748 113.04 135.908 113.7 135.908 113.7H135.948C135.948 113.7 136.088 113.04 136.388 112.06L138.068 106.74H140.788L137.208 117H134.608ZM145.332 106.74V108.38H145.392C146.012 107.22 146.712 106.62 147.912 106.62C148.212 106.62 148.392 106.64 148.552 106.7V109.08H148.492C146.712 108.9 145.432 109.84 145.432 112V117H142.712V106.74H145.332ZM150.724 117V106.74H153.444V117H150.724ZM150.724 105.14V102.7H153.444V105.14H150.724ZM156.236 117V102.7H158.956V117H156.236ZM3.68 163V153.02H0.68V151.9C2.36 151.86 3.8 151.24 4.06 149.22H5.36V163H3.68ZM13.4341 163.28C10.2741 163.28 8.43406 160.84 8.43406 157.84C8.43406 154.84 10.3941 152.4 13.3341 152.4C16.4341 152.4 18.0941 154.8 18.0941 158.22H10.0941C10.2141 160.32 11.3541 161.92 13.4341 161.92C14.9341 161.92 15.9341 161.2 16.2941 159.8H17.8741C17.3941 162.02 15.7741 163.28 13.4341 163.28ZM13.3341 153.68C11.4141 153.68 10.3741 155.12 10.1341 157H16.3541C16.2541 154.94 15.1941 153.68 13.3341 153.68ZM12.8141 151.04L11.1741 148.5H13.1741L14.1941 151.04H12.8141ZM22.2981 152.66V154.38H22.3381C22.9581 153.38 24.0381 152.54 25.4181 152.54C25.7181 152.54 25.8781 152.58 26.0781 152.66V154.22H26.0181C25.7781 154.14 25.6181 154.12 25.2981 154.12C23.6981 154.12 22.2981 155.32 22.2981 157.26V163H20.6781V152.66H22.2981ZM32.563 163.28C29.403 163.28 27.563 160.84 27.563 157.84C27.563 154.84 29.523 152.4 32.463 152.4C35.563 152.4 37.223 154.8 37.223 158.22H29.223C29.343 160.32 30.483 161.92 32.563 161.92C34.063 161.92 35.063 161.2 35.423 159.8H37.003C36.523 162.02 34.903 163.28 32.563 163.28ZM32.463 153.68C30.543 153.68 29.503 155.12 29.263 157H35.483C35.383 154.94 34.323 153.68 32.463 153.68ZM47.9106 163.3C45.0706 163.3 43.4906 161.96 43.3306 159.64H44.9906C45.2106 161.44 46.4106 161.94 47.9506 161.94C49.6506 161.94 50.3506 161.2 50.3506 160.24C50.3506 159.08 49.5506 158.78 47.6506 158.38C45.6106 157.96 43.7906 157.54 43.7906 155.28C43.7906 153.56 45.1106 152.44 47.5106 152.44C50.0706 152.44 51.3306 153.66 51.5706 155.68H49.9106C49.7506 154.32 49.0106 153.72 47.4706 153.72C45.9906 153.72 45.3906 154.38 45.3906 155.2C45.3906 156.32 46.3906 156.54 48.1706 156.9C50.2506 157.32 51.9906 157.78 51.9906 160.16C51.9906 162.24 50.2906 163.3 47.9106 163.3ZM54.5414 166.32V152.66H56.1614V154.12H56.2014C56.9814 153.06 58.0214 152.42 59.5214 152.42C62.1414 152.42 63.9614 154.42 63.9614 157.86C63.9614 161.18 62.2614 163.3 59.4614 163.3C58.0614 163.3 57.0614 162.88 56.2014 161.78H56.1614V166.32H54.5414ZM59.3414 161.94C61.3214 161.94 62.3014 160.22 62.3014 157.88C62.3014 155.56 61.3214 153.8 59.3614 153.8C57.1014 153.8 56.0614 155.64 56.0614 157.88C56.0614 160.12 56.9614 161.94 59.3414 161.94ZM70.9966 163.28C67.8366 163.28 65.9966 160.84 65.9966 157.84C65.9966 154.84 67.9566 152.4 70.8966 152.4C73.9966 152.4 75.6566 154.8 75.6566 158.22H67.6566C67.7766 160.32 68.9166 161.92 70.9966 161.92C72.4966 161.92 73.4966 161.2 73.8566 159.8H75.4366C74.9566 162.02 73.3366 163.28 70.9966 163.28ZM70.8966 153.68C68.9766 153.68 67.9366 155.12 67.6966 157H73.9166C73.8166 154.94 72.7566 153.68 70.8966 153.68ZM70.2566 151.04L71.2766 148.5H73.2766L71.6366 151.04H70.2566ZM82.6642 163V148.7H84.5642L91.0842 158.64C91.5642 159.38 92.1242 160.48 92.1242 160.48H92.1642V148.7H93.8442V163H92.0042L85.4442 153.04C84.9842 152.34 84.3842 151.26 84.3842 151.26H84.3442V163H82.6642ZM102.731 163.28C98.7114 163.28 96.7914 161.04 96.6314 158.16H98.3914C98.6314 160.58 100.111 161.84 102.811 161.84C104.791 161.84 106.211 160.94 106.211 159.16C106.211 157.2 104.491 156.74 101.931 156.18C99.4114 155.62 97.2514 154.9 97.2514 152.2C97.2514 149.84 99.2114 148.42 102.111 148.42C105.691 148.42 107.171 150.24 107.531 152.88H105.831C105.571 150.84 104.251 149.82 102.151 149.82C100.211 149.82 98.9314 150.64 98.9314 152.12C98.9314 153.74 100.531 154.22 102.671 154.64C105.451 155.2 107.991 155.88 107.991 159.1C107.991 161.78 105.811 163.28 102.731 163.28ZM111.091 163V148.7H112.891V163H111.091ZM116.162 165.56V164.66C116.602 164.5 117.062 164.12 117.062 163H116.142V161.02H118.082V163.06C118.082 164.52 117.302 165.34 116.162 165.56ZM125.237 166.32V152.66H126.857V154.12H126.897C127.677 153.06 128.717 152.42 130.217 152.42C132.837 152.42 134.657 154.42 134.657 157.86C134.657 161.18 132.957 163.3 130.157 163.3C128.757 163.3 127.757 162.88 126.897 161.78H126.857V166.32H125.237ZM130.037 161.94C132.017 161.94 132.997 160.22 132.997 157.88C132.997 155.56 132.017 153.8 130.057 153.8C127.797 153.8 126.757 155.64 126.757 157.88C126.757 160.12 127.657 161.94 130.037 161.94ZM138.892 148.7V154.02H138.932C139.672 153.04 140.712 152.42 142.212 152.42C144.372 152.42 145.692 153.6 145.692 155.74V163H144.072V155.88C144.072 154.54 143.192 153.78 141.732 153.78C140.092 153.78 138.892 154.94 138.892 156.64V163H137.272V148.7H138.892ZM149.963 166.42C149.343 166.42 148.943 166.38 148.503 166.2V164.76H148.583C148.803 164.88 149.143 164.98 149.683 164.98C150.363 164.98 150.823 164.72 151.223 163.72L151.623 162.7L147.583 152.66H149.343L151.783 159.1C152.103 159.96 152.483 161.12 152.483 161.12H152.523C152.523 161.12 152.883 159.96 153.203 159.1L155.563 152.66H157.283L152.863 163.84C152.023 165.98 151.223 166.42 149.963 166.42ZM163.25 163.3C160.41 163.3 158.83 161.96 158.67 159.64H160.33C160.55 161.44 161.75 161.94 163.29 161.94C164.99 161.94 165.69 161.2 165.69 160.24C165.69 159.08 164.89 158.78 162.99 158.38C160.95 157.96 159.13 157.54 159.13 155.28C159.13 153.56 160.45 152.44 162.85 152.44C165.41 152.44 166.67 153.66 166.91 155.68H165.25C165.09 154.32 164.35 153.72 162.81 153.72C161.33 153.72 160.73 154.38 160.73 155.2C160.73 156.32 161.73 156.54 163.51 156.9C165.59 157.32 167.33 157.78 167.33 160.16C167.33 162.24 165.63 163.3 163.25 163.3ZM169.881 163V152.66H171.501V163H169.881ZM169.881 150.7V148.7H171.501V150.7H169.881ZM181.929 166.32V161.74H181.889C181.109 162.74 180.169 163.3 178.689 163.3C175.889 163.3 174.189 161.18 174.189 157.86C174.189 154.42 176.109 152.42 178.629 152.42C180.129 152.42 181.169 153.02 181.889 154.04H181.929V152.66H183.549V166.32H181.929ZM178.769 161.94C181.149 161.94 182.029 160.22 182.029 157.88C182.029 155.48 181.009 153.8 178.749 153.8C176.789 153.8 175.849 155.56 175.849 157.88C175.849 160.22 176.789 161.94 178.769 161.94ZM194.945 163H193.325V161.58H193.285C192.545 162.58 191.665 163.24 190.165 163.24C188.045 163.24 186.685 161.96 186.685 159.82V152.66H188.305V159.78C188.305 161.12 189.165 161.9 190.625 161.9C192.265 161.9 193.325 160.66 193.325 159.02V152.66H194.945V163ZM202.555 163.28C199.395 163.28 197.555 160.84 197.555 157.84C197.555 154.84 199.515 152.4 202.455 152.4C205.555 152.4 207.215 154.8 207.215 158.22H199.215C199.335 160.32 200.475 161.92 202.555 161.92C204.055 161.92 205.055 161.2 205.415 159.8H206.995C206.515 162.02 204.895 163.28 202.555 163.28ZM202.455 153.68C200.535 153.68 199.495 155.12 199.255 157H205.475C205.375 154.94 204.315 153.68 202.455 153.68ZM5.52 186.28C2.44 186.28 0.52 183.84 0.52 180.84C0.52 177.84 2.44 175.4 5.52 175.4C7.96 175.4 9.58 176.8 9.94 179H8.3C8.06 177.6 7.08 176.74 5.52 176.74C3.32 176.74 2.18 178.56 2.18 180.84C2.18 183.12 3.32 184.92 5.52 184.92C7.2 184.92 8.2 183.96 8.34 182.36H9.94C9.72 184.84 8.1 186.28 5.52 186.28ZM14.0911 171.7V177.02H14.1311C14.8711 176.04 15.9111 175.42 17.4111 175.42C19.5711 175.42 20.8911 176.6 20.8911 178.74V186H19.2711V178.88C19.2711 177.54 18.3911 176.78 16.9311 176.78C15.2911 176.78 14.0911 177.94 14.0911 179.64V186H12.4711V171.7H14.0911ZM24.0375 186V175.66H25.6575V186H24.0375ZM24.0375 173.7V171.7H25.6575V173.7H24.0375ZM28.8656 186V175.66H30.4856V177.14H30.5256C31.1656 176.14 32.2656 175.42 33.5656 175.42C34.8256 175.42 35.8256 176.06 36.2656 177.26H36.3056C36.9656 176.08 38.2056 175.42 39.4656 175.42C41.3056 175.42 42.6056 176.6 42.6056 178.74V186H40.9856V178.82C40.9856 177.54 40.1256 176.78 39.0856 176.78C37.7456 176.78 36.5456 177.94 36.5456 179.56V186H34.9256V178.82C34.9256 177.54 34.2056 176.78 33.1456 176.78C31.8856 176.78 30.4856 177.94 30.4856 179.56V186H28.8656ZM45.7445 186V175.66H47.3645V186H45.7445ZM45.7445 173.7V171.7H47.3645V173.7H45.7445ZM54.9927 186.28C51.8327 186.28 49.9927 183.84 49.9927 180.84C49.9927 177.84 51.9527 175.4 54.8927 175.4C57.9927 175.4 59.6527 177.8 59.6527 181.22H51.6527C51.7727 183.32 52.9127 184.92 54.9927 184.92C56.4927 184.92 57.4927 184.2 57.8527 182.8H59.4327C58.9527 185.02 57.3327 186.28 54.9927 186.28ZM54.8927 176.68C52.9727 176.68 51.9327 178.12 51.6927 180H57.9127C57.8127 177.94 56.7527 176.68 54.8927 176.68ZM70.2003 186.28C68.1203 186.28 66.1003 184.8 66.1003 182.46C66.1003 180.34 67.4003 179.26 69.2003 178.16L68.8003 177.64C67.9803 176.58 67.7003 175.74 67.7003 174.7C67.7003 173.08 69.0403 171.84 70.7803 171.84C72.3603 171.84 73.8803 172.82 73.8803 174.82C73.8803 176.56 72.6203 177.52 71.2603 178.4L74.1003 182.02C74.4003 181.24 74.5803 180.36 74.5803 179.38H75.9803C75.9803 180.74 75.6603 182.1 75.0603 183.24L77.2203 186H75.2803L74.1603 184.56C73.2003 185.6 71.8803 186.28 70.2003 186.28ZM70.3003 184.86C71.5003 184.86 72.5203 184.32 73.2803 183.42L70.0003 179.2C68.7003 180.06 67.7203 180.88 67.7203 182.46C67.7203 183.88 68.8803 184.86 70.3003 184.86ZM69.2203 174.72C69.2203 175.52 69.4803 176.1 70.1003 176.9L70.4803 177.4C71.7203 176.6 72.3203 175.88 72.3203 174.78C72.3203 173.8 71.7203 173.18 70.7803 173.18C69.8603 173.18 69.2203 173.8 69.2203 174.72ZM83.3422 186V175.66H84.9622V177.14H85.0022C85.6422 176.14 86.7422 175.42 88.0422 175.42C89.3022 175.42 90.3022 176.06 90.7422 177.26H90.7822C91.4422 176.08 92.6822 175.42 93.9422 175.42C95.7822 175.42 97.0822 176.6 97.0822 178.74V186H95.4622V178.82C95.4622 177.54 94.6022 176.78 93.5622 176.78C92.2222 176.78 91.0222 177.94 91.0222 179.56V186H89.4022V178.82C89.4022 177.54 88.6822 176.78 87.6222 176.78C86.3622 176.78 84.9622 177.94 84.9622 179.56V186H83.3422ZM108.341 186.1C107.281 186.1 106.721 185.62 106.561 184.56H106.541C105.921 185.36 104.861 186.2 103.101 186.2C101.141 186.2 99.6011 185.28 99.6011 183.32C99.6011 180.88 101.521 180.38 104.101 179.98C105.561 179.76 106.581 179.62 106.581 178.5C106.581 177.34 105.741 176.68 104.261 176.68C102.581 176.68 101.741 177.4 101.681 178.96H100.121C100.181 176.96 101.501 175.46 104.241 175.46C106.441 175.46 108.061 176.28 108.061 178.74V183.66C108.061 184.5 108.261 184.96 109.161 184.76H109.221V185.94C109.021 186.02 108.761 186.1 108.341 186.1ZM103.461 184.96C105.621 184.96 106.601 183.38 106.601 182.18V180.42C106.061 180.76 105.121 181.02 104.241 181.18C102.621 181.48 101.321 181.76 101.321 183.28C101.321 184.66 102.401 184.96 103.461 184.96ZM110.561 176.98V175.66H112.061V172.4H113.681V175.66H115.681V176.98H113.681V183.7C113.681 184.42 114.061 184.66 114.721 184.66C115.041 184.66 115.401 184.58 115.581 184.52H115.641V185.92C115.261 186 114.821 186.06 114.341 186.06C113.021 186.06 112.061 185.52 112.061 184.06V176.98H110.561ZM119.974 171.7V177.02H120.014C120.754 176.04 121.794 175.42 123.294 175.42C125.454 175.42 126.774 176.6 126.774 178.74V186H125.154V178.88C125.154 177.54 124.274 176.78 122.814 176.78C121.174 176.78 119.974 177.94 119.974 179.64V186H118.354V171.7H119.974ZM134.34 186.28C131.18 186.28 129.34 183.84 129.34 180.84C129.34 177.84 131.3 175.4 134.24 175.4C137.34 175.4 139 177.8 139 181.22H131C131.12 183.32 132.26 184.92 134.34 184.92C135.84 184.92 136.84 184.2 137.2 182.8H138.78C138.3 185.02 136.68 186.28 134.34 186.28ZM134.24 176.68C132.32 176.68 131.28 178.12 131.04 180H137.26C137.16 177.94 136.1 176.68 134.24 176.68ZM133.6 174.04L134.62 171.5H136.62L134.98 174.04H133.6ZM141.584 186V175.66H143.204V177.14H143.244C143.884 176.14 144.984 175.42 146.284 175.42C147.544 175.42 148.544 176.06 148.984 177.26H149.024C149.684 176.08 150.924 175.42 152.184 175.42C154.024 175.42 155.324 176.6 155.324 178.74V186H153.704V178.82C153.704 177.54 152.844 176.78 151.804 176.78C150.464 176.78 149.264 177.94 149.264 179.56V186H147.644V178.82C147.644 177.54 146.924 176.78 145.864 176.78C144.604 176.78 143.204 177.94 143.204 179.56V186H141.584ZM166.583 186.1C165.523 186.1 164.963 185.62 164.803 184.56H164.783C164.163 185.36 163.103 186.2 161.343 186.2C159.383 186.2 157.843 185.28 157.843 183.32C157.843 180.88 159.763 180.38 162.343 179.98C163.803 179.76 164.823 179.62 164.823 178.5C164.823 177.34 163.983 176.68 162.503 176.68C160.823 176.68 159.983 177.4 159.923 178.96H158.363C158.423 176.96 159.743 175.46 162.483 175.46C164.683 175.46 166.303 176.28 166.303 178.74V183.66C166.303 184.5 166.503 184.96 167.403 184.76H167.463V185.94C167.263 186.02 167.003 186.1 166.583 186.1ZM161.703 184.96C163.863 184.96 164.843 183.38 164.843 182.18V180.42C164.303 180.76 163.363 181.02 162.483 181.18C160.863 181.48 159.563 181.76 159.563 183.28C159.563 184.66 160.643 184.96 161.703 184.96ZM168.803 176.98V175.66H170.303V172.4H171.923V175.66H173.923V176.98H171.923V183.7C171.923 184.42 172.303 184.66 172.963 184.66C173.283 184.66 173.643 184.58 173.823 184.52H173.883V185.92C173.503 186 173.063 186.06 172.583 186.06C171.263 186.06 170.303 185.52 170.303 184.06V176.98H168.803ZM176.596 186V175.66H178.216V186H176.596ZM176.596 173.7V171.7H178.216V173.7H176.596ZM188.644 189.32V184.74H188.604C187.824 185.74 186.884 186.3 185.404 186.3C182.604 186.3 180.904 184.18 180.904 180.86C180.904 177.42 182.824 175.42 185.344 175.42C186.844 175.42 187.884 176.02 188.604 177.04H188.644V175.66H190.264V189.32H188.644ZM185.484 184.94C187.864 184.94 188.744 183.22 188.744 180.88C188.744 178.48 187.724 176.8 185.464 176.8C183.504 176.8 182.564 178.56 182.564 180.88C182.564 183.22 183.504 184.94 185.484 184.94ZM201.659 186H200.039V184.58H199.999C199.259 185.58 198.379 186.24 196.879 186.24C194.759 186.24 193.399 184.96 193.399 182.82V175.66H195.019V182.78C195.019 184.12 195.879 184.9 197.339 184.9C198.979 184.9 200.039 183.66 200.039 182.02V175.66H201.659V186ZM209.27 186.28C206.11 186.28 204.27 183.84 204.27 180.84C204.27 177.84 206.23 175.4 209.17 175.4C212.27 175.4 213.93 177.8 213.93 181.22H205.93C206.05 183.32 207.19 184.92 209.27 184.92C210.77 184.92 211.77 184.2 212.13 182.8H213.71C213.23 185.02 211.61 186.28 209.27 186.28ZM209.17 176.68C207.25 176.68 206.21 178.12 205.97 180H212.19C212.09 177.94 211.03 176.68 209.17 176.68ZM220.434 186.3C217.594 186.3 216.014 184.96 215.854 182.64H217.514C217.734 184.44 218.934 184.94 220.474 184.94C222.174 184.94 222.874 184.2 222.874 183.24C222.874 182.08 222.074 181.78 220.174 181.38C218.134 180.96 216.314 180.54 216.314 178.28C216.314 176.56 217.634 175.44 220.034 175.44C222.594 175.44 223.854 176.66 224.094 178.68H222.434C222.274 177.32 221.534 176.72 219.994 176.72C218.514 176.72 217.914 177.38 217.914 178.2C217.914 179.32 218.914 179.54 220.694 179.9C222.774 180.32 224.514 180.78 224.514 183.16C224.514 185.24 222.814 186.3 220.434 186.3ZM1.34 232V217.7H3.14V230.34H10.64V232H1.34ZM17.2036 232.28C14.1236 232.28 12.2036 229.84 12.2036 226.84C12.2036 223.84 14.1236 221.4 17.2036 221.4C20.3036 221.4 22.1836 223.84 22.1836 226.84C22.1836 229.84 20.3036 232.28 17.2036 232.28ZM17.2036 230.92C19.4036 230.92 20.5236 229.12 20.5236 226.84C20.5236 224.56 19.4036 222.74 17.2036 222.74C15.0036 222.74 13.8636 224.56 13.8636 226.84C13.8636 229.12 15.0036 230.92 17.2036 230.92ZM28.9192 235.44C26.2392 235.44 24.7192 234.36 24.5392 232.58H26.0392C26.1992 233.72 27.2792 234.16 28.8792 234.16C30.7792 234.16 31.8392 233.3 31.8392 231.5V230.04H31.7992C31.0392 231.02 30.2192 231.64 28.7392 231.64C26.0592 231.64 24.2192 229.5 24.2192 226.52C24.2192 223.3 26.2392 221.42 28.6392 221.42C30.1392 221.42 31.0992 222 31.7992 222.98H31.8392V221.66H33.4592V231.44C33.4592 234.16 31.6592 235.44 28.9192 235.44ZM28.8192 230.28C31.1992 230.28 31.9592 228.62 31.9592 226.44C31.9592 224.18 30.9992 222.78 28.7992 222.78C26.8592 222.78 25.8792 224.3 25.8792 226.54C25.8792 228.8 26.8992 230.28 28.8192 230.28ZM36.6586 232V221.66H38.2786V232H36.6586ZM36.6586 219.7V217.7H38.2786V219.7H36.6586ZM48.7067 235.32V230.74H48.6667C47.8867 231.74 46.9467 232.3 45.4667 232.3C42.6667 232.3 40.9667 230.18 40.9667 226.86C40.9667 223.42 42.8867 221.42 45.4067 221.42C46.9067 221.42 47.9467 222.02 48.6667 223.04H48.7067V221.66H50.3267V235.32H48.7067ZM45.5467 230.94C47.9267 230.94 48.8067 229.22 48.8067 226.88C48.8067 224.48 47.7867 222.8 45.5267 222.8C43.5667 222.8 42.6267 224.56 42.6267 226.88C42.6267 229.22 43.5667 230.94 45.5467 230.94ZM61.7219 232H60.1019V230.58H60.0619C59.3219 231.58 58.4419 232.24 56.9419 232.24C54.8219 232.24 53.4619 230.96 53.4619 228.82V221.66H55.0819V228.78C55.0819 230.12 55.9419 230.9 57.4019 230.9C59.0419 230.9 60.1019 229.66 60.1019 228.02V221.66H61.7219V232ZM69.3325 232.28C66.1725 232.28 64.3325 229.84 64.3325 226.84C64.3325 223.84 66.2925 221.4 69.2325 221.4C72.3325 221.4 73.9925 223.8 73.9925 227.22H65.9925C66.1125 229.32 67.2525 230.92 69.3325 230.92C70.8325 230.92 71.8325 230.2 72.1925 228.8H73.7725C73.2925 231.02 71.6725 232.28 69.3325 232.28ZM69.2325 222.68C67.3125 222.68 66.2725 224.12 66.0325 226H72.2525C72.1525 223.94 71.0925 222.68 69.2325 222.68ZM6.54 255.28C2.52 255.28 0.6 253.04 0.44 250.16H2.2C2.44 252.58 3.92 253.84 6.62 253.84C8.6 253.84 10.02 252.94 10.02 251.16C10.02 249.2 8.3 248.74 5.74 248.18C3.22 247.62 1.06 246.9 1.06 244.2C1.06 241.84 3.02 240.42 5.92 240.42C9.5 240.42 10.98 242.24 11.34 244.88H9.64C9.38 242.84 8.06 241.82 5.96 241.82C4.02 241.82 2.74 242.64 2.74 244.12C2.74 245.74 4.34 246.22 6.48 246.64C9.26 247.2 11.8 247.88 11.8 251.1C11.8 253.78 9.62 255.28 6.54 255.28ZM19.0395 255.28C15.9595 255.28 14.0395 252.84 14.0395 249.84C14.0395 246.84 15.9595 244.4 19.0395 244.4C21.4795 244.4 23.0995 245.8 23.4595 248H21.8195C21.5795 246.6 20.5995 245.74 19.0395 245.74C16.8395 245.74 15.6995 247.56 15.6995 249.84C15.6995 252.12 16.8395 253.92 19.0395 253.92C20.7195 253.92 21.7195 252.96 21.8595 251.36H23.4595C23.2395 253.84 21.6195 255.28 19.0395 255.28ZM25.9906 255V244.66H27.6106V255H25.9906ZM25.9906 242.7V240.7H27.6106V242.7H25.9906ZM35.2388 255.28C32.0788 255.28 30.2388 252.84 30.2388 249.84C30.2388 246.84 32.1988 244.4 35.1388 244.4C38.2388 244.4 39.8988 246.8 39.8988 250.22H31.8988C32.0188 252.32 33.1588 253.92 35.2388 253.92C36.7388 253.92 37.7388 253.2 38.0988 251.8H39.6788C39.1988 254.02 37.5788 255.28 35.2388 255.28ZM35.1388 245.68C33.2188 245.68 32.1788 247.12 31.9388 249H38.1588C38.0588 246.94 36.9988 245.68 35.1388 245.68ZM44.1028 244.66V246.02H44.1428C44.8828 245.04 45.9228 244.42 47.4228 244.42C49.5828 244.42 50.9028 245.6 50.9028 247.74V255H49.2828V247.88C49.2828 246.54 48.4028 245.78 46.9428 245.78C45.3028 245.78 44.1028 246.94 44.1028 248.64V255H42.4828V244.66H44.1028ZM58.4692 255.28C55.3892 255.28 53.4692 252.84 53.4692 249.84C53.4692 246.84 55.3892 244.4 58.4692 244.4C60.9092 244.4 62.5292 245.8 62.8892 248H61.2492C61.0092 246.6 60.0292 245.74 58.4692 245.74C56.2692 245.74 55.1292 247.56 55.1292 249.84C55.1292 252.12 56.2692 253.92 58.4692 253.92C60.1492 253.92 61.1492 252.96 61.2892 251.36H62.8892C62.6692 253.84 61.0492 255.28 58.4692 255.28ZM69.8403 255.28C66.6803 255.28 64.8403 252.84 64.8403 249.84C64.8403 246.84 66.8003 244.4 69.7403 244.4C72.8403 244.4 74.5003 246.8 74.5003 250.22H66.5003C66.6203 252.32 67.7603 253.92 69.8403 253.92C71.3403 253.92 72.3403 253.2 72.7003 251.8H74.2803C73.8003 254.02 72.1803 255.28 69.8403 255.28ZM69.7403 245.68C67.8203 245.68 66.7803 247.12 66.5403 249H72.7603C72.6603 246.94 71.6003 245.68 69.7403 245.68ZM7.8 278.3C3.48 278.3 0.8 275.12 0.8 270.84C0.8 266.56 3.48 263.38 7.8 263.38C12.12 263.38 14.8 266.56 14.8 270.84C14.8 275.12 12.12 278.3 7.8 278.3ZM7.8 276.72C11.16 276.72 12.96 274.2 12.96 270.84C12.96 267.48 11.16 264.94 7.8 264.94C4.44 264.94 2.64 267.48 2.64 270.84C2.64 274.2 4.44 276.72 7.8 276.72ZM19.3255 267.66V269.38H19.3655C19.9855 268.38 21.0655 267.54 22.4455 267.54C22.7455 267.54 22.9055 267.58 23.1055 267.66V269.22H23.0455C22.8055 269.14 22.6455 269.12 22.3255 269.12C20.7255 269.12 19.3255 270.32 19.3255 272.26V278H17.7055V267.66H19.3255ZM29.2903 281.44C26.6103 281.44 25.0903 280.36 24.9103 278.58H26.4103C26.5703 279.72 27.6503 280.16 29.2503 280.16C31.1503 280.16 32.2103 279.3 32.2103 277.5V276.04H32.1703C31.4103 277.02 30.5903 277.64 29.1103 277.64C26.4303 277.64 24.5903 275.5 24.5903 272.52C24.5903 269.3 26.6103 267.42 29.0103 267.42C30.5103 267.42 31.4703 268 32.1703 268.98H32.2103V267.66H33.8303V277.44C33.8303 280.16 32.0303 281.44 29.2903 281.44ZM29.1903 276.28C31.5703 276.28 32.3303 274.62 32.3303 272.44C32.3303 270.18 31.3703 268.78 29.1703 268.78C27.2303 268.78 26.2503 270.3 26.2503 272.54C26.2503 274.8 27.2703 276.28 29.1903 276.28ZM45.1497 278.1C44.0897 278.1 43.5297 277.62 43.3697 276.56H43.3497C42.7297 277.36 41.6697 278.2 39.9097 278.2C37.9497 278.2 36.4097 277.28 36.4097 275.32C36.4097 272.88 38.3297 272.38 40.9097 271.98C42.3697 271.76 43.3897 271.62 43.3897 270.5C43.3897 269.34 42.5497 268.68 41.0697 268.68C39.3897 268.68 38.5497 269.4 38.4897 270.96H36.9297C36.9897 268.96 38.3097 267.46 41.0497 267.46C43.2497 267.46 44.8697 268.28 44.8697 270.74V275.66C44.8697 276.5 45.0697 276.96 45.9697 276.76H46.0297V277.94C45.8297 278.02 45.5697 278.1 45.1497 278.1ZM40.2697 276.96C42.4297 276.96 43.4097 275.38 43.4097 274.18V272.42C42.8697 272.76 41.9297 273.02 41.0497 273.18C39.4297 273.48 38.1297 273.76 38.1297 275.28C38.1297 276.66 39.2097 276.96 40.2697 276.96ZM49.845 267.66V269.02H49.885C50.625 268.04 51.665 267.42 53.165 267.42C55.325 267.42 56.645 268.6 56.645 270.74V278H55.025V270.88C55.025 269.54 54.145 268.78 52.685 268.78C51.045 268.78 49.845 269.94 49.845 271.64V278H48.225V267.66H49.845ZM59.7914 278V267.66H61.4114V278H59.7914ZM59.7914 265.7V263.7H61.4114V265.7H59.7914ZM68.5395 278.3C65.6995 278.3 64.1195 276.96 63.9595 274.64H65.6195C65.8395 276.44 67.0395 276.94 68.5795 276.94C70.2795 276.94 70.9795 276.2 70.9795 275.24C70.9795 274.08 70.1795 273.78 68.2795 273.38C66.2395 272.96 64.4195 272.54 64.4195 270.28C64.4195 268.56 65.7395 267.44 68.1395 267.44C70.6995 267.44 71.9595 268.66 72.1995 270.68H70.5395C70.3795 269.32 69.6395 268.72 68.0995 268.72C66.6195 268.72 66.0195 269.38 66.0195 270.2C66.0195 271.32 67.0195 271.54 68.7995 271.9C70.8795 272.32 72.6195 272.78 72.6195 275.16C72.6195 277.24 70.9195 278.3 68.5395 278.3ZM83.388 278.1C82.328 278.1 81.768 277.62 81.608 276.56H81.588C80.968 277.36 79.908 278.2 78.148 278.2C76.188 278.2 74.648 277.28 74.648 275.32C74.648 272.88 76.568 272.38 79.148 271.98C80.608 271.76 81.628 271.62 81.628 270.5C81.628 269.34 80.788 268.68 79.308 268.68C77.628 268.68 76.788 269.4 76.728 270.96H75.168C75.228 268.96 76.548 267.46 79.288 267.46C81.488 267.46 83.108 268.28 83.108 270.74V275.66C83.108 276.5 83.308 276.96 84.208 276.76H84.268V277.94C84.068 278.02 83.808 278.1 83.388 278.1ZM78.508 276.96C80.668 276.96 81.648 275.38 81.648 274.18V272.42C81.108 272.76 80.168 273.02 79.288 273.18C77.668 273.48 76.368 273.76 76.368 275.28C76.368 276.66 77.448 276.96 78.508 276.96ZM85.608 268.98V267.66H87.108V264.4H88.728V267.66H90.728V268.98H88.728V275.7C88.728 276.42 89.108 276.66 89.768 276.66C90.088 276.66 90.448 276.58 90.628 276.52H90.688V277.92C90.308 278 89.868 278.06 89.388 278.06C88.068 278.06 87.108 277.52 87.108 276.06V268.98H85.608ZM93.4008 278V267.66H95.0208V278H93.4008ZM93.4008 265.7V263.7H95.0208V265.7H93.4008ZM102.649 278.28C99.5689 278.28 97.6489 275.84 97.6489 272.84C97.6489 269.84 99.5689 267.4 102.649 267.4C105.749 267.4 107.629 269.84 107.629 272.84C107.629 275.84 105.749 278.28 102.649 278.28ZM102.649 276.92C104.849 276.92 105.969 275.12 105.969 272.84C105.969 270.56 104.849 268.74 102.649 268.74C100.449 268.74 99.3089 270.56 99.3089 272.84C99.3089 275.12 100.449 276.92 102.649 276.92ZM111.865 267.66V269.02H111.905C112.645 268.04 113.685 267.42 115.185 267.42C117.345 267.42 118.665 268.6 118.665 270.74V278H117.045V270.88C117.045 269.54 116.165 268.78 114.705 268.78C113.065 268.78 111.865 269.94 111.865 271.64V278H110.245V267.66H111.865Z" fill="#FFFFF0"/>
<g filter="url(#filter0_f_189_4)">
<path d="M76 333H176" stroke="#E72964" stroke-width="5" stroke-linecap="round"/>
</g>
<path d="M125.1 47V23.1H117.35V18.6C121.55 18.45 125.3 16.9 126 12.5H131.95V47H125.1Z" fill="#FFFFF0"/>
<defs>
<filter id="filter0_f_189_4" x="72.5" y="329.5" width="107" height="7" filterUnits="userSpaceOnUse" color-interpolation-filters="sRGB">
<feFlood flood-opacity="0" result="BackgroundImageFix"/>
<feBlend mode="normal" in="SourceGraphic" in2="BackgroundImageFix" result="shape"/>
<feGaussianBlur stdDeviation="0.5" result="effect1_foregroundBlur_189_4"/>
</filter>
</defs>
</svg>
