<svg xmlns="http://www.w3.org/2000/svg" width="250" height="385" fill="none"><circle cx="125" cy="42" r="15" fill="#E72964"/><g filter="url(#a)"><path stroke="#E72964" stroke-linecap="round" stroke-width="5" d="M175 335H75"/></g><path fill="ivory" d="M1.1 119v-14.3H4v11.88h6.72V119zm11.176 3.36v-2.14h.96c1.08 0 1.52-.56 1.52-1.4 0-.56-.2-1.22-.78-2.78l-2.76-7.3h2.86l1.52 4.62c.32.94.66 2.24.66 2.24h.04s.28-1.3.6-2.24l1.44-4.62h2.74l-3.58 10.52c-.78 2.28-1.54 3.1-3.62 3.1zm15.188-3.06c-3.24 0-5.26-2.36-5.26-5.42s2-5.42 5.12-5.42c2.66 0 4.3 1.54 4.66 3.76h-2.66c-.18-.9-.88-1.58-1.88-1.58-1.64 0-2.48 1.26-2.48 3.24 0 1.94.78 3.24 2.44 3.24 1.1 0 1.88-.58 2.06-1.74h2.62c-.18 2.18-1.88 3.92-4.62 3.92m11.627 0c-3.4 0-5.32-2.38-5.32-5.44 0-3.04 2.06-5.4 5.06-5.4 3.3 0 5.06 2.52 5.06 6.18h-7.44c.2 1.58 1.08 2.56 2.62 2.56 1.06 0 1.68-.48 1.98-1.26h2.68c-.38 1.82-2 3.36-4.64 3.36m-.22-8.74c-1.44 0-2.14.86-2.38 2.2h4.56c-.08-1.3-.94-2.2-2.18-2.2m3.16-5.92-2.16 2.82h-2.12l1.1-2.82zm8.938 14.66c-3.4 0-5.32-2.38-5.32-5.44 0-3.04 2.06-5.4 5.06-5.4 3.3 0 5.06 2.52 5.06 6.18h-7.44c.2 1.58 1.08 2.56 2.62 2.56 1.06 0 1.68-.48 1.98-1.26h2.68c-.38 1.82-2 3.36-4.64 3.36m-.22-8.74c-1.44 0-2.14.86-2.38 2.2h4.56c-.08-1.3-.94-2.2-2.18-2.2M62.609 119v-14.3h6.28c1.66 0 2.9.48 3.74 1.34.8.82 1.28 1.94 1.28 3.26 0 2.7-1.78 4.52-4.78 4.52h-3.52V119zm3-11.78v4.24h3c1.52 0 2.32-.84 2.32-2.14 0-1.34-.84-2.1-2.28-2.1zm15.081 12.08c-3.18 0-5.36-2.36-5.36-5.42s2.18-5.42 5.36-5.42 5.36 2.36 5.36 5.42-2.18 5.42-5.36 5.42m0-2.08c1.66 0 2.6-1.34 2.6-3.34s-.94-3.36-2.6-3.36c-1.68 0-2.6 1.36-2.6 3.36s.92 3.34 2.6 3.34m7.665 1.78v-14.3h2.72V119zm5.73 3.36v-2.14h.96c1.08 0 1.52-.56 1.52-1.4 0-.56-.2-1.22-.78-2.78l-2.76-7.3h2.86l1.52 4.62c.32.94.66 2.24.66 2.24h.04s.28-1.3.6-2.24l1.44-4.62h2.74l-3.58 10.52c-.78 2.28-1.54 3.1-3.62 3.1zM107.82 119l-3.56-10.26h2.76l1.64 5.32c.3.98.46 1.64.46 1.64h.04s.14-.66.44-1.64l1.68-5.32h2.72l-3.58 10.26zm14.271 0c-.16-.2-.26-.68-.32-1.14h-.04c-.52.78-1.26 1.38-3.02 1.38-2.1 0-3.58-1.1-3.58-3.14 0-2.26 1.84-2.98 4.12-3.3 1.7-.24 2.48-.38 2.48-1.16 0-.74-.58-1.22-1.72-1.22-1.28 0-1.9.46-1.98 1.44h-2.42c.08-1.8 1.42-3.38 4.42-3.38 3.08 0 4.32 1.38 4.32 3.78v5.22c0 .78.12 1.24.36 1.42v.1zm-2.72-1.66c1.56 0 2.42-.96 2.42-1.96v-1.54c-.48.28-1.22.44-1.9.6-1.42.32-2.12.64-2.12 1.6s.64 1.3 1.6 1.3m7.749 1.66v-14.3h2.72V119zm10.331.3c-3.4 0-5.32-2.38-5.32-5.44 0-3.04 2.06-5.4 5.06-5.4 3.3 0 5.06 2.52 5.06 6.18h-7.44c.2 1.58 1.08 2.56 2.62 2.56 1.06 0 1.68-.48 1.98-1.26h2.68c-.38 1.82-2 3.36-4.64 3.36m-.22-8.74c-1.44 0-2.14.86-2.38 2.2h4.56c-.08-1.3-.94-2.2-2.18-2.2m9.939-1.82v1.4h.06c.7-1.1 1.64-1.68 3.04-1.68 2.12 0 3.54 1.6 3.54 3.84v6.7h-2.72v-6.3c0-1.1-.64-1.88-1.78-1.88-1.2 0-2.08.96-2.08 2.36V119h-2.72v-10.26zm8.521 1.8v-1.8h1.42v-3.2h2.66v3.2h1.76v1.8h-1.76v5.44c0 .76.42 1.02 1.02 1.02.34 0 .8-.02.8-.02v2s-.62.04-1.7.04c-1.32 0-2.78-.52-2.78-2.46v-6.02zm19.08 8.76c-4.02 0-6.88-3.1-6.88-7.4 0-4.24 2.64-7.48 6.86-7.48 3.52 0 5.6 2.1 5.9 4.82h-2.88c-.26-1.44-1.34-2.38-3.02-2.38-2.64 0-3.9 2.2-3.9 5.04 0 2.92 1.52 5.02 3.92 5.02 1.7 0 2.9-1.02 3.08-2.52h2.84a5.06 5.06 0 0 1-1.58 3.38c-.98.92-2.36 1.52-4.34 1.52m10.912-14.6v5.38h.06c.74-1.08 1.58-1.62 2.98-1.62 2.12 0 3.54 1.6 3.54 3.84v6.7h-2.72v-6.3c0-1.1-.64-1.88-1.78-1.88-1.2 0-2.08.96-2.08 2.36V119h-2.72v-14.3zm15.717 14.3c-.16-.2-.26-.68-.32-1.14h-.04c-.52.78-1.26 1.38-3.02 1.38-2.1 0-3.58-1.1-3.58-3.14 0-2.26 1.84-2.98 4.12-3.3 1.7-.24 2.48-.38 2.48-1.16 0-.74-.58-1.22-1.72-1.22-1.28 0-1.9.46-1.98 1.44h-2.42c.08-1.8 1.42-3.38 4.42-3.38 3.08 0 4.32 1.38 4.32 3.78v5.22c0 .78.12 1.24.36 1.42v.1zm-2.72-1.66c1.56 0 2.42-.96 2.42-1.96v-1.54c-.48.28-1.22.44-1.9.6-1.42.32-2.12.64-2.12 1.6s.64 1.3 1.6 1.3m7.709 5.02v-13.62h2.62v1.28h.06c.66-.9 1.62-1.56 3.02-1.56 2.72 0 4.46 2.22 4.46 5.42 0 3.32-1.8 5.42-4.44 5.42-1.44 0-2.38-.58-2.96-1.46h-.04v4.52zm5.14-5.32c1.38 0 2.26-1.14 2.26-3.08s-.68-3.3-2.36-3.3c-1.7 0-2.38 1.46-2.38 3.3 0 1.86.86 3.08 2.48 3.08m6.393-6.5v-1.8h1.42v-3.2h2.66v3.2h1.76v1.8h-1.76v5.44c0 .76.42 1.02 1.02 1.02.34 0 .8-.02.8-.02v2s-.62.04-1.7.04c-1.32 0-2.78-.52-2.78-2.46v-6.02zm14.798 8.46c-.16-.2-.26-.68-.32-1.14h-.04c-.52.78-1.26 1.38-3.02 1.38-2.1 0-3.58-1.1-3.58-3.14 0-2.26 1.84-2.98 4.12-3.3 1.7-.24 2.48-.38 2.48-1.16 0-.74-.58-1.22-1.72-1.22-1.28 0-1.9.46-1.98 1.44h-2.42c.08-1.8 1.42-3.38 4.42-3.38 3.08 0 4.32 1.38 4.32 3.78v5.22c0 .78.12 1.24.36 1.42v.1zm-2.72-1.66c1.56 0 2.42-.96 2.42-1.96v-1.54c-.48.28-1.22.44-1.9.6-1.42.32-2.12.64-2.12 1.6s.64 1.3 1.6 1.3m7.749 1.66v-14.3h2.72V119zM1.34 165v-14.3H7.4c1.5 0 2.64.4 3.44 1.24.58.6.92 1.42.92 2.44 0 1.58-.88 2.56-2.3 3v.06c1.62.38 2.88 1.54 2.88 3.46 0 1.1-.38 2.04-1.04 2.74-.8.86-2.04 1.36-3.58 1.36zm1.8-1.62h4.5c1.02 0 1.76-.26 2.24-.72.4-.42.64-.98.64-1.66 0-1.78-1.26-2.66-3-2.66H3.14zm0-6.56h4.04c1.74 0 2.78-.86 2.78-2.34 0-1.38-.94-2.22-2.54-2.22H3.14zm19.951 8.28c-1.06 0-1.62-.48-1.78-1.54h-.02c-.62.8-1.68 1.64-3.44 1.64-1.96 0-3.5-.92-3.5-2.88 0-2.44 1.92-2.94 4.5-3.34 1.46-.22 2.48-.36 2.48-1.48 0-1.16-.84-1.82-2.32-1.82-1.68 0-2.52.72-2.58 2.28h-1.56c.06-2 1.38-3.5 4.12-3.5 2.2 0 3.82.82 3.82 3.28v4.92c0 .84.2 1.3 1.1 1.1h.06v1.18c-.2.08-.46.16-.88.16m-4.88-1.14c2.16 0 3.14-1.58 3.14-2.78v-1.76c-.54.34-1.48.6-2.36.76-1.62.3-2.92.58-2.92 2.1 0 1.38 1.08 1.68 2.14 1.68m12.375 1.32c-3.08 0-5-2.44-5-5.44s1.92-5.44 5-5.44c2.44 0 4.06 1.4 4.42 3.6h-1.64c-.24-1.4-1.22-2.26-2.78-2.26-2.2 0-3.34 1.82-3.34 4.1s1.14 4.08 3.34 4.08c1.68 0 2.68-.96 2.82-2.56h1.6c-.22 2.48-1.84 3.92-4.42 3.92m16.575 0c-4.02 0-5.94-2.24-6.1-5.12h1.76c.24 2.42 1.72 3.68 4.42 3.68 1.98 0 3.4-.9 3.4-2.68 0-1.96-1.72-2.42-4.28-2.98-2.52-.56-4.68-1.28-4.68-3.98 0-2.36 1.96-3.78 4.86-3.78 3.58 0 5.06 1.82 5.42 4.46h-1.7c-.26-2.04-1.58-3.06-3.68-3.06-1.94 0-3.22.82-3.22 2.3 0 1.62 1.6 2.1 3.74 2.52 2.78.56 5.32 1.24 5.32 4.46 0 2.68-2.18 4.18-5.26 4.18m6.716-13v-1.58h11.32v1.58h-4.76V165h-1.8v-12.72zM68.026 165v-14.3h1.8V165zm4.79 0c.16-3.66 2.74-5 5.14-6.38 1.8-1.04 2.9-1.74 2.9-3.4 0-1.68-1.16-2.82-2.98-2.82-.96 0-1.68.32-2.18.86-.54.58-.78 1.34-.78 2.74h-1.76c0-1.76.46-2.88 1.3-3.72.88-.86 2.16-1.28 3.56-1.28 2.78 0 4.58 1.76 4.58 4.2 0 2.64-1.8 3.52-4 4.74-1.48.82-3.38 1.94-3.76 3.46h7.48v1.6zm12.834 0v-14.3h5.2c4.3 0 6.34 2.92 6.34 7.2s-2.18 7.1-6.48 7.1zm1.8-1.58h3.2c3.36 0 4.7-2.16 4.7-5.52s-1.2-5.64-4.56-5.64h-3.34zm20.735 1.88c-2.84 0-4.42-1.34-4.58-3.66h1.66c.22 1.8 1.42 2.3 2.96 2.3 1.7 0 2.4-.74 2.4-1.7 0-1.16-.8-1.46-2.7-1.86-2.04-.42-3.86-.84-3.86-3.1 0-1.72 1.32-2.84 3.72-2.84 2.56 0 3.82 1.22 4.06 3.24h-1.66c-.16-1.36-.9-1.96-2.44-1.96-1.48 0-2.08.66-2.08 1.48 0 1.12 1 1.34 2.78 1.7 2.08.42 3.82.88 3.82 3.26 0 2.08-1.7 3.14-4.08 3.14m6.631 3.02v-13.66h1.62v1.46h.04c.78-1.06 1.82-1.7 3.32-1.7 2.62 0 4.44 2 4.44 5.44 0 3.32-1.7 5.44-4.5 5.44-1.4 0-2.4-.42-3.26-1.52h-.04v4.54zm4.8-4.38c1.98 0 2.96-1.72 2.96-4.06 0-2.32-.98-4.08-2.94-4.08-2.26 0-3.3 1.84-3.3 4.08s.9 4.06 3.28 4.06m11.655 1.34c-3.16 0-5-2.44-5-5.44s1.96-5.44 4.9-5.44c3.1 0 4.76 2.4 4.76 5.82h-8c.12 2.1 1.26 3.7 3.34 3.7 1.5 0 2.5-.72 2.86-2.12h1.58c-.48 2.22-2.1 3.48-4.44 3.48m-.1-9.6c-1.92 0-2.96 1.44-3.2 3.32h6.22c-.1-2.06-1.16-3.32-3.02-3.32m-.64-2.64 1.02-2.54h2l-1.64 2.54zm17.608 12.24c-4.02 0-5.94-2.24-6.1-5.12h1.76c.24 2.42 1.72 3.68 4.42 3.68 1.98 0 3.4-.9 3.4-2.68 0-1.96-1.72-2.42-4.28-2.98-2.52-.56-4.68-1.28-4.68-3.98 0-2.36 1.96-3.78 4.86-3.78 3.58 0 5.06 1.82 5.42 4.46h-1.7c-.26-2.04-1.58-3.06-3.68-3.06-1.94 0-3.22.82-3.22 2.3 0 1.62 1.6 2.1 3.74 2.52 2.78.56 5.32 1.24 5.32 4.46 0 2.68-2.18 4.18-5.26 4.18m8.359-.28v-14.3h1.8V165zm5.511 0v-14.3h1.9l6.52 9.94c.48.74 1.04 1.84 1.04 1.84h.04V150.7h1.68V165h-1.84l-6.56-9.96c-.46-.7-1.06-1.78-1.06-1.78h-.04V165zM1.38 234v-14.3h1.8V234zm6.89-10.34v1.36h.04c.74-.98 1.78-1.6 3.28-1.6 2.16 0 3.48 1.18 3.48 3.32V234h-1.62v-7.12c0-1.34-.88-2.1-2.34-2.1-1.64 0-2.84 1.16-2.84 2.86V234H6.65v-10.34zm14.067 13.78c-2.68 0-4.2-1.08-4.38-2.86h1.5c.16 1.14 1.24 1.58 2.84 1.58 1.9 0 2.96-.86 2.96-2.66v-1.46h-.04c-.76.98-1.58 1.6-3.06 1.6-2.68 0-4.52-2.14-4.52-5.12 0-3.22 2.02-5.1 4.42-5.1 1.5 0 2.46.58 3.16 1.56h.04v-1.32h1.62v9.78c0 2.72-1.8 4-4.54 4m-.1-5.16c2.38 0 3.14-1.66 3.14-3.84 0-2.26-.96-3.66-3.16-3.66-1.94 0-2.92 1.52-2.92 3.76 0 2.26 1.02 3.74 2.94 3.74m12.26 2c-3.16 0-5-2.44-5-5.44s1.96-5.44 4.9-5.44c3.1 0 4.76 2.4 4.76 5.82h-8c.12 2.1 1.26 3.7 3.34 3.7 1.5 0 2.5-.72 2.86-2.12h1.58c-.48 2.22-2.1 3.48-4.44 3.48m-.1-9.6c-1.92 0-2.96 1.44-3.2 3.32h6.22c-.1-2.06-1.16-3.32-3.02-3.32m-.64-2.64 1.02-2.54h2l-1.64 2.54zm9.604 1.62v1.36h.04c.74-.98 1.78-1.6 3.28-1.6 2.16 0 3.48 1.18 3.48 3.32V234h-1.62v-7.12c0-1.34-.88-2.1-2.34-2.1-1.64 0-2.84 1.16-2.84 2.86V234h-1.62v-10.34zM53.307 234v-10.34h1.62V234zm0-12.3v-2h1.62v2zm9.248 12.58c-3.16 0-5-2.44-5-5.44s1.96-5.44 4.9-5.44c3.1 0 4.76 2.4 4.76 5.82h-8c.12 2.1 1.26 3.7 3.34 3.7 1.5 0 2.5-.72 2.86-2.12h1.58c-.48 2.22-2.1 3.48-4.44 3.48m-.1-9.6c-1.92 0-2.96 1.44-3.2 3.32h6.22c-.1-2.06-1.16-3.32-3.02-3.32m8.964-1.02v1.72h.04c.62-1 1.7-1.84 3.08-1.84.3 0 .46.04.66.12v1.56h-.06c-.24-.08-.4-.1-.72-.1-1.6 0-3 1.2-3 3.14V234H69.8v-10.34zM77.655 234v-10.34h1.62V234zm0-12.3v-2h1.62v2zm9.248 12.58c-3.16 0-5-2.44-5-5.44s1.96-5.44 4.9-5.44c3.1 0 4.76 2.4 4.76 5.82h-8c.12 2.1 1.26 3.7 3.34 3.7 1.5 0 2.5-.72 2.86-2.12h1.58c-.48 2.22-2.1 3.48-4.44 3.48m-.1-9.6c-1.92 0-2.96 1.44-3.2 3.32h6.22c-.1-2.06-1.16-3.32-3.02-3.32M1.38 257v-14.3h1.8V257zm6.89-10.34v1.36h.04c.74-.98 1.78-1.6 3.28-1.6 2.16 0 3.48 1.18 3.48 3.32V257h-1.62v-7.12c0-1.34-.88-2.1-2.34-2.1-1.64 0-2.84 1.16-2.84 2.86V257H6.65v-10.34zm9.19 1.32v-1.32h1.42V245c0-1.78 1.02-2.42 2.74-2.42.34 0 .6.02.82.04V244c-.28-.02-.36-.02-.52-.02-1.04 0-1.42.26-1.42 1.1v1.58h1.92v1.32H20.5V257h-1.62v-9.02zm11.665 9.3c-3.08 0-5-2.44-5-5.44s1.92-5.44 5-5.44c3.1 0 4.98 2.44 4.98 5.44s-1.88 5.44-4.98 5.44m0-1.36c2.2 0 3.32-1.8 3.32-4.08s-1.12-4.1-3.32-4.1-3.34 1.82-3.34 4.1 1.14 4.08 3.34 4.08m9.216-9.26v1.72h.04c.62-1 1.7-1.84 3.08-1.84.3 0 .46.04.66.12v1.56h-.06c-.24-.08-.4-.1-.72-.1-1.6 0-3 1.2-3 3.14V257h-1.62v-10.34zM44.577 257v-10.34h1.62v1.48h.04c.64-1 1.74-1.72 3.04-1.72 1.26 0 2.26.64 2.7 1.84h.04a3.62 3.62 0 0 1 3.16-1.84c1.84 0 3.14 1.18 3.14 3.32V257h-1.62v-7.18c0-1.28-.86-2.04-1.9-2.04-1.34 0-2.54 1.16-2.54 2.78V257h-1.62v-7.18c0-1.28-.72-2.04-1.78-2.04-1.26 0-2.66 1.16-2.66 2.78V257zm24.999.1c-1.06 0-1.62-.48-1.78-1.54h-.02c-.62.8-1.68 1.64-3.44 1.64-1.96 0-3.5-.92-3.5-2.88 0-2.44 1.92-2.94 4.5-3.34 1.46-.22 2.48-.36 2.48-1.48 0-1.16-.84-1.82-2.32-1.82-1.68 0-2.52.72-2.58 2.28h-1.56c.06-2 1.38-3.5 4.12-3.5 2.2 0 3.82.82 3.82 3.28v4.92c0 .84.2 1.3 1.1 1.1h.06v1.18c-.2.08-.46.16-.88.16m-4.88-1.14c2.16 0 3.14-1.58 3.14-2.78v-1.76c-.54.34-1.48.6-2.36.76-1.62.3-2.92.58-2.92 2.1 0 1.38 1.08 1.68 2.14 1.68m7.1-7.98v-1.32h1.5v-3.26h1.62v3.26h2v1.32h-2v6.72c0 .72.38.96 1.04.96.32 0 .68-.08.86-.14h.06v1.4c-.38.08-.82.14-1.3.14-1.32 0-2.28-.54-2.28-2v-7.08zm7.792 9.02v-10.34h1.62V257zm0-12.3v-2h1.62v2zm12.048 15.62v-4.58h-.04c-.78 1-1.72 1.56-3.2 1.56-2.8 0-4.5-2.12-4.5-5.44 0-3.44 1.92-5.44 4.44-5.44 1.5 0 2.54.6 3.26 1.62h.04v-1.38h1.62v13.66zm-3.16-4.38c2.38 0 3.26-1.72 3.26-4.06 0-2.4-1.02-4.08-3.28-4.08-1.96 0-2.9 1.76-2.9 4.08 0 2.34.94 4.06 2.92 4.06m16.176 1.06h-1.62v-1.42h-.04c-.74 1-1.62 1.66-3.12 1.66-2.12 0-3.48-1.28-3.48-3.42v-7.16h1.62v7.12c0 1.34.86 2.12 2.32 2.12 1.64 0 2.7-1.24 2.7-2.88v-6.36h1.62zm7.61.28c-3.16 0-5-2.44-5-5.44s1.96-5.44 4.9-5.44c3.1 0 4.76 2.4 4.76 5.82h-8c.12 2.1 1.26 3.7 3.34 3.7 1.5 0 2.5-.72 2.86-2.12h1.58c-.48 2.22-2.1 3.48-4.44 3.48m-.1-9.6c-1.92 0-2.96 1.44-3.2 3.32h6.22c-.1-2.06-1.16-3.32-3.02-3.32M1.34 280v-14.3h6.68c2.52 0 4.22 1.58 4.22 3.92 0 1.74-.76 2.98-2.48 3.54v.06c1.46.52 1.92 1.52 2.06 3.64.16 2.3.4 2.88.66 3.06v.08h-1.94c-.3-.26-.36-.8-.52-3.2-.14-2.1-.98-2.84-2.9-2.84H3.14V280zm1.8-12.74v5.24h4.24c2 0 3-1 3-2.62 0-1.74-.8-2.62-2.9-2.62zm16.368 13.02c-3.08 0-5-2.44-5-5.44s1.92-5.44 5-5.44c3.1 0 4.98 2.44 4.98 5.44s-1.88 5.44-4.98 5.44m0-1.36c2.2 0 3.32-1.8 3.32-4.08s-1.12-4.1-3.32-4.1-3.34 1.82-3.34 4.1 1.14 4.08 3.34 4.08m12.516 1.38c-1.4 0-2.42-.5-3.26-1.66h-.04V280h-1.62v-14.3h1.62v5.44h.04c.78-1.06 1.82-1.72 3.32-1.72 2.62 0 4.4 2 4.4 5.44 0 3.32-1.66 5.44-4.46 5.44m-.12-1.36c1.98 0 2.92-1.72 2.92-4.06 0-2.32-.94-4.08-2.9-4.08-2.26 0-3.3 1.84-3.3 4.08 0 2.32 1.08 4.06 3.28 4.06m11.616 1.34c-3.08 0-5-2.44-5-5.44s1.92-5.44 5-5.44c3.1 0 4.98 2.44 4.98 5.44s-1.88 5.44-4.98 5.44m0-1.36c2.2 0 3.32-1.8 3.32-4.08s-1.12-4.1-3.32-4.1-3.34 1.82-3.34 4.1 1.14 4.08 3.34 4.08m6.74-7.94v-1.32h1.5v-3.26h1.62v3.26h2v1.32h-2v6.72c0 .72.38.96 1.04.96.32 0 .68-.08.86-.14h.06v1.4c-.38.08-.82.14-1.3.14-1.32 0-2.28-.54-2.28-2v-7.08zm7.793 9.02v-10.34h1.62V280zm0-12.3v-2h1.62v2zm12.048 15.62v-4.58h-.04c-.78 1-1.72 1.56-3.2 1.56-2.8 0-4.5-2.12-4.5-5.44 0-3.44 1.92-5.44 4.44-5.44 1.5 0 2.54.6 3.26 1.62h.04v-1.38h1.62v13.66zm-3.16-4.38c2.38 0 3.26-1.72 3.26-4.06 0-2.4-1.02-4.08-3.28-4.08-1.96 0-2.9 1.76-2.9 4.08 0 2.34.94 4.06 2.92 4.06M83.116 280h-1.62v-1.42h-.04c-.74 1-1.62 1.66-3.12 1.66-2.12 0-3.48-1.28-3.48-3.42v-7.16h1.62v7.12c0 1.34.86 2.12 2.32 2.12 1.64 0 2.7-1.24 2.7-2.88v-6.36h1.62zm7.611.28c-3.16 0-5-2.44-5-5.44s1.96-5.44 4.9-5.44c3.1 0 4.76 2.4 4.76 5.82h-8c.12 2.1 1.26 3.7 3.34 3.7 1.5 0 2.5-.72 2.86-2.12h1.58c-.48 2.22-2.1 3.48-4.44 3.48m-.1-9.6c-1.92 0-2.96 1.44-3.2 3.32h6.22c-.1-2.06-1.16-3.32-3.02-3.32M116.3 47c.25-6.55 4.35-10.55 8.25-13.6 4.3-3.4 9-5.8 9-10.2 0-3.2-1.7-5.35-4.75-5.35-3.45 0-5.5 2.5-5.6 6.95h-6.4c0-7.8 4-12.75 12.15-12.75 7.45 0 11.65 5.05 11.65 10.95 0 6.45-4.4 9.5-8.6 12.3-2.65 1.7-5.75 3.9-6.9 6.1h15.8V47z"/><defs><filter id="a" width="107" height="7" x="71.5" y="331.5" color-interpolation-filters="sRGB" filterUnits="userSpaceOnUse"><feFlood flood-opacity="0" result="BackgroundImageFix"/><feBlend in="SourceGraphic" in2="BackgroundImageFix" result="shape"/><feGaussianBlur result="effect1_foregroundBlur_189_5" stdDeviation=".5"/></filter></defs></svg>