<svg xmlns="http://www.w3.org/2000/svg" width="250" height="381" fill="none"><circle cx="125" cy="40" r="15" fill="#E72964"/><g filter="url(#a)"><path stroke="#E72964" stroke-linecap="round" stroke-width="5" d="M175 333H75"/></g><path fill="ivory" d="M1.1 115v-14.3h4.08l2.02 7.18c.5 1.8.9 3.86.9 3.86h.04s.38-2.06.88-3.86l2.02-7.18h4.14V115h-2.7v-8.2c0-1.16.12-2.96.12-2.96h-.04s-.32 1.68-.62 2.72L9.48 115H6.7l-2.4-8.44c-.3-1.04-.62-2.72-.62-2.72h-.04s.12 1.8.12 2.96v8.2zm17.29 3.36v-2.14h.96c1.08 0 1.52-.56 1.52-1.4 0-.56-.2-1.22-.78-2.78l-2.76-7.3h2.86l1.52 4.62c.32.94.66 2.24.66 2.24h.04s.28-1.3.6-2.24l1.44-4.62h2.74l-3.58 10.52c-.78 2.28-1.54 3.1-3.62 3.1zM29.33 115v-14.3h5.58c3.82 0 6.28 3.08 6.28 7.3 0 2.32-.78 4.36-2.28 5.62-1.06.88-2.44 1.38-4.24 1.38zm2.9-2.5h2.24c2.72 0 3.78-1.66 3.78-4.5s-1.24-4.82-3.7-4.82h-2.32zm11.318 2.5v-10.26h2.72V115zm0-11.86v-2.44h2.72v2.44zm9.993 15.36c-2.8 0-4.52-1.2-4.8-3.2h2.7c.22.64.8 1.14 2.06 1.14 1.54 0 2.28-.74 2.28-2.14v-1.12h-.06c-.6.68-1.38 1.2-2.68 1.2-2.28 0-4.52-1.8-4.52-4.9 0-3.06 1.84-5.02 4.44-5.02 1.28 0 2.22.5 2.84 1.36h.04v-1.08h2.62v9.48c0 1.44-.46 2.42-1.22 3.12-.86.8-2.18 1.16-3.7 1.16m-.04-6.3c1.72 0 2.42-1.26 2.42-2.78 0-1.5-.8-2.78-2.44-2.78-1.38 0-2.3 1.08-2.3 2.8 0 1.74.92 2.76 2.32 2.76m7.711 2.8v-10.26h2.72V115zm0-11.86v-2.44h2.72v2.44zm4.873 3.4v-1.8h1.42v-3.2h2.66v3.2h1.76v1.8h-1.76v5.44c0 .76.42 1.02 1.02 1.02.34 0 .8-.02.8-.02v2s-.62.04-1.7.04c-1.32 0-2.78-.52-2.78-2.46v-6.02zM80.883 115c-.16-.2-.26-.68-.32-1.14h-.04c-.52.78-1.26 1.38-3.02 1.38-2.1 0-3.58-1.1-3.58-3.14 0-2.26 1.84-2.98 4.12-3.3 1.7-.24 2.48-.38 2.48-1.16 0-.74-.58-1.22-1.72-1.22-1.28 0-1.9.46-1.98 1.44h-2.42c.08-1.8 1.42-3.38 4.42-3.38 3.08 0 4.32 1.38 4.32 3.78v5.22c0 .78.12 1.24.36 1.42v.1zm-2.72-1.66c1.56 0 2.42-.96 2.42-1.96v-1.54c-.48.28-1.22.44-1.9.6-1.42.32-2.12.64-2.12 1.6s.64 1.3 1.6 1.3m7.75 1.66v-14.3h2.72V115zm11.27.32c-3.88 0-6.08-1.72-6.18-4.74h2.84c.2 1.72 1.18 2.4 3.22 2.4 1.48 0 2.78-.52 2.78-1.84 0-1.4-1.36-1.68-3.54-2.18-2.56-.58-4.9-1.26-4.9-4.24 0-2.82 2.3-4.28 5.48-4.28 3.22 0 5.3 1.58 5.52 4.46h-2.78c-.16-1.44-1.28-2.16-2.76-2.16-1.56 0-2.58.66-2.58 1.68 0 1.16 1 1.5 3.12 1.96 2.94.64 5.34 1.34 5.34 4.42 0 2.9-2.34 4.52-5.56 4.52m12.832-.02c-3.24 0-5.26-2.36-5.26-5.42s2-5.42 5.12-5.42c2.66 0 4.3 1.54 4.66 3.76h-2.66c-.18-.9-.88-1.58-1.88-1.58-1.64 0-2.48 1.26-2.48 3.24 0 1.94.78 3.24 2.44 3.24 1.1 0 1.88-.58 2.06-1.74h2.62c-.18 2.18-1.88 3.92-4.62 3.92m9.526-14.6v5.38h.06c.74-1.08 1.58-1.62 2.98-1.62 2.12 0 3.54 1.6 3.54 3.84v6.7h-2.72v-6.3c0-1.1-.64-1.88-1.78-1.88-1.2 0-2.08.96-2.08 2.36V115h-2.72v-14.3zm14.117 14.6c-3.18 0-5.36-2.36-5.36-5.42s2.18-5.42 5.36-5.42 5.36 2.36 5.36 5.42-2.18 5.42-5.36 5.42m0-2.08c1.66 0 2.6-1.34 2.6-3.34s-.94-3.36-2.6-3.36c-1.68 0-2.6 1.36-2.6 3.36s.92 3.34 2.6 3.34m12.484 2.08c-3.18 0-5.36-2.36-5.36-5.42s2.18-5.42 5.36-5.42 5.36 2.36 5.36 5.42-2.18 5.42-5.36 5.42m0-2.08c1.66 0 2.6-1.34 2.6-3.34s-.94-3.36-2.6-3.36c-1.68 0-2.6 1.36-2.6 3.36s.92 3.34 2.6 3.34m7.665 1.78v-14.3h2.72V115zM1.34 161v-14.3h5.2c4.3 0 6.34 2.92 6.34 7.2S10.7 161 6.4 161zm1.8-1.58h3.2c3.36 0 4.7-2.16 4.7-5.52s-1.2-5.64-4.56-5.64H3.14zm17.052 1.86c-3.16 0-5-2.44-5-5.44s1.96-5.44 4.9-5.44c3.1 0 4.76 2.4 4.76 5.82h-8c.12 2.1 1.26 3.7 3.34 3.7 1.5 0 2.5-.72 2.86-2.12h1.58c-.48 2.22-2.1 3.48-4.44 3.48m-.1-9.6c-1.92 0-2.96 1.44-3.2 3.32h6.22c-.1-2.06-1.16-3.32-3.02-3.32m-.64-2.64 1.02-2.54h2l-1.64 2.54zM29.8 161l-3.62-10.34h1.74l2.14 6.56c.3.92.68 2.18.68 2.18h.04s.38-1.28.68-2.18l2.18-6.56h1.68L31.6 161zm11.883.28c-3.16 0-5-2.44-5-5.44s1.96-5.44 4.9-5.44c3.1 0 4.76 2.4 4.76 5.82h-8c.12 2.1 1.26 3.7 3.34 3.7 1.5 0 2.5-.72 2.86-2.12h1.58c-.48 2.22-2.1 3.48-4.44 3.48m-.1-9.6c-1.92 0-2.96 1.44-3.2 3.32h6.22c-.1-2.06-1.16-3.32-3.02-3.32m7.404 9.32v-14.3h1.62V161zm9.305.28c-3.08 0-5-2.44-5-5.44s1.92-5.44 5-5.44c3.1 0 4.98 2.44 4.98 5.44s-1.88 5.44-4.98 5.44m0-1.36c2.2 0 3.32-1.8 3.32-4.08s-1.12-4.1-3.32-4.1-3.34 1.82-3.34 4.1 1.14 4.08 3.34 4.08m7.596 4.4v-13.66h1.62v1.46h.04c.78-1.06 1.82-1.7 3.32-1.7 2.62 0 4.44 2 4.44 5.44 0 3.32-1.7 5.44-4.5 5.44-1.4 0-2.4-.42-3.26-1.52h-.04v4.54zm4.8-4.38c1.98 0 2.96-1.72 2.96-4.06 0-2.32-.98-4.08-2.94-4.08-2.26 0-3.3 1.84-3.3 4.08s.9 4.06 3.28 4.06m7.235 4.38v-13.66h1.62v1.46h.04c.78-1.06 1.82-1.7 3.32-1.7 2.62 0 4.44 2 4.44 5.44 0 3.32-1.7 5.44-4.5 5.44-1.4 0-2.4-.42-3.26-1.52h-.04v4.54zm4.8-4.38c1.98 0 2.96-1.72 2.96-4.06 0-2.32-.98-4.08-2.94-4.08-2.26 0-3.3 1.84-3.3 4.08s.9 4.06 3.28 4.06m11.655 1.34c-3.16 0-5-2.44-5-5.44s1.96-5.44 4.9-5.44c3.1 0 4.76 2.4 4.76 5.82h-8c.12 2.1 1.26 3.7 3.34 3.7 1.5 0 2.5-.72 2.86-2.12h1.58c-.48 2.22-2.1 3.48-4.44 3.48m-.1-9.6c-1.92 0-2.96 1.44-3.2 3.32h6.22c-.1-2.06-1.16-3.32-3.02-3.32m7.344 9.32v-10.34h1.62v1.48h.04c.64-1 1.74-1.72 3.04-1.72 1.26 0 2.26.64 2.7 1.84h.04a3.62 3.62 0 0 1 3.16-1.84c1.84 0 3.14 1.18 3.14 3.32V161h-1.62v-7.18c0-1.28-.86-2.04-1.9-2.04-1.34 0-2.54 1.16-2.54 2.78V161h-1.62v-7.18c0-1.28-.72-2.04-1.78-2.04-1.26 0-2.66 1.16-2.66 2.78V161zm21.299.28c-3.16 0-5-2.44-5-5.44s1.96-5.44 4.9-5.44c3.1 0 4.76 2.4 4.76 5.82h-8c.12 2.1 1.26 3.7 3.34 3.7 1.5 0 2.5-.72 2.86-2.12h1.58c-.48 2.22-2.1 3.48-4.44 3.48m-.1-9.6c-1.92 0-2.96 1.44-3.2 3.32h6.22c-.1-2.06-1.16-3.32-3.02-3.32m8.964-1.02v1.36h.04c.74-.98 1.78-1.6 3.28-1.6 2.16 0 3.48 1.18 3.48 3.32V161h-1.62v-7.12c0-1.34-.88-2.1-2.34-2.1-1.64 0-2.84 1.16-2.84 2.86V161h-1.62v-10.34zm9.092 1.32v-1.32h1.5v-3.26h1.62v3.26h2v1.32h-2v6.72c0 .72.38.96 1.04.96.32 0 .679-.08.86-.14h.06v1.4c-.381.08-.82.14-1.3.14-1.32 0-2.28-.54-2.28-2v-7.08zm14.236 9.02-3.28-10.34h1.74l1.82 6.38c.24.86.56 2.22.56 2.22h.04s.3-1.36.52-2.18l1.74-6.42h1.7l1.68 6.42c.22.84.5 2.18.5 2.18h.04s.32-1.36.58-2.22l1.92-6.38h1.68l-3.38 10.34h-1.66l-1.72-6.26c-.24-.86-.5-2.16-.5-2.16h-.04s-.28 1.3-.52 2.16l-1.74 6.26zm17.652.28c-3.16 0-5-2.44-5-5.44s1.96-5.44 4.9-5.44c3.1 0 4.76 2.4 4.76 5.82h-8c.12 2.1 1.26 3.7 3.34 3.7 1.5 0 2.5-.72 2.86-2.12h1.58c-.48 2.22-2.1 3.48-4.44 3.48m-.1-9.6c-1.92 0-2.96 1.44-3.2 3.32h6.22c-.1-2.06-1.16-3.32-3.02-3.32m12.264 9.62c-1.4 0-2.42-.5-3.26-1.66h-.04V161h-1.62v-14.3h1.62v5.44h.04c.78-1.06 1.82-1.72 3.32-1.72 2.62 0 4.4 2 4.4 5.44 0 3.32-1.66 5.44-4.46 5.44m-.12-1.36c1.98 0 2.92-1.72 2.92-4.06 0-2.32-.94-4.08-2.9-4.08-2.26 0-3.3 1.84-3.3 4.08 0 2.32 1.08 4.06 3.28 4.06M4.88 184.28c-2.08 0-4.1-1.48-4.1-3.82 0-2.12 1.3-3.2 3.1-4.3l-.4-.52c-.82-1.06-1.1-1.9-1.1-2.94 0-1.62 1.34-2.86 3.08-2.86 1.58 0 3.1.98 3.1 2.98 0 1.74-1.26 2.7-2.62 3.58l2.84 3.62c.3-.78.48-1.66.48-2.64h1.4c0 1.36-.32 2.72-.92 3.86L11.9 184H9.96l-1.12-1.44c-.96 1.04-2.28 1.72-3.96 1.72m.1-1.42c1.2 0 2.22-.54 2.98-1.44l-3.28-4.22c-1.3.86-2.28 1.68-2.28 3.26 0 1.42 1.16 2.4 2.58 2.4M3.9 172.72c0 .8.26 1.38.88 2.18l.38.5c1.24-.8 1.84-1.52 1.84-2.62 0-.98-.6-1.6-1.54-1.6-.92 0-1.56.62-1.56 1.54M18.022 184v-10.34h1.62v1.48h.04c.64-1 1.74-1.72 3.04-1.72 1.26 0 2.26.64 2.7 1.84h.04a3.62 3.62 0 0 1 3.16-1.84c1.84 0 3.14 1.18 3.14 3.32V184h-1.62v-7.18c0-1.28-.86-2.04-1.9-2.04-1.34 0-2.54 1.16-2.54 2.78V184h-1.62v-7.18c0-1.28-.72-2.04-1.78-2.04-1.26 0-2.66 1.16-2.66 2.78V184zm25.079 0h-1.62v-1.42h-.04c-.74 1-1.62 1.66-3.12 1.66-2.12 0-3.48-1.28-3.48-3.42v-7.16h1.62v7.12c0 1.34.86 2.12 2.32 2.12 1.64 0 2.7-1.24 2.7-2.88v-6.36h1.62zm3.25 0v-14.3h1.62V184zm4.226-9.02v-1.32h1.5v-3.26h1.62v3.26h2v1.32h-2v6.72c0 .72.38.96 1.04.96.32 0 .68-.08.86-.14h.06v1.4c-.38.08-.82.14-1.3.14-1.32 0-2.28-.54-2.28-2v-7.08zM58.37 184v-10.34h1.62V184zm0-12.3v-2h1.62v2zm4.828 12.3v-10.34h1.62v1.48h.04c.64-1 1.74-1.72 3.04-1.72 1.26 0 2.26.64 2.7 1.84h.04a3.62 3.62 0 0 1 3.16-1.84c1.84 0 3.14 1.18 3.14 3.32V184h-1.62v-7.18c0-1.28-.86-2.04-1.9-2.04-1.34 0-2.54 1.16-2.54 2.78V184h-1.62v-7.18c0-1.28-.72-2.04-1.78-2.04-1.26 0-2.66 1.16-2.66 2.78V184zm21.299.28c-3.16 0-5-2.44-5-5.44s1.96-5.44 4.9-5.44c3.1 0 4.76 2.4 4.76 5.82h-8c.12 2.1 1.26 3.7 3.34 3.7 1.5 0 2.5-.72 2.86-2.12h1.58c-.48 2.22-2.1 3.48-4.44 3.48m-.1-9.6c-1.92 0-2.96 1.44-3.2 3.32h6.22c-.1-2.06-1.16-3.32-3.02-3.32m-.64-2.64 1.02-2.54h2l-1.64 2.54zM95.74 184.3c-2.82 0-4.58-2.12-4.58-5.44 0-3.44 1.98-5.44 4.54-5.44 1.46 0 2.58.72 3.24 1.7h.04v-5.42h1.62V184h-1.62v-1.26h-.04c-.78 1-1.74 1.56-3.2 1.56m.06-1.36c2.3 0 3.28-1.72 3.28-4.06 0-2.4-1.16-4.08-3.3-4.08-1.96 0-2.96 1.76-2.96 4.08 0 2.34 1 4.06 2.98 4.06m7.994 1.06v-10.34h1.62V184zm0-12.3v-2h1.62v2zm12.948 12.4c-1.06 0-1.62-.48-1.78-1.54h-.02c-.62.8-1.68 1.64-3.44 1.64-1.96 0-3.5-.92-3.5-2.88 0-2.44 1.92-2.94 4.5-3.34 1.46-.22 2.48-.36 2.48-1.48 0-1.16-.84-1.82-2.32-1.82-1.68 0-2.52.72-2.58 2.28h-1.56c.06-2 1.38-3.5 4.12-3.5 2.2 0 3.82.82 3.82 3.28v4.92c0 .84.2 1.3 1.1 1.1h.06v1.18c-.2.08-.46.16-.88.16m-4.88-1.14c2.16 0 3.14-1.58 3.14-2.78v-1.76c-.54.34-1.48.6-2.36.76-1.62.3-2.92.58-2.92 2.1 0 1.38 1.08 1.68 2.14 1.68M3.98 230l-3.7-14.3h1.88l2.26 9.3c.24.96.54 2.42.54 2.42H5s.34-1.52.6-2.46l2.58-9.26h1.94l2.5 9.26c.26.96.58 2.46.58 2.46h.04s.34-1.54.56-2.42l2.38-9.3H18L14.02 230H12.3l-2.62-10.08c-.22-.84-.52-2.18-.52-2.18h-.04s-.3 1.34-.54 2.18L5.78 230zm19.825.28c-3.16 0-5-2.44-5-5.44s1.96-5.44 4.9-5.44c3.1 0 4.76 2.4 4.76 5.82h-8c.12 2.1 1.26 3.7 3.34 3.7 1.5 0 2.5-.72 2.86-2.12h1.58c-.48 2.22-2.1 3.48-4.44 3.48m-.1-9.6c-1.92 0-2.96 1.44-3.2 3.32h6.22c-.1-2.06-1.16-3.32-3.02-3.32m12.264 9.62c-1.4 0-2.42-.5-3.26-1.66h-.04V230h-1.62v-14.3h1.62v5.44h.04c.78-1.06 1.82-1.72 3.32-1.72 2.62 0 4.4 2 4.4 5.44 0 3.32-1.66 5.44-4.46 5.44m-.12-1.36c1.98 0 2.92-1.72 2.92-4.06 0-2.32-.94-4.08-2.9-4.08-2.26 0-3.3 1.84-3.3 4.08 0 2.32 1.08 4.06 3.28 4.06M1.34 253v-14.3h6.68c2.52 0 4.22 1.58 4.22 3.92 0 1.74-.76 2.98-2.48 3.54v.06c1.46.52 1.92 1.52 2.06 3.64.16 2.3.4 2.88.66 3.06v.08h-1.94c-.3-.26-.36-.8-.52-3.2-.14-2.1-.98-2.84-2.9-2.84H3.14V253zm1.8-12.74v5.24h4.24c2 0 3-1 3-2.62 0-1.74-.8-2.62-2.9-2.62zm16.368 13.02c-3.16 0-5-2.44-5-5.44s1.96-5.44 4.9-5.44c3.1 0 4.76 2.4 4.76 5.82h-8c.12 2.1 1.26 3.7 3.34 3.7 1.5 0 2.5-.72 2.86-2.12h1.58c-.48 2.22-2.1 3.48-4.44 3.48m-.1-9.6c-1.92 0-2.96 1.44-3.2 3.32h6.22c-.1-2.06-1.16-3.32-3.02-3.32m-.64-2.64 1.02-2.54h2l-1.64 2.54zm11.904 12.26c-2.84 0-4.42-1.34-4.58-3.66h1.66c.22 1.8 1.42 2.3 2.96 2.3 1.7 0 2.4-.74 2.4-1.7 0-1.16-.8-1.46-2.7-1.86-2.04-.42-3.86-.84-3.86-3.1 0-1.72 1.32-2.84 3.72-2.84 2.56 0 3.82 1.22 4.06 3.24h-1.66c-.16-1.36-.9-1.96-2.44-1.96-1.48 0-2.08.66-2.08 1.48 0 1.12 1 1.34 2.78 1.7 2.08.42 3.82.88 3.82 3.26 0 2.08-1.7 3.14-4.08 3.14m11.246-.02c-3.16 0-5-2.44-5-5.44s1.96-5.44 4.9-5.44c3.1 0 4.76 2.4 4.76 5.82h-8c.12 2.1 1.26 3.7 3.34 3.7 1.5 0 2.5-.72 2.86-2.12h1.58c-.48 2.22-2.1 3.48-4.44 3.48m-.1-9.6c-1.92 0-2.96 1.44-3.2 3.32h6.22c-.1-2.06-1.16-3.32-3.02-3.32m15.465 9.42c-1.06 0-1.62-.48-1.78-1.54h-.02c-.62.8-1.68 1.64-3.44 1.64-1.96 0-3.5-.92-3.5-2.88 0-2.44 1.92-2.94 4.5-3.34 1.46-.22 2.48-.36 2.48-1.48 0-1.16-.84-1.82-2.32-1.82-1.68 0-2.52.72-2.58 2.28h-1.56c.06-2 1.38-3.5 4.12-3.5 2.2 0 3.82.82 3.82 3.28v4.92c0 .84.2 1.3 1.1 1.1h.06v1.18c-.2.08-.46.16-.88.16m-4.88-1.14c2.16 0 3.14-1.58 3.14-2.78v-1.76c-.54.34-1.48.6-2.36.76-1.62.3-2.92.58-2.92 2.1 0 1.38 1.08 1.68 2.14 1.68M68.558 253h-1.62v-1.42h-.04c-.74 1-1.62 1.66-3.12 1.66-2.12 0-3.48-1.28-3.48-3.42v-7.16h1.62v7.12c0 1.34.86 2.12 2.32 2.12 1.64 0 2.7-1.24 2.7-2.88v-6.36h1.62zm2.21 0 3.9-5.42-3.44-4.92h1.88l2.46 3.76h.04l2.56-3.76h1.78l-3.4 4.74 4.04 5.6h-1.9l-3.06-4.44h-.04l-3 4.44zm20.143.3c-2.84 0-4.42-1.34-4.58-3.66h1.66c.22 1.8 1.42 2.3 2.96 2.3 1.7 0 2.4-.74 2.4-1.7 0-1.16-.8-1.46-2.7-1.86-2.04-.42-3.86-.84-3.86-3.1 0-1.72 1.32-2.84 3.72-2.84 2.56 0 3.82 1.22 4.06 3.24h-1.66c-.16-1.36-.9-1.96-2.44-1.96-1.48 0-2.08.66-2.08 1.48 0 1.12 1 1.34 2.78 1.7 2.08.42 3.82.88 3.82 3.26 0 2.08-1.7 3.14-4.08 3.14m11.246-.02c-3.08 0-5-2.44-5-5.44s1.92-5.44 5-5.44c3.1 0 4.98 2.44 4.98 5.44s-1.88 5.44-4.98 5.44m0-1.36c2.2 0 3.32-1.8 3.32-4.08s-1.12-4.1-3.32-4.1-3.34 1.82-3.34 4.1 1.14 4.08 3.34 4.08m12.015 1.36c-3.08 0-5-2.44-5-5.44s1.92-5.44 5-5.44c2.44 0 4.06 1.4 4.42 3.6h-1.64c-.24-1.4-1.22-2.26-2.78-2.26-2.2 0-3.34 1.82-3.34 4.1s1.14 4.08 3.34 4.08c1.68 0 2.68-.96 2.82-2.56h1.6c-.22 2.48-1.84 3.92-4.42 3.92m6.951-.28v-10.34h1.62V253zm0-12.3v-2h1.62v2zm12.949 12.4c-1.06 0-1.62-.48-1.78-1.54h-.02c-.62.8-1.68 1.64-3.44 1.64-1.96 0-3.5-.92-3.5-2.88 0-2.44 1.92-2.94 4.5-3.34 1.46-.22 2.48-.36 2.48-1.48 0-1.16-.84-1.82-2.32-1.82-1.68 0-2.52.72-2.58 2.28h-1.56c.06-2 1.38-3.5 4.12-3.5 2.2 0 3.82.82 3.82 3.28v4.92c0 .84.2 1.3 1.1 1.1h.06v1.18c-.2.08-.46.16-.88.16m-4.88-1.14c2.16 0 3.14-1.58 3.14-2.78v-1.76c-.54.34-1.48.6-2.36.76-1.62.3-2.92.58-2.92 2.1 0 1.38 1.08 1.68 2.14 1.68m16.155 1.04h-1.62v-1.42h-.04c-.74 1-1.62 1.66-3.12 1.66-2.12 0-3.48-1.28-3.48-3.42v-7.16h1.62v7.12c0 1.34.86 2.12 2.32 2.12 1.64 0 2.7-1.24 2.7-2.88v-6.36h1.62zm2.211 0 3.9-5.42-3.44-4.92h1.88l2.46 3.76h.04l2.56-3.76h1.78l-3.4 4.74 4.04 5.6h-1.9l-3.06-4.44h-.04l-3 4.44zM1.34 276v-14.3h5.2c4.3 0 6.34 2.92 6.34 7.2S10.7 276 6.4 276zm1.8-1.58h3.2c3.36 0 4.7-2.16 4.7-5.52s-1.2-5.64-4.56-5.64H3.14zm17.052 1.86c-3.16 0-5-2.44-5-5.44s1.96-5.44 4.9-5.44c3.1 0 4.76 2.4 4.76 5.82h-8c.12 2.1 1.26 3.7 3.34 3.7 1.5 0 2.5-.72 2.86-2.12h1.58c-.48 2.22-2.1 3.48-4.44 3.48m-.1-9.6c-1.92 0-2.96 1.44-3.2 3.32h6.22c-.1-2.06-1.16-3.32-3.02-3.32m11.264 9.62c-2.84 0-4.42-1.34-4.58-3.66h1.66c.22 1.8 1.42 2.3 2.96 2.3 1.7 0 2.4-.74 2.4-1.7 0-1.16-.8-1.46-2.7-1.86-2.04-.42-3.86-.84-3.86-3.1 0-1.72 1.32-2.84 3.72-2.84 2.56 0 3.82 1.22 4.06 3.24h-1.66c-.16-1.36-.9-1.96-2.44-1.96-1.48 0-2.08.66-2.08 1.48 0 1.12 1 1.34 2.78 1.7 2.08.42 3.82.88 3.82 3.26 0 2.08-1.7 3.14-4.08 3.14m6.63-.3v-10.34h1.62V276zm0-12.3v-2h1.62v2zm8.949 15.74c-2.68 0-4.2-1.08-4.38-2.86h1.5c.16 1.14 1.24 1.58 2.84 1.58 1.9 0 2.96-.86 2.96-2.66v-1.46h-.04c-.76.98-1.58 1.6-3.06 1.6-2.68 0-4.52-2.14-4.52-5.12 0-3.22 2.02-5.1 4.42-5.1 1.5 0 2.46.58 3.16 1.56h.04v-1.32h1.62v9.78c0 2.72-1.8 4-4.54 4m-.1-5.16c2.38 0 3.14-1.66 3.14-3.84 0-2.26-.96-3.66-3.16-3.66-1.94 0-2.92 1.52-2.92 3.76 0 2.26 1.02 3.74 2.94 3.74m9.46-8.62v1.36h.04c.74-.98 1.78-1.6 3.28-1.6 2.16 0 3.48 1.18 3.48 3.32V276h-1.62v-7.12c0-1.34-.88-2.1-2.34-2.1-1.64 0-2.84 1.16-2.84 2.86V276h-1.62v-10.34zM6.58 299.22c-3.12 0-5.48-1.38-5.48-4.84v-9.68h1.8v9.5c0 2.44 1.38 3.48 3.74 3.48 2.26 0 3.62-1.04 3.62-3.48v-9.5h1.8v9.68c0 3.46-2.42 4.84-5.48 4.84m7.704-.22 3.9-5.42-3.44-4.92h1.88l2.46 3.76h.04l2.56-3.76h1.78l-3.4 4.74 4.04 5.6h-1.9l-3.06-4.44h-.04l-3 4.44zm15.442 0 5.68-14.3h1.68l-5.68 14.3zm19.452.22c-3.12 0-5.48-1.38-5.48-4.84v-9.68h1.8v9.5c0 2.44 1.38 3.48 3.74 3.48 2.26 0 3.62-1.04 3.62-3.48v-9.5h1.8v9.68c0 3.46-2.42 4.84-5.48 4.84m8.684-.22v-10.34h1.62V299zm0-12.3v-2h1.62v2zM133.25 47.75c-8.85 0-13.4-4.9-13.5-12.4h6.5c.25 4.1 2.05 6.95 6.75 6.95 3.8 0 6.05-2.05 6.05-5.55 0-3.3-2.1-5.3-6.3-5.3h-2.1V26.3h1.95c3.25 0 5.55-1.65 5.55-4.55 0-2.7-1.85-4.5-4.85-4.5-3.9 0-5.8 2.55-5.95 6.1h-6.5c.25-6.75 4.5-11.3 12.45-11.3 7.15 0 11.75 3.55 11.75 9.25 0 3.85-2.45 6.1-5.85 7.2v.1c4.35 1.05 6.95 3.85 6.95 8.6 0 7.1-5.85 10.55-12.9 10.55"/><defs><filter id="a" width="107" height="7" x="71.5" y="329.5" color-interpolation-filters="sRGB" filterUnits="userSpaceOnUse"><feFlood flood-opacity="0" result="BackgroundImageFix"/><feBlend in="SourceGraphic" in2="BackgroundImageFix" result="shape"/><feGaussianBlur result="effect1_foregroundBlur_189_6" stdDeviation=".5"/></filter></defs></svg>