<svg width="250" height="381" viewBox="0 0 250 381" fill="none" xmlns="http://www.w3.org/2000/svg">
<circle cx="125" cy="40" r="15" fill="#E72964"/>
<g filter="url(#filter0_f_189_6)">
<path d="M175 333L75 333" stroke="#E72964" stroke-width="5" stroke-linecap="round"/>
</g>
<path d="M1.1 115V100.7H5.18L7.2 107.88C7.7 109.68 8.1 111.74 8.1 111.74H8.14C8.14 111.74 8.52 109.68 9.02 107.88L11.04 100.7H15.18V115H12.48V106.8C12.48 105.64 12.6 103.84 12.6 103.84H12.56C12.56 103.84 12.24 105.52 11.94 106.56L9.48 115H6.7L4.3 106.56C4 105.52 3.68 103.84 3.68 103.84H3.64C3.64 103.84 3.76 105.64 3.76 106.8V115H1.1ZM18.3891 118.36V116.22H19.3491C20.4291 116.22 20.8691 115.66 20.8691 114.82C20.8691 114.26 20.6691 113.6 20.0891 112.04L17.3291 104.74H20.1891L21.7091 109.36C22.0291 110.3 22.3691 111.6 22.3691 111.6H22.4091C22.4091 111.6 22.6891 110.3 23.0091 109.36L24.4491 104.74H27.1891L23.6091 115.26C22.8291 117.54 22.0691 118.36 19.9891 118.36H18.3891ZM29.3305 115V100.7H34.9105C38.7305 100.7 41.1905 103.78 41.1905 108C41.1905 110.32 40.4105 112.36 38.9105 113.62C37.8505 114.5 36.4705 115 34.6705 115H29.3305ZM32.2305 112.5H34.4705C37.1905 112.5 38.2505 110.84 38.2505 108C38.2505 105.16 37.0105 103.18 34.5505 103.18H32.2305V112.5ZM43.548 115V104.74H46.268V115H43.548ZM43.548 103.14V100.7H46.268V103.14H43.548ZM53.5406 118.5C50.7406 118.5 49.0206 117.3 48.7406 115.3H51.4406C51.6606 115.94 52.2406 116.44 53.5006 116.44C55.0406 116.44 55.7806 115.7 55.7806 114.3V113.18H55.7206C55.1206 113.86 54.3406 114.38 53.0406 114.38C50.7606 114.38 48.5206 112.58 48.5206 109.48C48.5206 106.42 50.3606 104.46 52.9606 104.46C54.2406 104.46 55.1806 104.96 55.8006 105.82H55.8406V104.74H58.4606V114.22C58.4606 115.66 58.0006 116.64 57.2406 117.34C56.3806 118.14 55.0606 118.5 53.5406 118.5ZM53.5006 112.2C55.2206 112.2 55.9206 110.94 55.9206 109.42C55.9206 107.92 55.1206 106.64 53.4806 106.64C52.1006 106.64 51.1806 107.72 51.1806 109.44C51.1806 111.18 52.1006 112.2 53.5006 112.2ZM61.212 115V104.74H63.932V115H61.212ZM61.212 103.14V100.7H63.932V103.14H61.212ZM66.0847 106.54V104.74H67.5047V101.54H70.1647V104.74H71.9247V106.54H70.1647V111.98C70.1647 112.74 70.5847 113 71.1847 113C71.5247 113 71.9847 112.98 71.9847 112.98V114.98C71.9847 114.98 71.3647 115.02 70.2847 115.02C68.9647 115.02 67.5047 114.5 67.5047 112.56V106.54H66.0847ZM80.883 115C80.723 114.8 80.623 114.32 80.563 113.86H80.523C80.003 114.64 79.263 115.24 77.503 115.24C75.403 115.24 73.923 114.14 73.923 112.1C73.923 109.84 75.763 109.12 78.043 108.8C79.743 108.56 80.523 108.42 80.523 107.64C80.523 106.9 79.943 106.42 78.803 106.42C77.523 106.42 76.903 106.88 76.823 107.86H74.403C74.483 106.06 75.823 104.48 78.823 104.48C81.903 104.48 83.143 105.86 83.143 108.26V113.48C83.143 114.26 83.263 114.72 83.503 114.9V115H80.883ZM78.163 113.34C79.723 113.34 80.583 112.38 80.583 111.38V109.84C80.103 110.12 79.363 110.28 78.683 110.44C77.263 110.76 76.563 111.08 76.563 112.04C76.563 113 77.203 113.34 78.163 113.34ZM85.9122 115V100.7H88.6322V115H85.9122ZM97.183 115.32C93.303 115.32 91.103 113.6 91.003 110.58H93.843C94.043 112.3 95.023 112.98 97.063 112.98C98.543 112.98 99.843 112.46 99.843 111.14C99.843 109.74 98.483 109.46 96.303 108.96C93.743 108.38 91.403 107.7 91.403 104.72C91.403 101.9 93.703 100.44 96.883 100.44C100.103 100.44 102.183 102.02 102.403 104.9H99.623C99.463 103.46 98.343 102.74 96.863 102.74C95.303 102.74 94.283 103.4 94.283 104.42C94.283 105.58 95.283 105.92 97.403 106.38C100.343 107.02 102.743 107.72 102.743 110.8C102.743 113.7 100.403 115.32 97.183 115.32ZM110.015 115.3C106.775 115.3 104.755 112.94 104.755 109.88C104.755 106.82 106.755 104.46 109.875 104.46C112.535 104.46 114.175 106 114.535 108.22H111.875C111.695 107.32 110.995 106.64 109.995 106.64C108.355 106.64 107.515 107.9 107.515 109.88C107.515 111.82 108.295 113.12 109.955 113.12C111.055 113.12 111.835 112.54 112.015 111.38H114.635C114.455 113.56 112.755 115.3 110.015 115.3ZM119.541 100.7V106.08H119.601C120.341 105 121.181 104.46 122.581 104.46C124.701 104.46 126.121 106.06 126.121 108.3V115H123.401V108.7C123.401 107.6 122.761 106.82 121.621 106.82C120.421 106.82 119.541 107.78 119.541 109.18V115H116.821V100.7H119.541ZM133.658 115.3C130.478 115.3 128.298 112.94 128.298 109.88C128.298 106.82 130.478 104.46 133.658 104.46C136.838 104.46 139.018 106.82 139.018 109.88C139.018 112.94 136.838 115.3 133.658 115.3ZM133.658 113.22C135.318 113.22 136.258 111.88 136.258 109.88C136.258 107.88 135.318 106.52 133.658 106.52C131.978 106.52 131.058 107.88 131.058 109.88C131.058 111.88 131.978 113.22 133.658 113.22ZM146.142 115.3C142.962 115.3 140.782 112.94 140.782 109.88C140.782 106.82 142.962 104.46 146.142 104.46C149.322 104.46 151.502 106.82 151.502 109.88C151.502 112.94 149.322 115.3 146.142 115.3ZM146.142 113.22C147.802 113.22 148.742 111.88 148.742 109.88C148.742 107.88 147.802 106.52 146.142 106.52C144.462 106.52 143.542 107.88 143.542 109.88C143.542 111.88 144.462 113.22 146.142 113.22ZM153.807 115V100.7H156.527V115H153.807ZM1.34 161V146.7H6.54C10.84 146.7 12.88 149.62 12.88 153.9C12.88 158.18 10.7 161 6.4 161H1.34ZM3.14 159.42H6.34C9.7 159.42 11.04 157.26 11.04 153.9C11.04 150.54 9.84 148.26 6.48 148.26H3.14V159.42ZM20.1919 161.28C17.0319 161.28 15.1919 158.84 15.1919 155.84C15.1919 152.84 17.1519 150.4 20.0919 150.4C23.1919 150.4 24.8519 152.8 24.8519 156.22H16.8519C16.9719 158.32 18.1119 159.92 20.1919 159.92C21.6919 159.92 22.6919 159.2 23.0519 157.8H24.6319C24.1519 160.02 22.5319 161.28 20.1919 161.28ZM20.0919 151.68C18.1719 151.68 17.1319 153.12 16.8919 155H23.1119C23.0119 152.94 21.9519 151.68 20.0919 151.68ZM19.4519 149.04L20.4719 146.5H22.4719L20.8319 149.04H19.4519ZM29.8006 161L26.1806 150.66H27.9206L30.0606 157.22C30.3606 158.14 30.7406 159.4 30.7406 159.4H30.7806C30.7806 159.4 31.1606 158.12 31.4606 157.22L33.6406 150.66H35.3206L31.6006 161H29.8006ZM41.6841 161.28C38.5241 161.28 36.6841 158.84 36.6841 155.84C36.6841 152.84 38.6441 150.4 41.5841 150.4C44.6841 150.4 46.3441 152.8 46.3441 156.22H38.3441C38.4641 158.32 39.6041 159.92 41.6841 159.92C43.1841 159.92 44.1841 159.2 44.5441 157.8H46.1241C45.6441 160.02 44.0241 161.28 41.6841 161.28ZM41.5841 151.68C39.6641 151.68 38.6241 153.12 38.3841 155H44.6041C44.5041 152.94 43.4441 151.68 41.5841 151.68ZM48.9881 161V146.7H50.6081V161H48.9881ZM58.2934 161.28C55.2134 161.28 53.2934 158.84 53.2934 155.84C53.2934 152.84 55.2134 150.4 58.2934 150.4C61.3934 150.4 63.2734 152.84 63.2734 155.84C63.2734 158.84 61.3934 161.28 58.2934 161.28ZM58.2934 159.92C60.4934 159.92 61.6134 158.12 61.6134 155.84C61.6134 153.56 60.4934 151.74 58.2934 151.74C56.0934 151.74 54.9534 153.56 54.9534 155.84C54.9534 158.12 56.0934 159.92 58.2934 159.92ZM65.8891 164.32V150.66H67.5091V152.12H67.5491C68.3291 151.06 69.3691 150.42 70.8691 150.42C73.4891 150.42 75.3091 152.42 75.3091 155.86C75.3091 159.18 73.6091 161.3 70.8091 161.3C69.4091 161.3 68.4091 160.88 67.5491 159.78H67.5091V164.32H65.8891ZM70.6891 159.94C72.6691 159.94 73.6491 158.22 73.6491 155.88C73.6491 153.56 72.6691 151.8 70.7091 151.8C68.4491 151.8 67.4091 153.64 67.4091 155.88C67.4091 158.12 68.3091 159.94 70.6891 159.94ZM77.9242 164.32V150.66H79.5442V152.12H79.5842C80.3642 151.06 81.4042 150.42 82.9042 150.42C85.5242 150.42 87.3442 152.42 87.3442 155.86C87.3442 159.18 85.6442 161.3 82.8442 161.3C81.4442 161.3 80.4442 160.88 79.5842 159.78H79.5442V164.32H77.9242ZM82.7242 159.94C84.7042 159.94 85.6842 158.22 85.6842 155.88C85.6842 153.56 84.7042 151.8 82.7442 151.8C80.4842 151.8 79.4442 153.64 79.4442 155.88C79.4442 158.12 80.3442 159.94 82.7242 159.94ZM94.3794 161.28C91.2194 161.28 89.3794 158.84 89.3794 155.84C89.3794 152.84 91.3394 150.4 94.2794 150.4C97.3794 150.4 99.0394 152.8 99.0394 156.22H91.0394C91.1594 158.32 92.2994 159.92 94.3794 159.92C95.8794 159.92 96.8794 159.2 97.2394 157.8H98.8194C98.3394 160.02 96.7194 161.28 94.3794 161.28ZM94.2794 151.68C92.3594 151.68 91.3194 153.12 91.0794 155H97.2994C97.1994 152.94 96.1394 151.68 94.2794 151.68ZM101.623 161V150.66H103.243V152.14H103.283C103.923 151.14 105.023 150.42 106.323 150.42C107.583 150.42 108.583 151.06 109.023 152.26H109.063C109.723 151.08 110.963 150.42 112.223 150.42C114.063 150.42 115.363 151.6 115.363 153.74V161H113.743V153.82C113.743 152.54 112.883 151.78 111.843 151.78C110.503 151.78 109.303 152.94 109.303 154.56V161H107.683V153.82C107.683 152.54 106.963 151.78 105.903 151.78C104.643 151.78 103.243 152.94 103.243 154.56V161H101.623ZM122.922 161.28C119.762 161.28 117.922 158.84 117.922 155.84C117.922 152.84 119.882 150.4 122.822 150.4C125.922 150.4 127.582 152.8 127.582 156.22H119.582C119.702 158.32 120.842 159.92 122.922 159.92C124.422 159.92 125.422 159.2 125.782 157.8H127.362C126.882 160.02 125.262 161.28 122.922 161.28ZM122.822 151.68C120.902 151.68 119.862 153.12 119.622 155H125.842C125.742 152.94 124.682 151.68 122.822 151.68ZM131.786 150.66V152.02H131.826C132.566 151.04 133.606 150.42 135.106 150.42C137.266 150.42 138.586 151.6 138.586 153.74V161H136.966V153.88C136.966 152.54 136.086 151.78 134.626 151.78C132.986 151.78 131.786 152.94 131.786 154.64V161H130.166V150.66H131.786ZM140.878 151.98V150.66H142.378V147.4H143.998V150.66H145.998V151.98H143.998V158.7C143.998 159.42 144.378 159.66 145.038 159.66C145.358 159.66 145.717 159.58 145.898 159.52H145.958V160.92C145.577 161 145.138 161.06 144.658 161.06C143.338 161.06 142.378 160.52 142.378 159.06V151.98H140.878ZM155.114 161L151.834 150.66H153.574L155.394 157.04C155.634 157.9 155.954 159.26 155.954 159.26H155.994C155.994 159.26 156.294 157.9 156.514 157.08L158.254 150.66H159.954L161.634 157.08C161.854 157.92 162.134 159.26 162.134 159.26H162.174C162.174 159.26 162.494 157.9 162.754 157.04L164.674 150.66H166.354L162.974 161H161.314L159.594 154.74C159.354 153.88 159.094 152.58 159.094 152.58H159.054C159.054 152.58 158.774 153.88 158.534 154.74L156.794 161H155.114ZM172.766 161.28C169.606 161.28 167.766 158.84 167.766 155.84C167.766 152.84 169.726 150.4 172.666 150.4C175.766 150.4 177.426 152.8 177.426 156.22H169.426C169.546 158.32 170.686 159.92 172.766 159.92C174.266 159.92 175.266 159.2 175.626 157.8H177.206C176.726 160.02 175.106 161.28 172.766 161.28ZM172.666 151.68C170.746 151.68 169.706 153.12 169.466 155H175.686C175.586 152.94 174.526 151.68 172.666 151.68ZM184.93 161.3C183.53 161.3 182.51 160.8 181.67 159.64H181.63V161H180.01V146.7H181.63V152.14H181.67C182.45 151.08 183.49 150.42 184.99 150.42C187.61 150.42 189.39 152.42 189.39 155.86C189.39 159.18 187.73 161.3 184.93 161.3ZM184.81 159.94C186.79 159.94 187.73 158.22 187.73 155.88C187.73 153.56 186.79 151.8 184.83 151.8C182.57 151.8 181.53 153.64 181.53 155.88C181.53 158.2 182.61 159.94 184.81 159.94ZM4.88 184.28C2.8 184.28 0.78 182.8 0.78 180.46C0.78 178.34 2.08 177.26 3.88 176.16L3.48 175.64C2.66 174.58 2.38 173.74 2.38 172.7C2.38 171.08 3.72 169.84 5.46 169.84C7.04 169.84 8.56 170.82 8.56 172.82C8.56 174.56 7.3 175.52 5.94 176.4L8.78 180.02C9.08 179.24 9.26 178.36 9.26 177.38H10.66C10.66 178.74 10.34 180.1 9.74 181.24L11.9 184H9.96L8.84 182.56C7.88 183.6 6.56 184.28 4.88 184.28ZM4.98 182.86C6.18 182.86 7.2 182.32 7.96 181.42L4.68 177.2C3.38 178.06 2.4 178.88 2.4 180.46C2.4 181.88 3.56 182.86 4.98 182.86ZM3.9 172.72C3.9 173.52 4.16 174.1 4.78 174.9L5.16 175.4C6.4 174.6 7 173.88 7 172.78C7 171.8 6.4 171.18 5.46 171.18C4.54 171.18 3.9 171.8 3.9 172.72ZM18.0219 184V173.66H19.6419V175.14H19.6819C20.3219 174.14 21.4219 173.42 22.7219 173.42C23.9819 173.42 24.9819 174.06 25.4219 175.26H25.4619C26.1219 174.08 27.3619 173.42 28.6219 173.42C30.4619 173.42 31.7619 174.6 31.7619 176.74V184H30.1419V176.82C30.1419 175.54 29.2819 174.78 28.2419 174.78C26.9019 174.78 25.7019 175.94 25.7019 177.56V184H24.0819V176.82C24.0819 175.54 23.3619 174.78 22.3019 174.78C21.0419 174.78 19.6419 175.94 19.6419 177.56V184H18.0219ZM43.1008 184H41.4808V182.58H41.4408C40.7008 183.58 39.8208 184.24 38.3208 184.24C36.2008 184.24 34.8408 182.96 34.8408 180.82V173.66H36.4608V180.78C36.4608 182.12 37.3208 182.9 38.7808 182.9C40.4208 182.9 41.4808 181.66 41.4808 180.02V173.66H43.1008V184ZM46.3514 184V169.7H47.9714V184H46.3514ZM50.5767 174.98V173.66H52.0767V170.4H53.6967V173.66H55.6967V174.98H53.6967V181.7C53.6967 182.42 54.0767 182.66 54.7367 182.66C55.0567 182.66 55.4167 182.58 55.5967 182.52H55.6567V183.92C55.2767 184 54.8367 184.06 54.3567 184.06C53.0367 184.06 52.0767 183.52 52.0767 182.06V174.98H50.5767ZM58.3695 184V173.66H59.9895V184H58.3695ZM58.3695 171.7V169.7H59.9895V171.7H58.3695ZM63.1977 184V173.66H64.8177V175.14H64.8577C65.4977 174.14 66.5977 173.42 67.8977 173.42C69.1577 173.42 70.1577 174.06 70.5977 175.26H70.6377C71.2977 174.08 72.5377 173.42 73.7977 173.42C75.6377 173.42 76.9377 174.6 76.9377 176.74V184H75.3177V176.82C75.3177 175.54 74.4577 174.78 73.4177 174.78C72.0777 174.78 70.8777 175.94 70.8777 177.56V184H69.2577V176.82C69.2577 175.54 68.5377 174.78 67.4777 174.78C66.2177 174.78 64.8177 175.94 64.8177 177.56V184H63.1977ZM84.4966 184.28C81.3366 184.28 79.4966 181.84 79.4966 178.84C79.4966 175.84 81.4566 173.4 84.3966 173.4C87.4966 173.4 89.1566 175.8 89.1566 179.22H81.1566C81.2766 181.32 82.4166 182.92 84.4966 182.92C85.9966 182.92 86.9966 182.2 87.3566 180.8H88.9366C88.4566 183.02 86.8366 184.28 84.4966 184.28ZM84.3966 174.68C82.4766 174.68 81.4366 176.12 81.1966 178H87.4166C87.3166 175.94 86.2566 174.68 84.3966 174.68ZM83.7566 172.04L84.7766 169.5H86.7766L85.1366 172.04H83.7566ZM95.7406 184.3C92.9206 184.3 91.1606 182.18 91.1606 178.86C91.1606 175.42 93.1406 173.42 95.7006 173.42C97.1606 173.42 98.2806 174.14 98.9406 175.12H98.9806V169.7H100.601V184H98.9806V182.74H98.9406C98.1606 183.74 97.2006 184.3 95.7406 184.3ZM95.8006 182.94C98.1006 182.94 99.0806 181.22 99.0806 178.88C99.0806 176.48 97.9206 174.8 95.7806 174.8C93.8206 174.8 92.8206 176.56 92.8206 178.88C92.8206 181.22 93.8206 182.94 95.8006 182.94ZM103.795 184V173.66H105.415V184H103.795ZM103.795 171.7V169.7H105.415V171.7H103.795ZM116.743 184.1C115.683 184.1 115.123 183.62 114.963 182.56H114.943C114.323 183.36 113.263 184.2 111.503 184.2C109.543 184.2 108.003 183.28 108.003 181.32C108.003 178.88 109.923 178.38 112.503 177.98C113.963 177.76 114.983 177.62 114.983 176.5C114.983 175.34 114.143 174.68 112.663 174.68C110.983 174.68 110.143 175.4 110.083 176.96H108.523C108.583 174.96 109.903 173.46 112.643 173.46C114.843 173.46 116.463 174.28 116.463 176.74V181.66C116.463 182.5 116.663 182.96 117.563 182.76H117.623V183.94C117.423 184.02 117.163 184.1 116.743 184.1ZM111.863 182.96C114.023 182.96 115.003 181.38 115.003 180.18V178.42C114.463 178.76 113.523 179.02 112.643 179.18C111.023 179.48 109.723 179.76 109.723 181.28C109.723 182.66 110.803 182.96 111.863 182.96ZM3.98 230L0.28 215.7H2.16L4.42 225C4.66 225.96 4.96 227.42 4.96 227.42H5C5 227.42 5.34 225.9 5.6 224.96L8.18 215.7H10.12L12.62 224.96C12.88 225.92 13.2 227.42 13.2 227.42H13.24C13.24 227.42 13.58 225.88 13.8 225L16.18 215.7H18L14.02 230H12.3L9.68 219.92C9.46 219.08 9.16 217.74 9.16 217.74H9.12C9.12 217.74 8.82 219.08 8.58 219.92L5.78 230H3.98ZM23.8052 230.28C20.6452 230.28 18.8052 227.84 18.8052 224.84C18.8052 221.84 20.7652 219.4 23.7052 219.4C26.8052 219.4 28.4652 221.8 28.4652 225.22H20.4652C20.5852 227.32 21.7252 228.92 23.8052 228.92C25.3052 228.92 26.3052 228.2 26.6652 226.8H28.2452C27.7652 229.02 26.1452 230.28 23.8052 230.28ZM23.7052 220.68C21.7852 220.68 20.7452 222.12 20.5052 224H26.7252C26.6252 221.94 25.5652 220.68 23.7052 220.68ZM35.9692 230.3C34.5692 230.3 33.5492 229.8 32.7092 228.64H32.6692V230H31.0492V215.7H32.6692V221.14H32.7092C33.4892 220.08 34.5292 219.42 36.0292 219.42C38.6492 219.42 40.4292 221.42 40.4292 224.86C40.4292 228.18 38.7692 230.3 35.9692 230.3ZM35.8492 228.94C37.8292 228.94 38.7692 227.22 38.7692 224.88C38.7692 222.56 37.8292 220.8 35.8692 220.8C33.6092 220.8 32.5692 222.64 32.5692 224.88C32.5692 227.2 33.6492 228.94 35.8492 228.94ZM1.34 253V238.7H8.02C10.54 238.7 12.24 240.28 12.24 242.62C12.24 244.36 11.48 245.6 9.76 246.16V246.22C11.22 246.74 11.68 247.74 11.82 249.86C11.98 252.16 12.22 252.74 12.48 252.92V253H10.54C10.24 252.74 10.18 252.2 10.02 249.8C9.88 247.7 9.04 246.96 7.12 246.96H3.14V253H1.34ZM3.14 240.26V245.5H7.38C9.38 245.5 10.38 244.5 10.38 242.88C10.38 241.14 9.58 240.26 7.48 240.26H3.14ZM19.5083 253.28C16.3483 253.28 14.5083 250.84 14.5083 247.84C14.5083 244.84 16.4683 242.4 19.4083 242.4C22.5083 242.4 24.1683 244.8 24.1683 248.22H16.1683C16.2883 250.32 17.4283 251.92 19.5083 251.92C21.0083 251.92 22.0083 251.2 22.3683 249.8H23.9483C23.4683 252.02 21.8483 253.28 19.5083 253.28ZM19.4083 243.68C17.4883 243.68 16.4483 245.12 16.2083 247H22.4283C22.3283 244.94 21.2683 243.68 19.4083 243.68ZM18.7683 241.04L19.7883 238.5H21.7883L20.1483 241.04H18.7683ZM30.6723 253.3C27.8323 253.3 26.2523 251.96 26.0923 249.64H27.7523C27.9723 251.44 29.1723 251.94 30.7123 251.94C32.4123 251.94 33.1123 251.2 33.1123 250.24C33.1123 249.08 32.3123 248.78 30.4123 248.38C28.3723 247.96 26.5523 247.54 26.5523 245.28C26.5523 243.56 27.8723 242.44 30.2723 242.44C32.8323 242.44 34.0923 243.66 34.3323 245.68H32.6723C32.5123 244.32 31.7723 243.72 30.2323 243.72C28.7523 243.72 28.1523 244.38 28.1523 245.2C28.1523 246.32 29.1523 246.54 30.9323 246.9C33.0123 247.32 34.7523 247.78 34.7523 250.16C34.7523 252.24 33.0523 253.3 30.6723 253.3ZM41.9184 253.28C38.7584 253.28 36.9184 250.84 36.9184 247.84C36.9184 244.84 38.8784 242.4 41.8184 242.4C44.9184 242.4 46.5784 244.8 46.5784 248.22H38.5784C38.6984 250.32 39.8384 251.92 41.9184 251.92C43.4184 251.92 44.4184 251.2 44.7784 249.8H46.3584C45.8784 252.02 44.2584 253.28 41.9184 253.28ZM41.8184 243.68C39.8984 243.68 38.8584 245.12 38.6184 247H44.8384C44.7384 244.94 43.6784 243.68 41.8184 243.68ZM57.2825 253.1C56.2225 253.1 55.6625 252.62 55.5025 251.56H55.4825C54.8625 252.36 53.8025 253.2 52.0425 253.2C50.0825 253.2 48.5425 252.28 48.5425 250.32C48.5425 247.88 50.4625 247.38 53.0425 246.98C54.5025 246.76 55.5225 246.62 55.5225 245.5C55.5225 244.34 54.6825 243.68 53.2025 243.68C51.5225 243.68 50.6825 244.4 50.6225 245.96H49.0625C49.1225 243.96 50.4425 242.46 53.1825 242.46C55.3825 242.46 57.0025 243.28 57.0025 245.74V250.66C57.0025 251.5 57.2025 251.96 58.1025 251.76H58.1625V252.94C57.9625 253.02 57.7025 253.1 57.2825 253.1ZM52.4025 251.96C54.5625 251.96 55.5425 250.38 55.5425 249.18V247.42C55.0025 247.76 54.0625 248.02 53.1825 248.18C51.5625 248.48 50.2625 248.76 50.2625 250.28C50.2625 251.66 51.3425 251.96 52.4025 251.96ZM68.5578 253H66.9378V251.58H66.8978C66.1578 252.58 65.2778 253.24 63.7778 253.24C61.6578 253.24 60.2978 251.96 60.2978 249.82V242.66H61.9178V249.78C61.9178 251.12 62.7778 251.9 64.2378 251.9C65.8778 251.9 66.9378 250.66 66.9378 249.02V242.66H68.5578V253ZM70.7684 253L74.6684 247.58L71.2284 242.66H73.1084L75.5684 246.42H75.6084L78.1684 242.66H79.9484L76.5484 247.4L80.5884 253H78.6884L75.6284 248.56H75.5884L72.5884 253H70.7684ZM90.9106 253.3C88.0706 253.3 86.4906 251.96 86.3306 249.64H87.9906C88.2106 251.44 89.4106 251.94 90.9506 251.94C92.6506 251.94 93.3506 251.2 93.3506 250.24C93.3506 249.08 92.5506 248.78 90.6506 248.38C88.6106 247.96 86.7906 247.54 86.7906 245.28C86.7906 243.56 88.1106 242.44 90.5106 242.44C93.0706 242.44 94.3306 243.66 94.5706 245.68H92.9106C92.7506 244.32 92.0106 243.72 90.4706 243.72C88.9906 243.72 88.3906 244.38 88.3906 245.2C88.3906 246.32 89.3906 246.54 91.1706 246.9C93.2506 247.32 94.9906 247.78 94.9906 250.16C94.9906 252.24 93.2906 253.3 90.9106 253.3ZM102.157 253.28C99.0767 253.28 97.1567 250.84 97.1567 247.84C97.1567 244.84 99.0767 242.4 102.157 242.4C105.257 242.4 107.137 244.84 107.137 247.84C107.137 250.84 105.257 253.28 102.157 253.28ZM102.157 251.92C104.357 251.92 105.477 250.12 105.477 247.84C105.477 245.56 104.357 243.74 102.157 243.74C99.9567 243.74 98.8167 245.56 98.8167 247.84C98.8167 250.12 99.9567 251.92 102.157 251.92ZM114.172 253.28C111.092 253.28 109.172 250.84 109.172 247.84C109.172 244.84 111.092 242.4 114.172 242.4C116.612 242.4 118.232 243.8 118.592 246H116.952C116.712 244.6 115.732 243.74 114.172 243.74C111.972 243.74 110.832 245.56 110.832 247.84C110.832 250.12 111.972 251.92 114.172 251.92C115.852 251.92 116.852 250.96 116.992 249.36H118.592C118.372 251.84 116.752 253.28 114.172 253.28ZM121.123 253V242.66H122.743V253H121.123ZM121.123 240.7V238.7H122.743V240.7H121.123ZM134.072 253.1C133.012 253.1 132.452 252.62 132.292 251.56H132.272C131.652 252.36 130.592 253.2 128.832 253.2C126.872 253.2 125.332 252.28 125.332 250.32C125.332 247.88 127.252 247.38 129.832 246.98C131.292 246.76 132.312 246.62 132.312 245.5C132.312 244.34 131.472 243.68 129.992 243.68C128.312 243.68 127.472 244.4 127.412 245.96H125.852C125.912 243.96 127.232 242.46 129.972 242.46C132.172 242.46 133.792 243.28 133.792 245.74V250.66C133.792 251.5 133.992 251.96 134.892 251.76H134.952V252.94C134.752 253.02 134.492 253.1 134.072 253.1ZM129.192 251.96C131.352 251.96 132.332 250.38 132.332 249.18V247.42C131.792 247.76 130.852 248.02 129.972 248.18C128.352 248.48 127.052 248.76 127.052 250.28C127.052 251.66 128.132 251.96 129.192 251.96ZM145.347 253H143.727V251.58H143.687C142.947 252.58 142.067 253.24 140.567 253.24C138.447 253.24 137.087 251.96 137.087 249.82V242.66H138.707V249.78C138.707 251.12 139.567 251.9 141.027 251.9C142.667 251.9 143.727 250.66 143.727 249.02V242.66H145.347V253ZM147.558 253L151.458 247.58L148.018 242.66H149.898L152.358 246.42H152.398L154.958 242.66H156.738L153.338 247.4L157.378 253H155.478L152.418 248.56H152.378L149.378 253H147.558ZM1.34 276V261.7H6.54C10.84 261.7 12.88 264.62 12.88 268.9C12.88 273.18 10.7 276 6.4 276H1.34ZM3.14 274.42H6.34C9.7 274.42 11.04 272.26 11.04 268.9C11.04 265.54 9.84 263.26 6.48 263.26H3.14V274.42ZM20.1919 276.28C17.0319 276.28 15.1919 273.84 15.1919 270.84C15.1919 267.84 17.1519 265.4 20.0919 265.4C23.1919 265.4 24.8519 267.8 24.8519 271.22H16.8519C16.9719 273.32 18.1119 274.92 20.1919 274.92C21.6919 274.92 22.6919 274.2 23.0519 272.8H24.6319C24.1519 275.02 22.5319 276.28 20.1919 276.28ZM20.0919 266.68C18.1719 266.68 17.1319 268.12 16.8919 270H23.1119C23.0119 267.94 21.9519 266.68 20.0919 266.68ZM31.3559 276.3C28.5159 276.3 26.9359 274.96 26.7759 272.64H28.4359C28.6559 274.44 29.8559 274.94 31.3959 274.94C33.0959 274.94 33.7959 274.2 33.7959 273.24C33.7959 272.08 32.9959 271.78 31.0959 271.38C29.0559 270.96 27.2359 270.54 27.2359 268.28C27.2359 266.56 28.5559 265.44 30.9559 265.44C33.5159 265.44 34.7759 266.66 35.0159 268.68H33.3559C33.1959 267.32 32.4559 266.72 30.9159 266.72C29.4359 266.72 28.8359 267.38 28.8359 268.2C28.8359 269.32 29.8359 269.54 31.6159 269.9C33.6959 270.32 35.4359 270.78 35.4359 273.16C35.4359 275.24 33.7359 276.3 31.3559 276.3ZM37.9867 276V265.66H39.6067V276H37.9867ZM37.9867 263.7V261.7H39.6067V263.7H37.9867ZM46.9348 279.44C44.2548 279.44 42.7348 278.36 42.5548 276.58H44.0548C44.2148 277.72 45.2948 278.16 46.8948 278.16C48.7948 278.16 49.8548 277.3 49.8548 275.5V274.04H49.8148C49.0548 275.02 48.2348 275.64 46.7548 275.64C44.0748 275.64 42.2348 273.5 42.2348 270.52C42.2348 267.3 44.2548 265.42 46.6548 265.42C48.1548 265.42 49.1148 266 49.8148 266.98H49.8548V265.66H51.4748V275.44C51.4748 278.16 49.6748 279.44 46.9348 279.44ZM46.8348 274.28C49.2148 274.28 49.9748 272.62 49.9748 270.44C49.9748 268.18 49.0148 266.78 46.8148 266.78C44.8748 266.78 43.8948 268.3 43.8948 270.54C43.8948 272.8 44.9148 274.28 46.8348 274.28ZM56.2942 265.66V267.02H56.3342C57.0742 266.04 58.1142 265.42 59.6142 265.42C61.7742 265.42 63.0942 266.6 63.0942 268.74V276H61.4742V268.88C61.4742 267.54 60.5942 266.78 59.1342 266.78C57.4942 266.78 56.2942 267.94 56.2942 269.64V276H54.6742V265.66H56.2942ZM6.58 299.22C3.46 299.22 1.1 297.84 1.1 294.38V284.7H2.9V294.2C2.9 296.64 4.28 297.68 6.64 297.68C8.9 297.68 10.26 296.64 10.26 294.2V284.7H12.06V294.38C12.06 297.84 9.64 299.22 6.58 299.22ZM14.2841 299L18.1841 293.58L14.7441 288.66H16.6241L19.0841 292.42H19.1241L21.6841 288.66H23.4641L20.0641 293.4L24.1041 299H22.2041L19.1441 294.56H19.1041L16.1041 299H14.2841ZM29.7263 299L35.4063 284.7H37.0863L31.4063 299H29.7263ZM49.1777 299.22C46.0577 299.22 43.6977 297.84 43.6977 294.38V284.7H45.4977V294.2C45.4977 296.64 46.8777 297.68 49.2377 297.68C51.4977 297.68 52.8577 296.64 52.8577 294.2V284.7H54.6577V294.38C54.6577 297.84 52.2377 299.22 49.1777 299.22ZM57.8617 299V288.66H59.4817V299H57.8617ZM57.8617 286.7V284.7H59.4817V286.7H57.8617Z" fill="#FFFFF0"/>
<path d="M133.25 47.75C124.4 47.75 119.85 42.85 119.75 35.35H126.25C126.5 39.45 128.3 42.3 133 42.3C136.8 42.3 139.05 40.25 139.05 36.75C139.05 33.45 136.95 31.45 132.75 31.45H130.65V26.3H132.6C135.85 26.3 138.15 24.65 138.15 21.75C138.15 19.05 136.3 17.25 133.3 17.25C129.4 17.25 127.5 19.8 127.35 23.35H120.85C121.1 16.6 125.35 12.05 133.3 12.05C140.45 12.05 145.05 15.6 145.05 21.3C145.05 25.15 142.6 27.4 139.2 28.5V28.6C143.55 29.65 146.15 32.45 146.15 37.2C146.15 44.3 140.3 47.75 133.25 47.75Z" fill="#FFFFF0"/>
<defs>
<filter id="filter0_f_189_6" x="71.5" y="329.5" width="107" height="7" filterUnits="userSpaceOnUse" color-interpolation-filters="sRGB">
<feFlood flood-opacity="0" result="BackgroundImageFix"/>
<feBlend mode="normal" in="SourceGraphic" in2="BackgroundImageFix" result="shape"/>
<feGaussianBlur stdDeviation="0.5" result="effect1_foregroundBlur_189_6"/>
</filter>
</defs>
</svg>
