<svg width="250" height="385" viewBox="0 0 250 385" fill="none" xmlns="http://www.w3.org/2000/svg">
<circle cx="125" cy="42" r="15" fill="#E72964"/>
<g filter="url(#filter0_f_189_5)">
<path d="M175 335L75 335" stroke="#E72964" stroke-width="5" stroke-linecap="round"/>
</g>
<path d="M1.1 119V104.7H4V116.58H10.72V119H1.1ZM12.2758 122.36V120.22H13.2358C14.3158 120.22 14.7558 119.66 14.7558 118.82C14.7558 118.26 14.5558 117.6 13.9758 116.04L11.2158 108.74H14.0758L15.5958 113.36C15.9158 114.3 16.2558 115.6 16.2558 115.6H16.2958C16.2958 115.6 16.5758 114.3 16.8958 113.36L18.3358 108.74H21.0758L17.4958 119.26C16.7158 121.54 15.9558 122.36 13.8758 122.36H12.2758ZM27.4642 119.3C24.2242 119.3 22.2042 116.94 22.2042 113.88C22.2042 110.82 24.2042 108.46 27.3242 108.46C29.9842 108.46 31.6242 110 31.9842 112.22H29.3242C29.1442 111.32 28.4442 110.64 27.4442 110.64C25.8042 110.64 24.9642 111.9 24.9642 113.88C24.9642 115.82 25.7442 117.12 27.4042 117.12C28.5042 117.12 29.2842 116.54 29.4642 115.38H32.0842C31.9042 117.56 30.2042 119.3 27.4642 119.3ZM39.0906 119.3C35.6906 119.3 33.7706 116.92 33.7706 113.86C33.7706 110.82 35.8306 108.46 38.8306 108.46C42.1306 108.46 43.8906 110.98 43.8906 114.64H36.4506C36.6506 116.22 37.5306 117.2 39.0706 117.2C40.1306 117.2 40.7506 116.72 41.0506 115.94H43.7306C43.3506 117.76 41.7306 119.3 39.0906 119.3ZM38.8706 110.56C37.4306 110.56 36.7306 111.42 36.4906 112.76H41.0506C40.9706 111.46 40.1106 110.56 38.8706 110.56ZM42.0306 104.64L39.8706 107.46H37.7506L38.8506 104.64H42.0306ZM50.9695 119.3C47.5695 119.3 45.6495 116.92 45.6495 113.86C45.6495 110.82 47.7095 108.46 50.7095 108.46C54.0095 108.46 55.7695 110.98 55.7695 114.64H48.3295C48.5295 116.22 49.4095 117.2 50.9495 117.2C52.0095 117.2 52.6295 116.72 52.9295 115.94H55.6095C55.2295 117.76 53.6095 119.3 50.9695 119.3ZM50.7495 110.56C49.3095 110.56 48.6095 111.42 48.3695 112.76H52.9295C52.8495 111.46 51.9895 110.56 50.7495 110.56ZM62.6078 119V104.7H68.8878C70.5478 104.7 71.7878 105.18 72.6278 106.04C73.4278 106.86 73.9078 107.98 73.9078 109.3C73.9078 112 72.1278 113.82 69.1278 113.82H65.6078V119H62.6078ZM65.6078 107.22V111.46H68.6078C70.1278 111.46 70.9278 110.62 70.9278 109.32C70.9278 107.98 70.0878 107.22 68.6478 107.22H65.6078ZM80.6892 119.3C77.5092 119.3 75.3292 116.94 75.3292 113.88C75.3292 110.82 77.5092 108.46 80.6892 108.46C83.8692 108.46 86.0492 110.82 86.0492 113.88C86.0492 116.94 83.8692 119.3 80.6892 119.3ZM80.6892 117.22C82.3492 117.22 83.2892 115.88 83.2892 113.88C83.2892 111.88 82.3492 110.52 80.6892 110.52C79.0092 110.52 78.0892 111.88 78.0892 113.88C78.0892 115.88 79.0092 117.22 80.6892 117.22ZM88.3536 119V104.7H91.0736V119H88.3536ZM94.0844 122.36V120.22H95.0444C96.1244 120.22 96.5644 119.66 96.5644 118.82C96.5644 118.26 96.3644 117.6 95.7844 116.04L93.0244 108.74H95.8844L97.4044 113.36C97.7244 114.3 98.0644 115.6 98.0644 115.6H98.1044C98.1044 115.6 98.3844 114.3 98.7044 113.36L100.144 108.74H102.884L99.3044 119.26C98.5244 121.54 97.7644 122.36 95.6844 122.36H94.0844ZM107.819 119L104.259 108.74H107.019L108.659 114.06C108.959 115.04 109.119 115.7 109.119 115.7H109.159C109.159 115.7 109.299 115.04 109.599 114.06L111.279 108.74H113.999L110.419 119H107.819ZM122.09 119C121.93 118.8 121.83 118.32 121.77 117.86H121.73C121.21 118.64 120.47 119.24 118.71 119.24C116.61 119.24 115.13 118.14 115.13 116.1C115.13 113.84 116.97 113.12 119.25 112.8C120.95 112.56 121.73 112.42 121.73 111.64C121.73 110.9 121.15 110.42 120.01 110.42C118.73 110.42 118.11 110.88 118.03 111.86H115.61C115.69 110.06 117.03 108.48 120.03 108.48C123.11 108.48 124.35 109.86 124.35 112.26V117.48C124.35 118.26 124.47 118.72 124.71 118.9V119H122.09ZM119.37 117.34C120.93 117.34 121.79 116.38 121.79 115.38V113.84C121.31 114.12 120.57 114.28 119.89 114.44C118.47 114.76 117.77 115.08 117.77 116.04C117.77 117 118.41 117.34 119.37 117.34ZM127.119 119V104.7H129.839V119H127.119ZM137.45 119.3C134.05 119.3 132.13 116.92 132.13 113.86C132.13 110.82 134.19 108.46 137.19 108.46C140.49 108.46 142.25 110.98 142.25 114.64H134.81C135.01 116.22 135.89 117.2 137.43 117.2C138.49 117.2 139.11 116.72 139.41 115.94H142.09C141.71 117.76 140.09 119.3 137.45 119.3ZM137.23 110.56C135.79 110.56 135.09 111.42 134.85 112.76H139.41C139.33 111.46 138.47 110.56 137.23 110.56ZM147.169 108.74V110.14H147.229C147.929 109.04 148.869 108.46 150.269 108.46C152.389 108.46 153.809 110.06 153.809 112.3V119H151.089V112.7C151.089 111.6 150.449 110.82 149.309 110.82C148.109 110.82 147.229 111.78 147.229 113.18V119H144.509V108.74H147.169ZM155.69 110.54V108.74H157.11V105.54H159.77V108.74H161.53V110.54H159.77V115.98C159.77 116.74 160.19 117 160.79 117C161.13 117 161.59 116.98 161.59 116.98V118.98C161.59 118.98 160.97 119.02 159.89 119.02C158.57 119.02 157.11 118.5 157.11 116.56V110.54H155.69ZM174.77 119.3C170.75 119.3 167.89 116.2 167.89 111.9C167.89 107.66 170.53 104.42 174.75 104.42C178.27 104.42 180.35 106.52 180.65 109.24H177.77C177.51 107.8 176.43 106.86 174.75 106.86C172.11 106.86 170.85 109.06 170.85 111.9C170.85 114.82 172.37 116.92 174.77 116.92C176.47 116.92 177.67 115.9 177.85 114.4H180.69C180.61 115.66 180.07 116.88 179.11 117.78C178.13 118.7 176.75 119.3 174.77 119.3ZM185.682 104.7V110.08H185.742C186.482 109 187.322 108.46 188.722 108.46C190.842 108.46 192.262 110.06 192.262 112.3V119H189.542V112.7C189.542 111.6 188.902 110.82 187.762 110.82C186.562 110.82 185.682 111.78 185.682 113.18V119H182.962V104.7H185.682ZM201.399 119C201.239 118.8 201.139 118.32 201.079 117.86H201.039C200.519 118.64 199.779 119.24 198.019 119.24C195.919 119.24 194.439 118.14 194.439 116.1C194.439 113.84 196.279 113.12 198.559 112.8C200.259 112.56 201.039 112.42 201.039 111.64C201.039 110.9 200.459 110.42 199.319 110.42C198.039 110.42 197.419 110.88 197.339 111.86H194.919C194.999 110.06 196.339 108.48 199.339 108.48C202.419 108.48 203.659 109.86 203.659 112.26V117.48C203.659 118.26 203.779 118.72 204.019 118.9V119H201.399ZM198.679 117.34C200.239 117.34 201.099 116.38 201.099 115.38V113.84C200.619 114.12 199.879 114.28 199.199 114.44C197.779 114.76 197.079 115.08 197.079 116.04C197.079 117 197.719 117.34 198.679 117.34ZM206.388 122.36V108.74H209.008V110.02H209.068C209.728 109.12 210.688 108.46 212.088 108.46C214.808 108.46 216.548 110.68 216.548 113.88C216.548 117.2 214.748 119.3 212.108 119.3C210.668 119.3 209.728 118.72 209.148 117.84H209.108V122.36H206.388ZM211.528 117.04C212.908 117.04 213.788 115.9 213.788 113.96C213.788 112.02 213.108 110.66 211.428 110.66C209.728 110.66 209.048 112.12 209.048 113.96C209.048 115.82 209.908 117.04 211.528 117.04ZM217.921 110.54V108.74H219.341V105.54H222.001V108.74H223.761V110.54H222.001V115.98C222.001 116.74 222.421 117 223.021 117C223.361 117 223.821 116.98 223.821 116.98V118.98C223.821 118.98 223.201 119.02 222.121 119.02C220.801 119.02 219.341 118.5 219.341 116.56V110.54H217.921ZM232.719 119C232.559 118.8 232.459 118.32 232.399 117.86H232.359C231.839 118.64 231.099 119.24 229.339 119.24C227.239 119.24 225.759 118.14 225.759 116.1C225.759 113.84 227.599 113.12 229.879 112.8C231.579 112.56 232.359 112.42 232.359 111.64C232.359 110.9 231.779 110.42 230.639 110.42C229.359 110.42 228.739 110.88 228.659 111.86H226.239C226.319 110.06 227.659 108.48 230.659 108.48C233.739 108.48 234.979 109.86 234.979 112.26V117.48C234.979 118.26 235.099 118.72 235.339 118.9V119H232.719ZM229.999 117.34C231.559 117.34 232.419 116.38 232.419 115.38V113.84C231.939 114.12 231.199 114.28 230.519 114.44C229.099 114.76 228.399 115.08 228.399 116.04C228.399 117 229.039 117.34 229.999 117.34ZM237.748 119V104.7H240.468V119H237.748ZM1.34 165V150.7H7.4C8.9 150.7 10.04 151.1 10.84 151.94C11.42 152.54 11.76 153.36 11.76 154.38C11.76 155.96 10.88 156.94 9.46 157.38V157.44C11.08 157.82 12.34 158.98 12.34 160.9C12.34 162 11.96 162.94 11.3 163.64C10.5 164.5 9.26 165 7.72 165H1.34ZM3.14 163.38H7.64C8.66 163.38 9.4 163.12 9.88 162.66C10.28 162.24 10.52 161.68 10.52 161C10.52 159.22 9.26 158.34 7.52 158.34H3.14V163.38ZM3.14 156.82H7.18C8.92 156.82 9.96 155.96 9.96 154.48C9.96 153.1 9.02 152.26 7.42 152.26H3.14V156.82ZM23.0911 165.1C22.0311 165.1 21.4711 164.62 21.3111 163.56H21.2911C20.6711 164.36 19.6111 165.2 17.8511 165.2C15.8911 165.2 14.3511 164.28 14.3511 162.32C14.3511 159.88 16.2711 159.38 18.8511 158.98C20.3111 158.76 21.3311 158.62 21.3311 157.5C21.3311 156.34 20.4911 155.68 19.0111 155.68C17.3311 155.68 16.4911 156.4 16.4311 157.96H14.8711C14.9311 155.96 16.2511 154.46 18.9911 154.46C21.1911 154.46 22.8111 155.28 22.8111 157.74V162.66C22.8111 163.5 23.0111 163.96 23.9111 163.76H23.9711V164.94C23.7711 165.02 23.5111 165.1 23.0911 165.1ZM18.2111 163.96C20.3711 163.96 21.3511 162.38 21.3511 161.18V159.42C20.8111 159.76 19.8711 160.02 18.9911 160.18C17.3711 160.48 16.0711 160.76 16.0711 162.28C16.0711 163.66 17.1511 163.96 18.2111 163.96ZM30.5864 165.28C27.5064 165.28 25.5864 162.84 25.5864 159.84C25.5864 156.84 27.5064 154.4 30.5864 154.4C33.0264 154.4 34.6464 155.8 35.0064 158H33.3664C33.1264 156.6 32.1464 155.74 30.5864 155.74C28.3864 155.74 27.2464 157.56 27.2464 159.84C27.2464 162.12 28.3864 163.92 30.5864 163.92C32.2664 163.92 33.2664 162.96 33.4064 161.36H35.0064C34.7864 163.84 33.1664 165.28 30.5864 165.28ZM47.1611 165.28C43.1411 165.28 41.2211 163.04 41.0611 160.16H42.8211C43.0611 162.58 44.5411 163.84 47.2411 163.84C49.2211 163.84 50.6411 162.94 50.6411 161.16C50.6411 159.2 48.9211 158.74 46.3611 158.18C43.8411 157.62 41.6811 156.9 41.6811 154.2C41.6811 151.84 43.6411 150.42 46.5411 150.42C50.1211 150.42 51.6011 152.24 51.9611 154.88H50.2611C50.0011 152.84 48.6811 151.82 46.5811 151.82C44.6411 151.82 43.3611 152.64 43.3611 154.12C43.3611 155.74 44.9611 156.22 47.1011 156.64C49.8811 157.2 52.4211 157.88 52.4211 161.1C52.4211 163.78 50.2411 165.28 47.1611 165.28ZM53.8775 152.28V150.7H65.1975V152.28H60.4375V165H58.6375V152.28H53.8775ZM68.0245 165V150.7H69.8245V165H68.0245ZM72.8153 165C72.9753 161.34 75.5553 160 77.9553 158.62C79.7553 157.58 80.8553 156.88 80.8553 155.22C80.8553 153.54 79.6953 152.4 77.8753 152.4C76.9153 152.4 76.1953 152.72 75.6953 153.26C75.1553 153.84 74.9153 154.6 74.9153 156H73.1553C73.1553 154.24 73.6153 153.12 74.4553 152.28C75.3353 151.42 76.6153 151 78.0153 151C80.7953 151 82.5953 152.76 82.5953 155.2C82.5953 157.84 80.7953 158.72 78.5953 159.94C77.1153 160.76 75.2153 161.88 74.8353 163.4H82.3153V165H72.8153ZM85.6486 165V150.7H90.8486C95.1486 150.7 97.1886 153.62 97.1886 157.9C97.1886 162.18 95.0086 165 90.7086 165H85.6486ZM87.4486 163.42H90.6486C94.0086 163.42 95.3486 161.26 95.3486 157.9C95.3486 154.54 94.1486 152.26 90.7886 152.26H87.4486V163.42ZM108.184 165.3C105.344 165.3 103.764 163.96 103.604 161.64H105.264C105.484 163.44 106.684 163.94 108.224 163.94C109.924 163.94 110.624 163.2 110.624 162.24C110.624 161.08 109.824 160.78 107.924 160.38C105.884 159.96 104.064 159.54 104.064 157.28C104.064 155.56 105.384 154.44 107.784 154.44C110.344 154.44 111.604 155.66 111.844 157.68H110.184C110.024 156.32 109.284 155.72 107.744 155.72C106.264 155.72 105.664 156.38 105.664 157.2C105.664 158.32 106.664 158.54 108.444 158.9C110.524 159.32 112.264 159.78 112.264 162.16C112.264 164.24 110.564 165.3 108.184 165.3ZM114.815 168.32V154.66H116.435V156.12H116.475C117.255 155.06 118.295 154.42 119.795 154.42C122.415 154.42 124.235 156.42 124.235 159.86C124.235 163.18 122.535 165.3 119.735 165.3C118.335 165.3 117.335 164.88 116.475 163.78H116.435V168.32H114.815ZM119.615 163.94C121.595 163.94 122.575 162.22 122.575 159.88C122.575 157.56 121.595 155.8 119.635 155.8C117.375 155.8 116.335 157.64 116.335 159.88C116.335 162.12 117.235 163.94 119.615 163.94ZM131.27 165.28C128.11 165.28 126.27 162.84 126.27 159.84C126.27 156.84 128.23 154.4 131.17 154.4C134.27 154.4 135.93 156.8 135.93 160.22H127.93C128.05 162.32 129.19 163.92 131.27 163.92C132.77 163.92 133.77 163.2 134.13 161.8H135.71C135.23 164.02 133.61 165.28 131.27 165.28ZM131.17 155.68C129.25 155.68 128.21 157.12 127.97 159H134.19C134.09 156.94 133.03 155.68 131.17 155.68ZM130.53 153.04L131.55 150.5H133.55L131.91 153.04H130.53ZM148.138 165.28C144.118 165.28 142.198 163.04 142.038 160.16H143.798C144.038 162.58 145.518 163.84 148.218 163.84C150.198 163.84 151.618 162.94 151.618 161.16C151.618 159.2 149.898 158.74 147.338 158.18C144.818 157.62 142.658 156.9 142.658 154.2C142.658 151.84 144.618 150.42 147.518 150.42C151.098 150.42 152.578 152.24 152.938 154.88H151.238C150.978 152.84 149.658 151.82 147.558 151.82C145.618 151.82 144.338 152.64 144.338 154.12C144.338 155.74 145.938 156.22 148.078 156.64C150.858 157.2 153.398 157.88 153.398 161.1C153.398 163.78 151.218 165.28 148.138 165.28ZM156.497 165V150.7H158.297V165H156.497ZM162.008 165V150.7H163.908L170.428 160.64C170.908 161.38 171.468 162.48 171.468 162.48H171.508V150.7H173.188V165H171.348L164.788 155.04C164.328 154.34 163.728 153.26 163.728 153.26H163.688V165H162.008ZM1.38 234V219.7H3.18V234H1.38ZM8.27078 223.66V225.02H8.31078C9.05078 224.04 10.0908 223.42 11.5908 223.42C13.7508 223.42 15.0708 224.6 15.0708 226.74V234H13.4508V226.88C13.4508 225.54 12.5708 224.78 11.1108 224.78C9.47078 224.78 8.27078 225.94 8.27078 227.64V234H6.65078V223.66H8.27078ZM22.3372 237.44C19.6572 237.44 18.1372 236.36 17.9572 234.58H19.4572C19.6172 235.72 20.6972 236.16 22.2972 236.16C24.1972 236.16 25.2572 235.3 25.2572 233.5V232.04H25.2172C24.4572 233.02 23.6372 233.64 22.1572 233.64C19.4772 233.64 17.6372 231.5 17.6372 228.52C17.6372 225.3 19.6572 223.42 22.0572 223.42C23.5572 223.42 24.5172 224 25.2172 224.98H25.2572V223.66H26.8772V233.44C26.8772 236.16 25.0772 237.44 22.3372 237.44ZM22.2372 232.28C24.6172 232.28 25.3772 230.62 25.3772 228.44C25.3772 226.18 24.4172 224.78 22.2172 224.78C20.2772 224.78 19.2972 226.3 19.2972 228.54C19.2972 230.8 20.3172 232.28 22.2372 232.28ZM34.4966 234.28C31.3366 234.28 29.4966 231.84 29.4966 228.84C29.4966 225.84 31.4566 223.4 34.3966 223.4C37.4966 223.4 39.1566 225.8 39.1566 229.22H31.1566C31.2766 231.32 32.4166 232.92 34.4966 232.92C35.9966 232.92 36.9966 232.2 37.3566 230.8H38.9366C38.4566 233.02 36.8366 234.28 34.4966 234.28ZM34.3966 224.68C32.4766 224.68 31.4366 226.12 31.1966 228H37.4166C37.3166 225.94 36.2566 224.68 34.3966 224.68ZM33.7566 222.04L34.7766 219.5H36.7766L35.1366 222.04H33.7566ZM43.3606 223.66V225.02H43.4006C44.1406 224.04 45.1806 223.42 46.6806 223.42C48.8406 223.42 50.1606 224.6 50.1606 226.74V234H48.5406V226.88C48.5406 225.54 47.6606 224.78 46.2006 224.78C44.5606 224.78 43.3606 225.94 43.3606 227.64V234H41.7406V223.66H43.3606ZM53.307 234V223.66H54.927V234H53.307ZM53.307 221.7V219.7H54.927V221.7H53.307ZM62.5552 234.28C59.3952 234.28 57.5552 231.84 57.5552 228.84C57.5552 225.84 59.5152 223.4 62.4552 223.4C65.5552 223.4 67.2152 225.8 67.2152 229.22H59.2152C59.3352 231.32 60.4752 232.92 62.5552 232.92C64.0552 232.92 65.0552 232.2 65.4152 230.8H66.9952C66.5152 233.02 64.8952 234.28 62.5552 234.28ZM62.4552 224.68C60.5352 224.68 59.4952 226.12 59.2552 228H65.4752C65.3752 225.94 64.3152 224.68 62.4552 224.68ZM71.4192 223.66V225.38H71.4592C72.0792 224.38 73.1592 223.54 74.5392 223.54C74.8392 223.54 74.9992 223.58 75.1992 223.66V225.22H75.1392C74.8992 225.14 74.7392 225.12 74.4192 225.12C72.8192 225.12 71.4192 226.32 71.4192 228.26V234H69.7992V223.66H71.4192ZM77.6547 234V223.66H79.2747V234H77.6547ZM77.6547 221.7V219.7H79.2747V221.7H77.6547ZM86.9028 234.28C83.7428 234.28 81.9028 231.84 81.9028 228.84C81.9028 225.84 83.8628 223.4 86.8028 223.4C89.9028 223.4 91.5628 225.8 91.5628 229.22H83.5628C83.6828 231.32 84.8228 232.92 86.9028 232.92C88.4028 232.92 89.4028 232.2 89.7628 230.8H91.3428C90.8628 233.02 89.2428 234.28 86.9028 234.28ZM86.8028 224.68C84.8828 224.68 83.8428 226.12 83.6028 228H89.8228C89.7228 225.94 88.6628 224.68 86.8028 224.68ZM1.38 257V242.7H3.18V257H1.38ZM8.27078 246.66V248.02H8.31078C9.05078 247.04 10.0908 246.42 11.5908 246.42C13.7508 246.42 15.0708 247.6 15.0708 249.74V257H13.4508V249.88C13.4508 248.54 12.5708 247.78 11.1108 247.78C9.47078 247.78 8.27078 248.94 8.27078 250.64V257H6.65078V246.66H8.27078ZM17.4595 247.98V246.66H18.8795V245C18.8795 243.22 19.8995 242.58 21.6195 242.58C21.9595 242.58 22.2195 242.6 22.4395 242.62V244C22.1595 243.98 22.0795 243.98 21.9195 243.98C20.8795 243.98 20.4995 244.24 20.4995 245.08V246.66H22.4195V247.98H20.4995V257H18.8795V247.98H17.4595ZM29.1255 257.28C26.0455 257.28 24.1255 254.84 24.1255 251.84C24.1255 248.84 26.0455 246.4 29.1255 246.4C32.2255 246.4 34.1055 248.84 34.1055 251.84C34.1055 254.84 32.2255 257.28 29.1255 257.28ZM29.1255 255.92C31.3255 255.92 32.4455 254.12 32.4455 251.84C32.4455 249.56 31.3255 247.74 29.1255 247.74C26.9255 247.74 25.7855 249.56 25.7855 251.84C25.7855 254.12 26.9255 255.92 29.1255 255.92ZM38.3411 246.66V248.38H38.3811C39.0011 247.38 40.0811 246.54 41.4611 246.54C41.7611 246.54 41.9211 246.58 42.1211 246.66V248.22H42.0611C41.8211 248.14 41.6611 248.12 41.3411 248.12C39.7411 248.12 38.3411 249.32 38.3411 251.26V257H36.7211V246.66H38.3411ZM44.5766 257V246.66H46.1966V248.14H46.2366C46.8766 247.14 47.9766 246.42 49.2766 246.42C50.5366 246.42 51.5366 247.06 51.9766 248.26H52.0166C52.6766 247.08 53.9166 246.42 55.1766 246.42C57.0166 246.42 58.3166 247.6 58.3166 249.74V257H56.6966V249.82C56.6966 248.54 55.8366 247.78 54.7966 247.78C53.4566 247.78 52.2566 248.94 52.2566 250.56V257H50.6366V249.82C50.6366 248.54 49.9166 247.78 48.8566 247.78C47.5966 247.78 46.1966 248.94 46.1966 250.56V257H44.5766ZM69.5755 257.1C68.5155 257.1 67.9555 256.62 67.7955 255.56H67.7755C67.1555 256.36 66.0955 257.2 64.3355 257.2C62.3755 257.2 60.8355 256.28 60.8355 254.32C60.8355 251.88 62.7555 251.38 65.3355 250.98C66.7955 250.76 67.8155 250.62 67.8155 249.5C67.8155 248.34 66.9755 247.68 65.4955 247.68C63.8155 247.68 62.9755 248.4 62.9155 249.96H61.3555C61.4155 247.96 62.7355 246.46 65.4755 246.46C67.6755 246.46 69.2955 247.28 69.2955 249.74V254.66C69.2955 255.5 69.4955 255.96 70.3955 255.76H70.4555V256.94C70.2555 257.02 69.9955 257.1 69.5755 257.1ZM64.6955 255.96C66.8555 255.96 67.8355 254.38 67.8355 253.18V251.42C67.2955 251.76 66.3555 252.02 65.4755 252.18C63.8555 252.48 62.5555 252.76 62.5555 254.28C62.5555 255.66 63.6355 255.96 64.6955 255.96ZM71.7955 247.98V246.66H73.2955V243.4H74.9155V246.66H76.9155V247.98H74.9155V254.7C74.9155 255.42 75.2955 255.66 75.9555 255.66C76.2755 255.66 76.6355 255.58 76.8155 255.52H76.8755V256.92C76.4955 257 76.0555 257.06 75.5755 257.06C74.2555 257.06 73.2955 256.52 73.2955 255.06V247.98H71.7955ZM79.5883 257V246.66H81.2083V257H79.5883ZM79.5883 244.7V242.7H81.2083V244.7H79.5883ZM91.6364 260.32V255.74H91.5964C90.8164 256.74 89.8764 257.3 88.3964 257.3C85.5964 257.3 83.8964 255.18 83.8964 251.86C83.8964 248.42 85.8164 246.42 88.3364 246.42C89.8364 246.42 90.8764 247.02 91.5964 248.04H91.6364V246.66H93.2564V260.32H91.6364ZM88.4764 255.94C90.8564 255.94 91.7364 254.22 91.7364 251.88C91.7364 249.48 90.7164 247.8 88.4564 247.8C86.4964 247.8 85.5564 249.56 85.5564 251.88C85.5564 254.22 86.4964 255.94 88.4764 255.94ZM104.652 257H103.032V255.58H102.992C102.252 256.58 101.372 257.24 99.8716 257.24C97.7516 257.24 96.3916 255.96 96.3916 253.82V246.66H98.0116V253.78C98.0116 255.12 98.8716 255.9 100.332 255.9C101.972 255.9 103.032 254.66 103.032 253.02V246.66H104.652V257ZM112.262 257.28C109.102 257.28 107.262 254.84 107.262 251.84C107.262 248.84 109.222 246.4 112.162 246.4C115.262 246.4 116.922 248.8 116.922 252.22H108.922C109.042 254.32 110.182 255.92 112.262 255.92C113.762 255.92 114.762 255.2 115.122 253.8H116.702C116.222 256.02 114.602 257.28 112.262 257.28ZM112.162 247.68C110.242 247.68 109.202 249.12 108.962 251H115.182C115.082 248.94 114.022 247.68 112.162 247.68ZM1.34 280V265.7H8.02C10.54 265.7 12.24 267.28 12.24 269.62C12.24 271.36 11.48 272.6 9.76 273.16V273.22C11.22 273.74 11.68 274.74 11.82 276.86C11.98 279.16 12.22 279.74 12.48 279.92V280H10.54C10.24 279.74 10.18 279.2 10.02 276.8C9.88 274.7 9.04 273.96 7.12 273.96H3.14V280H1.34ZM3.14 267.26V272.5H7.38C9.38 272.5 10.38 271.5 10.38 269.88C10.38 268.14 9.58 267.26 7.48 267.26H3.14ZM19.5083 280.28C16.4283 280.28 14.5083 277.84 14.5083 274.84C14.5083 271.84 16.4283 269.4 19.5083 269.4C22.6083 269.4 24.4883 271.84 24.4883 274.84C24.4883 277.84 22.6083 280.28 19.5083 280.28ZM19.5083 278.92C21.7083 278.92 22.8283 277.12 22.8283 274.84C22.8283 272.56 21.7083 270.74 19.5083 270.74C17.3083 270.74 16.1683 272.56 16.1683 274.84C16.1683 277.12 17.3083 278.92 19.5083 278.92ZM32.0239 280.3C30.6239 280.3 29.6039 279.8 28.7639 278.64H28.7239V280H27.1039V265.7H28.7239V271.14H28.7639C29.5439 270.08 30.5839 269.42 32.0839 269.42C34.7039 269.42 36.4839 271.42 36.4839 274.86C36.4839 278.18 34.8239 280.3 32.0239 280.3ZM31.9039 278.94C33.8839 278.94 34.8239 277.22 34.8239 274.88C34.8239 272.56 33.8839 270.8 31.9239 270.8C29.6639 270.8 28.6239 272.64 28.6239 274.88C28.6239 277.2 29.7039 278.94 31.9039 278.94ZM43.52 280.28C40.44 280.28 38.52 277.84 38.52 274.84C38.52 271.84 40.44 269.4 43.52 269.4C46.62 269.4 48.5 271.84 48.5 274.84C48.5 277.84 46.62 280.28 43.52 280.28ZM43.52 278.92C45.72 278.92 46.84 277.12 46.84 274.84C46.84 272.56 45.72 270.74 43.52 270.74C41.32 270.74 40.18 272.56 40.18 274.84C40.18 277.12 41.32 278.92 43.52 278.92ZM50.2603 270.98V269.66H51.7603V266.4H53.3803V269.66H55.3803V270.98H53.3803V277.7C53.3803 278.42 53.7603 278.66 54.4203 278.66C54.7403 278.66 55.1003 278.58 55.2803 278.52H55.3403V279.92C54.9603 280 54.5203 280.06 54.0403 280.06C52.7203 280.06 51.7603 279.52 51.7603 278.06V270.98H50.2603ZM58.0531 280V269.66H59.6731V280H58.0531ZM58.0531 267.7V265.7H59.6731V267.7H58.0531ZM70.1013 283.32V278.74H70.0613C69.2813 279.74 68.3413 280.3 66.8613 280.3C64.0613 280.3 62.3613 278.18 62.3613 274.86C62.3613 271.42 64.2812 269.42 66.8013 269.42C68.3013 269.42 69.3413 270.02 70.0613 271.04H70.1013V269.66H71.7213V283.32H70.1013ZM66.9413 278.94C69.3213 278.94 70.2013 277.22 70.2013 274.88C70.2013 272.48 69.1813 270.8 66.9212 270.8C64.9613 270.8 64.0213 272.56 64.0213 274.88C64.0213 277.22 64.9613 278.94 66.9413 278.94ZM83.1164 280H81.4964V278.58H81.4564C80.7164 279.58 79.8364 280.24 78.3364 280.24C76.2164 280.24 74.8564 278.96 74.8564 276.82V269.66H76.4764V276.78C76.4764 278.12 77.3364 278.9 78.7964 278.9C80.4364 278.9 81.4964 277.66 81.4964 276.02V269.66H83.1164V280ZM90.727 280.28C87.567 280.28 85.727 277.84 85.727 274.84C85.727 271.84 87.687 269.4 90.627 269.4C93.727 269.4 95.387 271.8 95.387 275.22H87.387C87.507 277.32 88.647 278.92 90.727 278.92C92.227 278.92 93.227 278.2 93.587 276.8H95.167C94.687 279.02 93.067 280.28 90.727 280.28ZM90.627 270.68C88.707 270.68 87.667 272.12 87.427 274H93.647C93.547 271.94 92.487 270.68 90.627 270.68Z" fill="#FFFFF0"/>
<path d="M116.3 47C116.55 40.45 120.65 36.45 124.55 33.4C128.85 30 133.55 27.6 133.55 23.2C133.55 20 131.85 17.85 128.8 17.85C125.35 17.85 123.3 20.35 123.2 24.8H116.8C116.8 17 120.8 12.05 128.95 12.05C136.4 12.05 140.6 17.1 140.6 23C140.6 29.45 136.2 32.5 132 35.3C129.35 37 126.25 39.2 125.1 41.4H140.9V47H116.3Z" fill="#FFFFF0"/>
<defs>
<filter id="filter0_f_189_5" x="71.5" y="331.5" width="107" height="7" filterUnits="userSpaceOnUse" color-interpolation-filters="sRGB">
<feFlood flood-opacity="0" result="BackgroundImageFix"/>
<feBlend mode="normal" in="SourceGraphic" in2="BackgroundImageFix" result="shape"/>
<feGaussianBlur stdDeviation="0.5" result="effect1_foregroundBlur_189_5"/>
</filter>
</defs>
</svg>
