<svg xmlns="http://www.w3.org/2000/svg" width="250" height="383" fill="none"><circle cx="125" cy="40" r="15" fill="#E72964"/><path fill="ivory" d="M1.1 117v-14.3H4v11.88h6.72V117zm11.176 3.36v-2.14h.96c1.08 0 1.52-.56 1.52-1.4 0-.56-.2-1.22-.78-2.78l-2.76-7.3h2.86l1.52 4.62c.32.94.66 2.24.66 2.24h.04s.28-1.3.6-2.24l1.44-4.62h2.74l-3.58 10.52c-.78 2.28-1.54 3.1-3.62 3.1zm15.188-3.06c-3.24 0-5.26-2.36-5.26-5.42s2-5.42 5.12-5.42c2.66 0 4.3 1.54 4.66 3.76h-2.66c-.18-.9-.88-1.58-1.88-1.58-1.64 0-2.48 1.26-2.48 3.24 0 1.94.78 3.24 2.44 3.24 1.1 0 1.88-.58 2.06-1.74h2.62c-.18 2.18-1.88 3.92-4.62 3.92m11.627 0c-3.4 0-5.32-2.38-5.32-5.44 0-3.04 2.06-5.4 5.06-5.4 3.3 0 5.06 2.52 5.06 6.18h-7.44c.2 1.58 1.08 2.56 2.62 2.56 1.06 0 1.68-.48 1.98-1.26h2.68c-.38 1.82-2 3.36-4.64 3.36m-.22-8.74c-1.44 0-2.14.86-2.38 2.2h4.56c-.08-1.3-.94-2.2-2.18-2.2m3.16-5.92-2.16 2.82h-2.12l1.1-2.82zm8.938 14.66c-3.4 0-5.32-2.38-5.32-5.44 0-3.04 2.06-5.4 5.06-5.4 3.3 0 5.06 2.52 5.06 6.18h-7.44c.2 1.58 1.08 2.56 2.62 2.56 1.06 0 1.68-.48 1.98-1.26h2.68c-.38 1.82-2 3.36-4.64 3.36m-.22-8.74c-1.44 0-2.14.86-2.38 2.2h4.56c-.08-1.3-.94-2.2-2.18-2.2M62.609 117v-14.3h2.9v5.6h5.62v-5.6h2.9V117h-2.9v-6.3h-5.62v6.3zm19.213.3c-3.4 0-5.32-2.38-5.32-5.44 0-3.04 2.06-5.4 5.06-5.4 3.3 0 5.06 2.52 5.06 6.18h-7.44c.2 1.58 1.08 2.56 2.62 2.56 1.06 0 1.68-.48 1.98-1.26h2.68c-.38 1.82-2 3.36-4.64 3.36m-.22-8.74c-1.44 0-2.14.86-2.38 2.2h4.56c-.08-1.3-.94-2.2-2.18-2.2m9.939-1.82v1.4h.06c.7-1.1 1.64-1.68 3.04-1.68 2.12 0 3.54 1.6 3.54 3.84v6.7h-2.72v-6.3c0-1.1-.64-1.88-1.78-1.88-1.2 0-2.08.96-2.08 2.36V117h-2.72v-10.26zm11.937 0v1.64h.06c.62-1.16 1.32-1.76 2.52-1.76.3 0 .48.02.64.08v2.38h-.06c-1.78-.18-3.06.76-3.06 2.92v5h-2.72v-10.26zm5.391 10.26v-10.26h2.72V117zm0-11.86v-2.44h2.72v2.44zM117.88 117l4.98-14.3h3l5.04 14.3h-3.02l-.96-3.04h-5.16l-.94 3.04zm5.84-9.38-1.28 4.12h3.78l-1.28-4.12c-.24-.76-.58-2.2-.58-2.2h-.04s-.36 1.44-.6 2.2m10.888 9.38-3.56-10.26h2.76l1.64 5.32c.3.98.46 1.64.46 1.64h.04s.14-.66.44-1.64l1.68-5.32h2.72l-3.58 10.26zm10.724-10.26v1.64h.06c.62-1.16 1.32-1.76 2.52-1.76.3 0 .48.02.64.08v2.38h-.06c-1.78-.18-3.06.76-3.06 2.92v5h-2.72v-10.26zm5.392 10.26v-10.26h2.72V117zm0-11.86v-2.44h2.72v2.44zm5.512 11.86v-14.3h2.72V117zM3.68 163v-9.98h-3v-1.12c1.68-.04 3.12-.66 3.38-2.68h1.3V163zm9.754.28c-3.16 0-5-2.44-5-5.44s1.96-5.44 4.9-5.44c3.1 0 4.76 2.4 4.76 5.82h-8c.12 2.1 1.26 3.7 3.34 3.7 1.5 0 2.5-.72 2.86-2.12h1.58c-.48 2.22-2.1 3.48-4.44 3.48m-.1-9.6c-1.92 0-2.96 1.44-3.2 3.32h6.22c-.1-2.06-1.16-3.32-3.02-3.32m-.52-2.64-1.64-2.54h2l1.02 2.54zm9.484 1.62v1.72h.04c.62-1 1.7-1.84 3.08-1.84.3 0 .46.04.66.12v1.56h-.06c-.24-.08-.4-.1-.72-.1-1.6 0-3 1.2-3 3.14V163h-1.62v-10.34zm10.265 10.62c-3.16 0-5-2.44-5-5.44s1.96-5.44 4.9-5.44c3.1 0 4.76 2.4 4.76 5.82h-8c.12 2.1 1.26 3.7 3.34 3.7 1.5 0 2.5-.72 2.86-2.12h1.58c-.48 2.22-2.1 3.48-4.44 3.48m-.1-9.6c-1.92 0-2.96 1.44-3.2 3.32h6.22c-.1-2.06-1.16-3.32-3.02-3.32m15.448 9.62c-2.84 0-4.42-1.34-4.58-3.66h1.66c.22 1.8 1.42 2.3 2.96 2.3 1.7 0 2.4-.74 2.4-1.7 0-1.16-.8-1.46-2.7-1.86-2.04-.42-3.86-.84-3.86-3.1 0-1.72 1.32-2.84 3.72-2.84 2.56 0 3.82 1.22 4.06 3.24h-1.66c-.16-1.36-.9-1.96-2.44-1.96-1.48 0-2.08.66-2.08 1.48 0 1.12 1 1.34 2.78 1.7 2.08.42 3.82.88 3.82 3.26 0 2.08-1.7 3.14-4.08 3.14m6.63 3.02v-13.66h1.62v1.46h.04c.78-1.06 1.82-1.7 3.32-1.7 2.62 0 4.44 2 4.44 5.44 0 3.32-1.7 5.44-4.5 5.44-1.4 0-2.4-.42-3.26-1.52h-.04v4.54zm4.8-4.38c1.98 0 2.96-1.72 2.96-4.06 0-2.32-.98-4.08-2.94-4.08-2.26 0-3.3 1.84-3.3 4.08s.9 4.06 3.28 4.06m11.656 1.34c-3.16 0-5-2.44-5-5.44s1.96-5.44 4.9-5.44c3.1 0 4.76 2.4 4.76 5.82h-8c.12 2.1 1.26 3.7 3.34 3.7 1.5 0 2.5-.72 2.86-2.12h1.58c-.48 2.22-2.1 3.48-4.44 3.48m-.1-9.6c-1.92 0-2.96 1.44-3.2 3.32h6.22c-.1-2.06-1.16-3.32-3.02-3.32m-.64-2.64 1.02-2.54h2l-1.64 2.54zM82.664 163v-14.3h1.9l6.52 9.94c.48.74 1.04 1.84 1.04 1.84h.04V148.7h1.68V163h-1.84l-6.56-9.96c-.46-.7-1.06-1.78-1.06-1.78h-.04V163zm20.067.28c-4.02 0-5.94-2.24-6.1-5.12h1.76c.24 2.42 1.72 3.68 4.42 3.68 1.98 0 3.4-.9 3.4-2.68 0-1.96-1.72-2.42-4.28-2.98-2.52-.56-4.68-1.28-4.68-3.98 0-2.36 1.96-3.78 4.86-3.78 3.58 0 5.06 1.82 5.42 4.46h-1.7c-.26-2.04-1.58-3.06-3.68-3.06-1.94 0-3.22.82-3.22 2.3 0 1.62 1.6 2.1 3.74 2.52 2.78.56 5.32 1.24 5.32 4.46 0 2.68-2.18 4.18-5.26 4.18m8.36-.28v-14.3h1.8V163zm5.071 2.56v-.9c.44-.16.9-.54.9-1.66h-.92v-1.98h1.94v2.04c0 1.46-.78 2.28-1.92 2.5m9.075.76v-13.66h1.62v1.46h.04c.78-1.06 1.82-1.7 3.32-1.7 2.62 0 4.44 2 4.44 5.44 0 3.32-1.7 5.44-4.5 5.44-1.4 0-2.4-.42-3.26-1.52h-.04v4.54zm4.8-4.38c1.98 0 2.96-1.72 2.96-4.06 0-2.32-.98-4.08-2.94-4.08-2.26 0-3.3 1.84-3.3 4.08s.9 4.06 3.28 4.06m8.855-13.24v5.32h.04c.74-.98 1.78-1.6 3.28-1.6 2.16 0 3.48 1.18 3.48 3.32V163h-1.62v-7.12c0-1.34-.88-2.1-2.34-2.1-1.64 0-2.84 1.16-2.84 2.86V163h-1.62v-14.3zm11.071 17.72c-.62 0-1.02-.04-1.46-.22v-1.44h.08c.22.12.56.22 1.1.22.68 0 1.14-.26 1.54-1.26l.4-1.02-4.04-10.04h1.76l2.44 6.44c.32.86.7 2.02.7 2.02h.04s.36-1.16.68-2.02l2.36-6.44h1.72l-4.42 11.18c-.84 2.14-1.64 2.58-2.9 2.58m13.287-3.12c-2.84 0-4.42-1.34-4.58-3.66h1.66c.22 1.8 1.42 2.3 2.96 2.3 1.7 0 2.4-.74 2.4-1.7 0-1.16-.8-1.46-2.7-1.86-2.04-.42-3.86-.84-3.86-3.1 0-1.72 1.32-2.84 3.72-2.84 2.56 0 3.82 1.22 4.06 3.24h-1.66c-.16-1.36-.9-1.96-2.44-1.96-1.48 0-2.08.66-2.08 1.48 0 1.12 1 1.34 2.78 1.7 2.08.42 3.82.88 3.82 3.26 0 2.08-1.7 3.14-4.08 3.14m6.631-.3v-10.34h1.62V163zm0-12.3v-2h1.62v2zm12.048 15.62v-4.58h-.04c-.78 1-1.72 1.56-3.2 1.56-2.8 0-4.5-2.12-4.5-5.44 0-3.44 1.92-5.44 4.44-5.44 1.5 0 2.54.6 3.26 1.62h.04v-1.38h1.62v13.66zm-3.16-4.38c2.38 0 3.26-1.72 3.26-4.06 0-2.4-1.02-4.08-3.28-4.08-1.96 0-2.9 1.76-2.9 4.08 0 2.34.94 4.06 2.92 4.06m16.176 1.06h-1.62v-1.42h-.04c-.74 1-1.62 1.66-3.12 1.66-2.12 0-3.48-1.28-3.48-3.42v-7.16h1.62v7.12c0 1.34.86 2.12 2.32 2.12 1.64 0 2.7-1.24 2.7-2.88v-6.36h1.62zm7.61.28c-3.16 0-5-2.44-5-5.44s1.96-5.44 4.9-5.44c3.1 0 4.76 2.4 4.76 5.82h-8c.12 2.1 1.26 3.7 3.34 3.7 1.5 0 2.5-.72 2.86-2.12h1.58c-.48 2.22-2.1 3.48-4.44 3.48m-.1-9.6c-1.92 0-2.96 1.44-3.2 3.32h6.22c-.1-2.06-1.16-3.32-3.02-3.32M5.52 186.28c-3.08 0-5-2.44-5-5.44s1.92-5.44 5-5.44c2.44 0 4.06 1.4 4.42 3.6H8.3c-.24-1.4-1.22-2.26-2.78-2.26-2.2 0-3.34 1.82-3.34 4.1s1.14 4.08 3.34 4.08c1.68 0 2.68-.96 2.82-2.56h1.6c-.22 2.48-1.84 3.92-4.42 3.92m8.571-14.58v5.32h.04c.74-.98 1.78-1.6 3.28-1.6 2.16 0 3.48 1.18 3.48 3.32V186h-1.62v-7.12c0-1.34-.88-2.1-2.34-2.1-1.64 0-2.84 1.16-2.84 2.86V186h-1.62v-14.3zm9.947 14.3v-10.34h1.62V186zm0-12.3v-2h1.62v2zm4.828 12.3v-10.34h1.62v1.48h.04c.64-1 1.74-1.72 3.04-1.72 1.26 0 2.26.64 2.7 1.84h.04a3.62 3.62 0 0 1 3.16-1.84c1.84 0 3.14 1.18 3.14 3.32V186h-1.62v-7.18c0-1.28-.86-2.04-1.9-2.04-1.34 0-2.54 1.16-2.54 2.78V186h-1.62v-7.18c0-1.28-.72-2.04-1.78-2.04-1.26 0-2.66 1.16-2.66 2.78V186zm16.879 0v-10.34h1.62V186zm0-12.3v-2h1.62v2zm9.248 12.58c-3.16 0-5-2.44-5-5.44s1.96-5.44 4.9-5.44c3.1 0 4.76 2.4 4.76 5.82h-8c.12 2.1 1.26 3.7 3.34 3.7 1.5 0 2.5-.72 2.86-2.12h1.58c-.48 2.22-2.1 3.48-4.44 3.48m-.1-9.6c-1.92 0-2.96 1.44-3.2 3.32h6.22c-.1-2.06-1.16-3.32-3.02-3.32m15.307 9.6c-2.08 0-4.1-1.48-4.1-3.82 0-2.12 1.3-3.2 3.1-4.3l-.4-.52c-.82-1.06-1.1-1.9-1.1-2.94 0-1.62 1.34-2.86 3.08-2.86 1.58 0 3.1.98 3.1 2.98 0 1.74-1.26 2.7-2.62 3.58l2.84 3.62c.3-.78.48-1.66.48-2.64h1.4c0 1.36-.32 2.72-.92 3.86l2.16 2.76h-1.94l-1.12-1.44c-.96 1.04-2.28 1.72-3.96 1.72m.1-1.42c1.2 0 2.22-.54 2.98-1.44L70 179.2c-1.3.86-2.28 1.68-2.28 3.26 0 1.42 1.16 2.4 2.58 2.4m-1.08-10.14c0 .8.26 1.38.88 2.18l.38.5c1.24-.8 1.84-1.52 1.84-2.62 0-.98-.6-1.6-1.54-1.6-.92 0-1.56.62-1.56 1.54M83.342 186v-10.34h1.62v1.48h.04c.64-1 1.74-1.72 3.04-1.72 1.26 0 2.26.64 2.7 1.84h.04a3.62 3.62 0 0 1 3.16-1.84c1.84 0 3.14 1.18 3.14 3.32V186h-1.62v-7.18c0-1.28-.86-2.04-1.9-2.04-1.34 0-2.54 1.16-2.54 2.78V186h-1.62v-7.18c0-1.28-.72-2.04-1.78-2.04-1.26 0-2.66 1.16-2.66 2.78V186zm24.999.1c-1.06 0-1.62-.48-1.78-1.54h-.02c-.62.8-1.68 1.64-3.44 1.64-1.96 0-3.5-.92-3.5-2.88 0-2.44 1.92-2.94 4.5-3.34 1.46-.22 2.48-.36 2.48-1.48 0-1.16-.84-1.82-2.32-1.82-1.68 0-2.52.72-2.58 2.28h-1.56c.06-2 1.38-3.5 4.12-3.5 2.2 0 3.82.82 3.82 3.28v4.92c0 .84.2 1.3 1.1 1.1h.06v1.18c-.2.08-.46.16-.88.16m-4.88-1.14c2.16 0 3.14-1.58 3.14-2.78v-1.76c-.54.34-1.48.6-2.36.76-1.62.3-2.92.58-2.92 2.1 0 1.38 1.08 1.68 2.14 1.68m7.1-7.98v-1.32h1.5v-3.26h1.62v3.26h2v1.32h-2v6.72c0 .72.38.96 1.04.96.32 0 .68-.08.86-.14h.06v1.4c-.38.08-.82.14-1.3.14-1.32 0-2.28-.54-2.28-2v-7.08zm9.413-5.28v5.32h.04c.74-.98 1.78-1.6 3.28-1.6 2.16 0 3.48 1.18 3.48 3.32V186h-1.62v-7.12c0-1.34-.88-2.1-2.34-2.1-1.64 0-2.84 1.16-2.84 2.86V186h-1.62v-14.3zm14.366 14.58c-3.16 0-5-2.44-5-5.44s1.96-5.44 4.9-5.44c3.1 0 4.76 2.4 4.76 5.82h-8c.12 2.1 1.26 3.7 3.34 3.7 1.5 0 2.5-.72 2.86-2.12h1.58c-.48 2.22-2.1 3.48-4.44 3.48m-.1-9.6c-1.92 0-2.96 1.44-3.2 3.32h6.22c-.1-2.06-1.16-3.32-3.02-3.32m-.64-2.64 1.02-2.54h2l-1.64 2.54zm7.984 11.96v-10.34h1.62v1.48h.04c.64-1 1.74-1.72 3.04-1.72 1.26 0 2.26.64 2.7 1.84h.04a3.62 3.62 0 0 1 3.16-1.84c1.84 0 3.14 1.18 3.14 3.32V186h-1.62v-7.18c0-1.28-.86-2.04-1.9-2.04-1.34 0-2.54 1.16-2.54 2.78V186h-1.62v-7.18c0-1.28-.72-2.04-1.78-2.04-1.26 0-2.66 1.16-2.66 2.78V186zm24.999.1c-1.06 0-1.62-.48-1.78-1.54h-.02c-.62.8-1.68 1.64-3.44 1.64-1.96 0-3.5-.92-3.5-2.88 0-2.44 1.92-2.94 4.5-3.34 1.46-.22 2.48-.36 2.48-1.48 0-1.16-.84-1.82-2.32-1.82-1.68 0-2.52.72-2.58 2.28h-1.56c.06-2 1.38-3.5 4.12-3.5 2.2 0 3.82.82 3.82 3.28v4.92c0 .84.2 1.3 1.1 1.1h.06v1.18c-.2.08-.46.16-.88.16m-4.88-1.14c2.16 0 3.14-1.58 3.14-2.78v-1.76c-.54.34-1.48.6-2.36.76-1.62.3-2.92.58-2.92 2.1 0 1.38 1.08 1.68 2.14 1.68m7.1-7.98v-1.32h1.5v-3.26h1.62v3.26h2v1.32h-2v6.72c0 .72.38.96 1.04.96.32 0 .68-.08.86-.14h.06v1.4c-.38.08-.82.14-1.3.14-1.32 0-2.28-.54-2.28-2v-7.08zm7.793 9.02v-10.34h1.62V186zm0-12.3v-2h1.62v2zm12.048 15.62v-4.58h-.04c-.78 1-1.72 1.56-3.2 1.56-2.8 0-4.5-2.12-4.5-5.44 0-3.44 1.92-5.44 4.44-5.44 1.5 0 2.54.6 3.26 1.62h.04v-1.38h1.62v13.66zm-3.16-4.38c2.38 0 3.26-1.72 3.26-4.06 0-2.4-1.02-4.08-3.28-4.08-1.96 0-2.9 1.76-2.9 4.08 0 2.34.94 4.06 2.92 4.06m16.175 1.06h-1.62v-1.42h-.04c-.74 1-1.62 1.66-3.12 1.66-2.12 0-3.48-1.28-3.48-3.42v-7.16h1.62v7.12c0 1.34.86 2.12 2.32 2.12 1.64 0 2.7-1.24 2.7-2.88v-6.36h1.62zm7.611.28c-3.16 0-5-2.44-5-5.44s1.96-5.44 4.9-5.44c3.1 0 4.76 2.4 4.76 5.82h-8c.12 2.1 1.26 3.7 3.34 3.7 1.5 0 2.5-.72 2.86-2.12h1.58c-.48 2.22-2.1 3.48-4.44 3.48m-.1-9.6c-1.92 0-2.96 1.44-3.2 3.32h6.22c-.1-2.06-1.16-3.32-3.02-3.32m11.264 9.62c-2.84 0-4.42-1.34-4.58-3.66h1.66c.22 1.8 1.42 2.3 2.96 2.3 1.7 0 2.4-.74 2.4-1.7 0-1.16-.8-1.46-2.7-1.86-2.04-.42-3.86-.84-3.86-3.1 0-1.72 1.32-2.84 3.72-2.84 2.56 0 3.82 1.22 4.06 3.24h-1.66c-.16-1.36-.9-1.96-2.44-1.96-1.48 0-2.08.66-2.08 1.48 0 1.12 1 1.34 2.78 1.7 2.08.42 3.82.88 3.82 3.26 0 2.08-1.7 3.14-4.08 3.14M1.34 232v-14.3h1.8v12.64h7.5V232zm15.864.28c-3.08 0-5-2.44-5-5.44s1.92-5.44 5-5.44c3.1 0 4.98 2.44 4.98 5.44s-1.88 5.44-4.98 5.44m0-1.36c2.2 0 3.32-1.8 3.32-4.08s-1.12-4.1-3.32-4.1-3.34 1.82-3.34 4.1 1.14 4.08 3.34 4.08m11.715 4.52c-2.68 0-4.2-1.08-4.38-2.86h1.5c.16 1.14 1.24 1.58 2.84 1.58 1.9 0 2.96-.86 2.96-2.66v-1.46h-.04c-.76.98-1.58 1.6-3.06 1.6-2.68 0-4.52-2.14-4.52-5.12 0-3.22 2.02-5.1 4.42-5.1 1.5 0 2.46.58 3.16 1.56h.04v-1.32h1.62v9.78c0 2.72-1.8 4-4.54 4m-.1-5.16c2.38 0 3.14-1.66 3.14-3.84 0-2.26-.96-3.66-3.16-3.66-1.94 0-2.92 1.52-2.92 3.76 0 2.26 1.02 3.74 2.94 3.74m7.84 1.72v-10.34h1.62V232zm0-12.3v-2h1.62v2zm12.048 15.62v-4.58h-.04c-.78 1-1.72 1.56-3.2 1.56-2.8 0-4.5-2.12-4.5-5.44 0-3.44 1.92-5.44 4.44-5.44 1.5 0 2.54.6 3.26 1.62h.04v-1.38h1.62v13.66zm-3.16-4.38c2.38 0 3.26-1.72 3.26-4.06 0-2.4-1.02-4.08-3.28-4.08-1.96 0-2.9 1.76-2.9 4.08 0 2.34.94 4.06 2.92 4.06M61.722 232h-1.62v-1.42h-.04c-.74 1-1.62 1.66-3.12 1.66-2.12 0-3.48-1.28-3.48-3.42v-7.16h1.62v7.12c0 1.34.86 2.12 2.32 2.12 1.64 0 2.7-1.24 2.7-2.88v-6.36h1.62zm7.61.28c-3.16 0-5-2.44-5-5.44s1.96-5.44 4.9-5.44c3.1 0 4.76 2.4 4.76 5.82h-8c.12 2.1 1.26 3.7 3.34 3.7 1.5 0 2.5-.72 2.86-2.12h1.58c-.48 2.22-2.1 3.48-4.44 3.48m-.1-9.6c-1.92 0-2.96 1.44-3.2 3.32h6.22c-.1-2.06-1.16-3.32-3.02-3.32M6.54 255.28c-4.02 0-5.94-2.24-6.1-5.12H2.2c.24 2.42 1.72 3.68 4.42 3.68 1.98 0 3.4-.9 3.4-2.68 0-1.96-1.72-2.42-4.28-2.98-2.52-.56-4.68-1.28-4.68-3.98 0-2.36 1.96-3.78 4.86-3.78 3.58 0 5.06 1.82 5.42 4.46h-1.7c-.26-2.04-1.58-3.06-3.68-3.06-1.94 0-3.22.82-3.22 2.3 0 1.62 1.6 2.1 3.74 2.52 2.78.56 5.32 1.24 5.32 4.46 0 2.68-2.18 4.18-5.26 4.18m12.5 0c-3.08 0-5-2.44-5-5.44s1.92-5.44 5-5.44c2.44 0 4.06 1.4 4.42 3.6h-1.64c-.24-1.4-1.22-2.26-2.78-2.26-2.2 0-3.34 1.82-3.34 4.1s1.14 4.08 3.34 4.08c1.68 0 2.68-.96 2.82-2.56h1.6c-.22 2.48-1.84 3.92-4.42 3.92m6.95-.28v-10.34h1.62V255zm0-12.3v-2h1.62v2zm9.249 12.58c-3.16 0-5-2.44-5-5.44s1.96-5.44 4.9-5.44c3.1 0 4.76 2.4 4.76 5.82h-8c.12 2.1 1.26 3.7 3.34 3.7 1.5 0 2.5-.72 2.86-2.12h1.58c-.48 2.22-2.1 3.48-4.44 3.48m-.1-9.6c-1.92 0-2.96 1.44-3.2 3.32h6.22c-.1-2.06-1.16-3.32-3.02-3.32m8.964-1.02v1.36h.04c.74-.98 1.78-1.6 3.28-1.6 2.16 0 3.48 1.18 3.48 3.32V255h-1.62v-7.12c0-1.34-.88-2.1-2.34-2.1-1.64 0-2.84 1.16-2.84 2.86V255h-1.62v-10.34zm14.366 10.62c-3.08 0-5-2.44-5-5.44s1.92-5.44 5-5.44c2.44 0 4.06 1.4 4.42 3.6h-1.64c-.24-1.4-1.22-2.26-2.78-2.26-2.2 0-3.34 1.82-3.34 4.1s1.14 4.08 3.34 4.08c1.68 0 2.68-.96 2.82-2.56h1.6c-.22 2.48-1.84 3.92-4.42 3.92m11.371 0c-3.16 0-5-2.44-5-5.44s1.96-5.44 4.9-5.44c3.1 0 4.76 2.4 4.76 5.82h-8c.12 2.1 1.26 3.7 3.34 3.7 1.5 0 2.5-.72 2.86-2.12h1.58c-.48 2.22-2.1 3.48-4.44 3.48m-.1-9.6c-1.92 0-2.96 1.44-3.2 3.32h6.22c-.1-2.06-1.16-3.32-3.02-3.32M7.8 278.3c-4.32 0-7-3.18-7-7.46s2.68-7.46 7-7.46 7 3.18 7 7.46-2.68 7.46-7 7.46m0-1.58c3.36 0 5.16-2.52 5.16-5.88s-1.8-5.9-5.16-5.9-5.16 2.54-5.16 5.9 1.8 5.88 5.16 5.88m11.526-9.06v1.72h.04c.62-1 1.7-1.84 3.08-1.84.3 0 .46.04.66.12v1.56h-.06c-.24-.08-.4-.1-.72-.1-1.6 0-3 1.2-3 3.14V278h-1.62v-10.34zm9.964 13.78c-2.68 0-4.2-1.08-4.38-2.86h1.5c.16 1.14 1.24 1.58 2.84 1.58 1.9 0 2.96-.86 2.96-2.66v-1.46h-.04c-.76.98-1.58 1.6-3.06 1.6-2.68 0-4.52-2.14-4.52-5.12 0-3.22 2.02-5.1 4.42-5.1 1.5 0 2.46.58 3.16 1.56h.04v-1.32h1.62v9.78c0 2.72-1.8 4-4.54 4m-.1-5.16c2.38 0 3.14-1.66 3.14-3.84 0-2.26-.96-3.66-3.16-3.66-1.94 0-2.92 1.52-2.92 3.76 0 2.26 1.02 3.74 2.94 3.74m15.96 1.82c-1.06 0-1.62-.48-1.78-1.54h-.02c-.62.8-1.68 1.64-3.44 1.64-1.96 0-3.5-.92-3.5-2.88 0-2.44 1.92-2.94 4.5-3.34 1.46-.22 2.48-.36 2.48-1.48 0-1.16-.84-1.82-2.32-1.82-1.68 0-2.52.72-2.58 2.28h-1.56c.06-2 1.38-3.5 4.12-3.5 2.2 0 3.82.82 3.82 3.28v4.92c0 .84.2 1.3 1.1 1.1h.06v1.18c-.2.08-.46.16-.88.16m-4.88-1.14c2.16 0 3.14-1.58 3.14-2.78v-1.76c-.54.34-1.48.6-2.36.76-1.62.3-2.92.58-2.92 2.1 0 1.38 1.08 1.68 2.14 1.68m9.575-9.3v1.36h.04c.74-.98 1.78-1.6 3.28-1.6 2.16 0 3.48 1.18 3.48 3.32V278h-1.62v-7.12c0-1.34-.88-2.1-2.34-2.1-1.64 0-2.84 1.16-2.84 2.86V278h-1.62v-10.34zM59.791 278v-10.34h1.62V278zm0-12.3v-2h1.62v2zm8.749 12.6c-2.84 0-4.42-1.34-4.58-3.66h1.66c.22 1.8 1.42 2.3 2.96 2.3 1.7 0 2.4-.74 2.4-1.7 0-1.16-.8-1.46-2.7-1.86-2.04-.42-3.86-.84-3.86-3.1 0-1.72 1.32-2.84 3.72-2.84 2.56 0 3.82 1.22 4.06 3.24h-1.66c-.16-1.36-.9-1.96-2.44-1.96-1.48 0-2.08.66-2.08 1.48 0 1.12 1 1.34 2.78 1.7 2.08.42 3.82.88 3.82 3.26 0 2.08-1.7 3.14-4.08 3.14m14.848-.2c-1.06 0-1.62-.48-1.78-1.54h-.02c-.62.8-1.68 1.64-3.44 1.64-1.96 0-3.5-.92-3.5-2.88 0-2.44 1.92-2.94 4.5-3.34 1.46-.22 2.48-.36 2.48-1.48 0-1.16-.84-1.82-2.32-1.82-1.68 0-2.52.72-2.58 2.28h-1.56c.06-2 1.38-3.5 4.12-3.5 2.2 0 3.82.82 3.82 3.28v4.92c0 .84.2 1.3 1.1 1.1h.06v1.18c-.2.08-.46.16-.88.16m-4.88-1.14c2.16 0 3.14-1.58 3.14-2.78v-1.76c-.54.34-1.48.6-2.36.76-1.62.3-2.92.58-2.92 2.1 0 1.38 1.08 1.68 2.14 1.68m7.1-7.98v-1.32h1.5v-3.26h1.62v3.26h2v1.32h-2v6.72c0 .72.38.96 1.04.96.32 0 .68-.08.86-.14h.06v1.4c-.38.08-.82.14-1.3.14-1.32 0-2.28-.54-2.28-2v-7.08zm7.793 9.02v-10.34h1.62V278zm0-12.3v-2h1.62v2zm9.248 12.58c-3.08 0-5-2.44-5-5.44s1.92-5.44 5-5.44c3.1 0 4.98 2.44 4.98 5.44s-1.88 5.44-4.98 5.44m0-1.36c2.2 0 3.32-1.8 3.32-4.08s-1.12-4.1-3.32-4.1-3.34 1.82-3.34 4.1 1.14 4.08 3.34 4.08m9.216-9.26v1.36h.04c.74-.98 1.78-1.6 3.28-1.6 2.16 0 3.48 1.18 3.48 3.32V278h-1.62v-7.12c0-1.34-.88-2.1-2.34-2.1-1.64 0-2.84 1.16-2.84 2.86V278h-1.62v-10.34z"/><g filter="url(#a)"><path stroke="#E72964" stroke-linecap="round" stroke-width="5" d="M76 333h100"/></g><path fill="ivory" d="M125.1 47V23.1h-7.75v-4.5c4.2-.15 7.95-1.7 8.65-6.1h5.95V47z"/><defs><filter id="a" width="107" height="7" x="72.5" y="329.5" color-interpolation-filters="sRGB" filterUnits="userSpaceOnUse"><feFlood flood-opacity="0" result="BackgroundImageFix"/><feBlend in="SourceGraphic" in2="BackgroundImageFix" result="shape"/><feGaussianBlur result="effect1_foregroundBlur_189_4" stdDeviation=".5"/></filter></defs></svg>