<?xml version="1.0" encoding="UTF-8"?>
<svg id="Calque_2" data-name="Calque 2" xmlns="http://www.w3.org/2000/svg" viewBox="0 0 125.28 125.28">
  <defs>
    <style>
      .cls-1 {
        fill: #fff;
      }

      .cls-2 {
        fill: #554596;
      }
    </style>
  </defs>
  <g id="Calque_1-2" data-name="Calque 1">
    <g>
      <rect class="cls-1" x="0" width="125.28" height="125.28" rx="46.49" ry="46.49"/>
      <g>
        <path class="cls-2" d="M23.03,53.84c7.15-5.18,9.52-10.38,9.77-17.6-.29-7.23-2.63-12.38-9.77-17.61,4.88-3.4,11.75-2.33,16.5,1.1,5.19,3.64,8.32,10.14,8.27,16.5.04,6.36-3.09,12.86-8.28,16.49-4.75,3.43-11.61,4.5-16.49,1.12h0Z"/>
        <path class="cls-2" d="M23.03,106.65c11.74-5.49,18.18-14.68,18.41-26.41-.03-4.96-1.35-9.85-4.24-14.46-2.9-4.64-7.35-8.74-14.17-11.94,3.43-1.64,7.47-2,11.44-1.35,17.97,3.16,26.96,24.49,19.11,40.43-4.98,11.15-18.99,18.97-30.56,13.73h0Z"/>
        <path class="cls-2" d="M18.71,93.45c4.98-4.85,5.39-8.19,5.46-13.2-.11-5.02-.48-8.32-5.46-13.2,3.64-3.38,9.41-2.87,13.44-.2,4.39,2.81,7.07,8.18,7.02,13.41.04,5.22-2.64,10.59-7.03,13.39-4.02,2.66-9.78,3.17-13.42-.19h0Z"/>
        <path class="cls-2" d="M63.78,106.65c20.32-5.58,35.26-22.34,35.28-43.6-.1-20.7-14.37-37.95-35.28-43.61,11.85-3.39,25.29.64,34.62,8.81,20.79,17.78,20.83,51.83-.03,69.56-9.35,8.16-22.74,12.12-34.59,8.84h0Z"/>
        <path class="cls-2" d="M63.78,84.85c9.32-5.37,13.63-12.45,13.89-21.8-.31-9.36-4.58-16.39-13.89-21.8,2.83-1.64,6.28-2.12,9.7-1.7,15.63,2.12,23.6,20.81,16.68,34.44-4.34,9.52-16.73,16.13-26.38,10.87h0Z"/>
      </g>
    </g>
  </g>
</svg>